<svg width="465" height="461" viewBox="0 0 465 461" fill="none" xmlns="http://www.w3.org/2000/svg">
<path d="M269.386 269.968H87.2562V382.71H269.386V269.968Z" fill="#FAFAFA"/>
<path d="M225.402 351.427C212.805 346.599 198.213 359.93 185.827 354.472C178.583 351.322 175.329 343.134 171.865 336.206C168.296 329.173 162.208 321.825 154.439 322.56C146.566 323.399 140.163 332.532 132.605 330.328C127.776 328.963 125.362 323.609 124.207 318.781C123.052 313.952 122.212 308.598 118.538 305.134C114.864 301.775 107.201 302.615 106.676 307.653V367.383H249.126C249.021 367.383 229.811 353.107 225.402 351.427Z" fill="#EBEBEB"/>
<path d="M252.905 367.383C252.905 367.488 218.369 367.593 175.854 367.593C133.235 367.593 98.6985 367.488 98.6985 367.383C98.6985 367.278 133.235 367.173 175.854 367.173C218.369 367.173 252.905 367.278 252.905 367.383Z" fill="#E0E0E0"/>
<path d="M252.905 341.245C252.905 341.35 218.369 341.455 175.854 341.455C133.235 341.455 98.6985 341.35 98.6985 341.245C98.6985 341.14 133.235 341.035 175.854 341.035C218.369 341.035 252.905 341.14 252.905 341.245Z" fill="#E0E0E0"/>
<path d="M252.905 315.211C252.905 315.316 218.369 315.421 175.854 315.421C133.235 315.421 98.6985 315.316 98.6985 315.211C98.6985 315.107 133.235 315.002 175.854 315.002C218.369 315.002 252.905 315.107 252.905 315.211Z" fill="#E0E0E0"/>
<path d="M252.905 290.333C252.905 290.438 218.369 290.543 175.854 290.543C133.235 290.543 98.6985 290.438 98.6985 290.333C98.6985 290.228 133.235 290.123 175.854 290.123C218.369 290.123 252.905 290.228 252.905 290.333Z" fill="#E0E0E0"/>
<path d="M416.664 0.919922H281.143V122.165H416.664V0.919922Z" fill="#FAFAFA"/>
<path d="M416.664 122.165C416.664 122.165 416.664 121.43 416.664 119.96C416.664 118.49 416.664 116.286 416.664 113.452C416.664 107.783 416.664 99.3853 416.559 88.7829C416.559 67.5782 416.454 37.3458 416.349 0.814921L416.664 1.12984C377.614 1.12984 331.005 1.12984 281.143 1.23482L281.458 0.919895C281.458 45.0089 281.458 86.5785 281.458 122.165L281.143 121.85C321.558 121.955 355.464 121.955 379.188 122.06C391.05 122.06 400.393 122.165 406.796 122.165C409.946 122.165 412.465 122.165 414.145 122.165C414.984 122.165 415.614 122.165 416.034 122.165C416.454 122.165 416.664 122.165 416.664 122.165C416.664 122.165 416.454 122.165 416.034 122.165C415.614 122.165 414.984 122.165 414.145 122.165C412.465 122.165 410.051 122.165 406.901 122.165C400.498 122.165 391.155 122.165 379.293 122.27C355.464 122.27 321.558 122.375 281.038 122.48H280.723V122.165C280.723 86.4735 280.723 45.0089 280.723 0.919895V0.5H281.038C331.005 0.5 377.509 0.5 416.559 0.604974H416.874V0.919895C416.769 37.4508 416.769 67.7882 416.664 88.9929C416.664 99.5952 416.559 107.888 416.559 113.557C416.559 116.391 416.559 118.49 416.559 119.96C416.769 121.43 416.664 122.165 416.664 122.165Z" fill="#E0E0E0"/>
<path d="M333.105 22.4396C333.105 22.6495 325.967 22.7545 317.149 22.7545C308.331 22.7545 301.193 22.5445 301.193 22.4396C301.193 22.2296 308.331 22.1246 317.149 22.1246C325.967 22.1246 333.105 22.2296 333.105 22.4396Z" fill="#E0E0E0"/>
<path d="M390.526 31.5723C390.526 31.7823 370.895 31.8873 346.751 31.8873C322.608 31.8873 302.977 31.6773 302.977 31.5723C302.977 31.3624 322.608 31.2574 346.751 31.2574C371 31.1524 390.526 31.3624 390.526 31.5723Z" fill="#E0E0E0"/>
<path d="M307.176 47.0034H301.508V52.672H307.176V47.0034Z" fill="#E0E0E0"/>
<path d="M321.243 47.0034H315.574V52.672H321.243V47.0034Z" fill="#E0E0E0"/>
<path d="M335.519 46.6886H329.851V52.3572H335.519V46.6886Z" fill="#E0E0E0"/>
<path d="M349.376 47.0034H343.707V52.672H349.376V47.0034Z" fill="#E0E0E0"/>
<path d="M363.442 47.0034H357.774V52.672H363.442V47.0034Z" fill="#E0E0E0"/>
<path d="M377.404 47.0034H371.735V52.672H377.404V47.0034Z" fill="#E0E0E0"/>
<path d="M391.47 47.0034H385.802V52.672H391.47V47.0034Z" fill="#EBEBEB"/>
<path d="M307.176 59.0754H301.508V64.744H307.176V59.0754Z" fill="#EBEBEB"/>
<path d="M321.243 59.0754H315.574V64.744H321.243V59.0754Z" fill="#E0E0E0"/>
<path d="M335.309 59.0754H329.641V64.744H335.309V59.0754Z" fill="#EBEBEB"/>
<path d="M349.376 59.0754H343.707V64.744H349.376V59.0754Z" fill="#E0E0E0"/>
<path d="M363.442 59.0754H357.774V64.744H363.442V59.0754Z" fill="#E0E0E0"/>
<path d="M377.719 58.8655H372.05V64.5341H377.719V58.8655Z" fill="#E0E0E0"/>
<path d="M391.47 59.0754H385.802V64.744H391.47V59.0754Z" fill="#E0E0E0"/>
<path d="M307.176 71.2523H301.508V76.9209H307.176V71.2523Z" fill="#E0E0E0"/>
<path d="M321.453 71.0422H315.784V76.7108H321.453V71.0422Z" fill="#E0E0E0"/>
<path d="M335.309 71.2523H329.641V76.9209H335.309V71.2523Z" fill="#E0E0E0"/>
<path d="M349.376 71.2523H343.707V76.9209H349.376V71.2523Z" fill="#EBEBEB"/>
<path d="M363.442 71.2523H357.774V76.9209H363.442V71.2523Z" fill="#E0E0E0"/>
<path d="M377.404 71.2523H371.735V76.9209H377.404V71.2523Z" fill="#E0E0E0"/>
<path d="M391.47 71.2523H385.802V76.9209H391.47V71.2523Z" fill="#E0E0E0"/>
<path d="M307.176 83.4293H301.508V89.0979H307.176V83.4293Z" fill="#E0E0E0"/>
<path d="M321.243 83.4293H315.574V89.0979H321.243V83.4293Z" fill="#E0E0E0"/>
<path d="M335.309 83.4293H329.641V89.0979H335.309V83.4293Z" fill="#E0E0E0"/>
<path d="M349.586 83.1144H343.917V88.783H349.586V83.1144Z" fill="#E0E0E0"/>
<path d="M363.442 83.4293H357.774V89.0979H363.442V83.4293Z" fill="#E0E0E0"/>
<path d="M377.404 83.4293H371.735V89.0979H377.404V83.4293Z" fill="#EBEBEB"/>
<path d="M391.47 83.4293H385.802V89.0979H391.47V83.4293Z" fill="#E0E0E0"/>
<path d="M307.176 95.5012H301.508V101.17H307.176V95.5012Z" fill="#E0E0E0"/>
<path d="M321.243 95.5012H315.574V101.17H321.243V95.5012Z" fill="#EBEBEB"/>
<path d="M335.309 95.5012H329.641V101.17H335.309V95.5012Z" fill="#E0E0E0"/>
<path d="M349.376 95.5012H343.707V101.17H349.376V95.5012Z" fill="#E0E0E0"/>
<path d="M363.442 95.5012H357.774V101.17H363.442V95.5012Z" fill="#E0E0E0"/>
<path d="M377.719 95.2914H372.05V100.96H377.719V95.2914Z" fill="#E0E0E0"/>
<path d="M391.47 95.5012H385.802V101.17H391.47V95.5012Z" fill="#E0E0E0"/>
<path d="M227.606 11.8372C227.606 11.8372 243.667 12.0471 236.739 43.8542C229.916 75.6612 230.756 81.6447 230.756 94.2415C230.756 108.938 242.618 114.292 242.618 114.292H220.888L204.827 40.0751V11.8372H227.606Z" fill="#E0E0E0"/>
<path d="M232.33 262.095H12.5151L14.4047 47.0033L221.518 36.191L232.33 262.095Z" fill="#E0E0E0"/>
<path d="M224.772 256.531H4.95691L6.84644 41.4397L220.363 37.3457L224.772 256.531Z" fill="#EBEBEB"/>
<path d="M220.153 250.548H0.862915V35.4564L220.363 34.9315L220.153 250.548Z" fill="#FAFAFA"/>
<path d="M220.153 250.547C220.153 248.553 220.153 164.259 220.048 35.0363L220.258 35.2463C156.644 35.4562 81.3779 35.5612 1.07296 35.7712C0.967991 35.7712 0.863014 35.7712 0.75804 35.7712L1.07296 35.4562C1.07296 114.082 1.07296 187.878 1.07296 250.547L0.86302 250.338C132.29 250.443 218.159 250.547 220.153 250.547C218.159 250.547 132.185 250.652 0.75804 250.757H0.548096V250.547C0.548096 187.983 0.548096 114.187 0.548096 35.4562V35.1413H0.86302C0.967994 35.1413 1.07297 35.1413 1.17794 35.1413C81.4829 34.9314 156.749 34.8264 220.363 34.6165H220.573V34.8264C220.363 164.259 220.153 248.553 220.153 250.547Z" fill="#263238"/>
<path d="M220.363 34.4065C209.026 21.1798 222.148 11.4172 226.662 11.2073L17.7637 11.1023C6.84645 11.1023 -1.44647 20.9698 0.443054 31.6771C0.757975 33.3567 1.28285 34.9313 1.28285 34.9313" fill="#F5F5F5"/>
<path d="M225.822 114.292C225.822 114.292 225.927 114.292 226.137 114.292C226.347 114.292 226.662 114.292 226.976 114.292C227.711 114.292 228.866 114.292 230.231 114.292C233.17 114.292 237.369 114.292 242.618 114.187V114.501C240.833 113.977 239.153 113.032 237.579 111.562C236.004 110.198 234.745 108.308 233.8 106.209C232.855 104.109 232.12 101.8 231.595 99.3853C231.28 98.1256 231.07 96.8659 230.861 95.6062C230.756 94.9764 230.651 94.3465 230.546 93.6117C230.441 92.9819 230.441 92.247 230.441 91.6172C230.336 88.8879 230.546 86.1586 230.756 83.2193C230.965 80.385 231.28 77.4457 231.595 74.4015C232.33 68.418 233.17 62.2245 234.22 55.8211C234.64 53.0918 235.164 50.3625 235.689 47.7382C236.109 45.1138 236.424 42.4895 236.844 39.8651C237.159 37.2408 237.474 34.7214 237.789 32.307C237.894 31.0473 238.104 29.7877 238.104 28.6329C238.104 27.3733 238.104 26.2185 237.894 25.0638C237.579 22.7544 236.949 20.445 235.899 18.4505C234.954 16.456 233.59 14.6714 231.91 13.4117C230.231 12.257 228.131 11.8371 226.242 12.1521C224.352 12.467 222.568 13.0968 221.203 14.2515C219.838 15.4062 218.789 16.7709 218.054 18.1356C217.319 19.6052 216.794 20.9699 216.479 22.4395C215.849 25.2738 216.479 27.6882 217.319 29.5777C218.159 31.4672 218.998 32.7269 219.628 33.5667C219.943 33.9866 220.153 34.3015 220.363 34.5115C220.573 34.7214 220.573 34.8264 220.573 34.8264C220.573 34.8264 220.468 34.7214 220.258 34.5115C220.048 34.3015 219.838 33.9866 219.523 33.5667C218.894 32.7269 217.949 31.4672 217.109 29.5777C216.269 27.7931 215.534 25.1688 216.164 22.3345C216.479 20.8649 216.899 19.3953 217.739 17.9256C218.474 16.456 219.523 14.9864 220.993 13.8316C222.463 12.6769 224.247 11.9421 226.242 11.6272C228.236 11.3123 230.441 11.7322 232.225 12.9919C234.01 14.2515 235.374 16.1411 236.424 18.1356C237.474 20.235 238.104 22.4395 238.524 24.8539C238.734 26.0086 238.734 27.2683 238.734 28.528C238.734 29.7877 238.524 31.0473 238.419 32.202C238.104 34.7214 237.894 37.2408 237.474 39.8651C237.159 42.4895 236.844 45.1138 236.319 47.7382C235.899 50.3625 235.269 53.0918 234.85 55.8211C233.8 62.2245 232.855 68.418 232.12 74.4015C231.805 77.3408 231.49 80.28 231.28 83.1143C231.07 85.9486 230.861 88.7829 230.965 91.4072C230.965 92.0371 231.07 92.7719 231.07 93.4018C231.07 94.0316 231.28 94.6614 231.385 95.2913C231.595 96.551 231.91 97.8107 232.12 99.0703C232.645 101.485 233.38 103.794 234.325 105.894C235.269 107.993 236.424 109.778 237.999 111.142C239.468 112.507 241.148 113.452 242.932 113.977L243.982 114.292H242.932C237.684 114.292 233.485 114.187 230.546 114.187C229.181 114.187 228.026 114.187 227.291 114.187C226.976 114.187 226.662 114.187 226.452 114.187C225.927 114.292 225.822 114.292 225.822 114.292Z" fill="#263238"/>
<path d="M90.6154 17.8206C90.7204 17.9255 90.0906 18.7653 89.4608 20.235C89.1458 20.9698 88.8309 21.9146 88.621 22.9643C88.411 24.014 88.411 25.2737 88.411 26.4284C88.516 27.6881 88.8309 28.8428 89.1458 29.8926C89.4607 30.9423 89.8806 31.7821 90.3005 32.5169C91.1403 33.8816 91.8751 34.6164 91.7702 34.7214C91.7702 34.7214 91.5602 34.6164 91.2453 34.3015C90.9304 33.9865 90.4055 33.4617 89.9856 32.7268C89.4608 31.992 89.0408 31.1522 88.621 30.1025C88.2011 29.0528 87.9911 27.7931 87.8862 26.5334C87.7812 25.2737 87.8861 24.014 88.0961 22.8593C88.306 21.8096 88.6209 20.7598 89.0408 20.025C89.3558 19.2902 89.7757 18.6604 90.0906 18.3454C90.4055 17.9255 90.5105 17.7156 90.6154 17.8206Z" fill="#263238"/>
<path d="M85.3668 10.3676C85.4718 10.4725 84.0022 11.4173 82.6375 13.7267C81.1679 15.9312 79.9082 19.7102 80.643 23.8042C81.3778 27.8982 84.0022 30.9424 86.1017 32.517C88.3061 34.1966 89.9857 34.6165 89.8807 34.7215C89.8807 34.7215 89.4608 34.6165 88.726 34.4065C87.9912 34.1966 86.9414 33.6717 85.8917 32.8319C83.5823 31.2573 80.9579 28.2131 80.1181 23.9092C79.3833 19.7102 80.748 15.8262 82.3226 13.5168C83.0574 12.3621 83.8972 11.5223 84.4221 10.9974C84.9469 10.5775 85.3668 10.3676 85.3668 10.3676Z" fill="#263238"/>
<path d="M203.462 178.221C203.462 178.221 203.252 178.221 202.727 178.221C202.203 178.221 201.573 178.221 200.733 178.221C198.948 178.221 196.324 178.221 192.965 178.221C186.247 178.221 176.484 178.221 164.412 178.325C140.268 178.325 107.096 178.325 70.3556 178.43C56.0791 178.43 42.4325 178.43 29.8357 178.43H29.6257V178.221C29.6257 151.347 29.7307 128.253 29.7307 111.772C29.7307 103.584 29.8357 97.0758 29.8357 92.5619C29.8357 90.3575 29.8357 88.5729 29.8357 87.4182C29.8357 86.8933 29.8357 86.3685 29.8357 86.0536C29.8357 85.7386 29.8357 85.6337 29.8357 85.6337C29.8357 85.6337 29.8357 85.7386 29.8357 86.0536C29.8357 86.3685 29.8357 86.7884 29.8357 87.4182C29.8357 88.5729 29.8357 90.3575 29.8357 92.5619C29.8357 97.0758 29.8357 103.584 29.9407 111.772C29.9407 128.148 30.0456 151.347 30.0456 178.221L29.8357 178.011C42.4325 178.011 56.1841 178.011 70.3556 178.011C107.096 178.011 140.373 178.116 164.412 178.116C176.484 178.116 186.142 178.221 192.965 178.221C196.324 178.221 198.948 178.221 200.733 178.221C201.573 178.221 202.308 178.221 202.727 178.221C203.147 178.221 203.462 178.221 203.462 178.221Z" fill="#263238"/>
<path d="M61.4329 155.336H43.9022V172.867H61.4329V155.336Z" fill="#EA6216"/>
<path d="M87.1515 142.844H69.6208V172.867H87.1515V142.844Z" fill="#EA6216"/>
<path d="M112.975 128.568H95.4443V172.867H112.975V128.568Z" fill="#EA6216"/>
<path d="M137.959 112.717H120.428V172.867H137.959V112.717Z" fill="#EA6216"/>
<path d="M163.572 92.4569H146.042V172.972H163.572V92.4569Z" fill="#EA6216"/>
<path d="M188.976 76.9209H171.445V172.027H188.976V76.9209Z" fill="#EA6216"/>
<path d="M43.9022 137.386C43.9022 137.386 44.0072 137.281 44.1122 137.176C44.3221 137.071 44.5321 136.861 44.847 136.756C45.4769 136.336 46.4216 135.706 47.4714 134.971C49.8858 133.397 53.2449 131.192 57.5488 128.358C66.1567 122.69 78.3336 114.816 92.4001 105.579L92.82 105.264V105.789C92.82 108.308 92.82 110.932 92.82 113.662L92.4001 113.452C96.809 110.513 101.428 107.363 106.152 104.214C125.047 91.6173 142.158 80.1751 154.545 71.8822C160.738 67.7882 165.777 64.4291 169.241 62.1197C170.92 60.9649 172.285 60.1251 173.23 59.4953C173.65 59.1804 174.07 58.9704 174.28 58.8655C174.49 58.7605 174.595 58.6555 174.7 58.6555C174.7 58.6555 174.595 58.7605 174.385 58.8655C174.175 59.0754 173.755 59.2854 173.335 59.6003C172.39 60.2301 171.13 61.1749 169.346 62.3296C165.882 64.639 160.843 68.1032 154.755 72.1971C142.368 80.4901 125.257 92.0372 106.467 104.634C101.743 107.783 97.2289 110.827 92.715 113.872L92.2951 114.187V113.662C92.2951 110.932 92.2951 108.308 92.2951 105.789L92.715 105.999C78.6485 115.131 66.4716 123.004 57.7588 128.568C53.4548 131.297 49.9907 133.502 47.5763 135.076C46.4216 135.811 45.4769 136.336 44.847 136.756C44.5321 136.966 44.3221 137.071 44.1122 137.176C44.0072 137.386 43.9022 137.386 43.9022 137.386Z" fill="#263238"/>
<path d="M174.595 66.1085C174.49 66.1085 174.49 65.2687 174.385 63.9041C174.385 62.5394 174.28 60.6499 174.28 58.6554L174.595 58.9703C174.385 58.9703 174.175 58.9703 173.965 58.9703C171.76 58.9703 169.661 58.9703 168.191 58.8653C166.722 58.8653 165.777 58.7603 165.777 58.6554C165.777 58.5504 166.722 58.5504 168.191 58.4454C169.661 58.4454 171.655 58.3405 173.965 58.3405C174.175 58.3405 174.385 58.3405 174.595 58.3405H174.909V58.6554C174.909 60.7548 174.909 62.6444 174.804 63.9041C174.7 65.2687 174.595 66.1085 174.595 66.1085Z" fill="#263238"/>
<path d="M81.9026 192.392C81.9026 192.497 76.444 192.707 69.8306 192.707C63.1123 192.707 57.7587 192.602 57.7587 192.392C57.7587 192.287 63.2173 192.077 69.8306 192.077C76.444 192.077 81.9026 192.182 81.9026 192.392Z" fill="#263238"/>
<path d="M69.5159 200.685C69.4109 200.685 69.2009 199.425 69.2009 197.851C69.2009 196.276 69.3059 195.016 69.5159 195.016C69.6208 195.016 69.8308 196.276 69.8308 197.851C69.7258 199.425 69.6208 200.685 69.5159 200.685Z" fill="#263238"/>
<path d="M99.1184 203.519C99.1184 203.624 84.527 203.834 66.5765 203.834C48.626 203.834 34.0347 203.729 34.0347 203.519C34.0347 203.414 48.626 203.204 66.5765 203.204C84.632 203.204 99.1184 203.309 99.1184 203.519Z" fill="#263238"/>
<path d="M34.5595 211.602C34.4546 211.602 34.2446 209.818 34.2446 207.718C34.2446 205.514 34.3496 203.834 34.5595 203.834C34.7695 203.834 34.8745 205.619 34.8745 207.718C34.8745 209.818 34.7695 211.602 34.5595 211.602Z" fill="#263238"/>
<path d="M57.6538 210.658C57.5488 210.658 57.3389 209.188 57.3389 207.298C57.3389 205.409 57.4438 203.939 57.6538 203.939C57.7587 203.939 57.9687 205.409 57.9687 207.298C57.9687 209.188 57.8637 210.658 57.6538 210.658Z" fill="#263238"/>
<path d="M81.4828 211.077C81.3778 211.077 81.1678 209.398 81.1678 207.403C81.1678 205.304 81.2728 203.729 81.4828 203.729C81.5878 203.729 81.7977 205.409 81.7977 207.403C81.6927 209.503 81.5878 211.077 81.4828 211.077Z" fill="#263238"/>
<path d="M99.5383 211.077C99.4333 211.077 99.2234 209.398 99.2234 207.298C99.2234 205.199 99.3283 203.519 99.5383 203.519C99.7482 203.519 99.8532 205.199 99.8532 207.298C99.8532 209.398 99.7482 211.077 99.5383 211.077Z" fill="#263238"/>
<path d="M42.6425 213.702C42.6425 213.807 39.1784 214.017 34.7695 214.017C30.4656 214.017 26.8965 213.912 26.8965 213.702C26.8965 213.597 30.3606 213.387 34.7695 213.387C39.0734 213.492 42.6425 213.597 42.6425 213.702Z" fill="#263238"/>
<path d="M62.6926 213.702C62.6926 213.807 59.9633 214.017 56.7091 214.017C53.3499 214.017 50.7256 213.912 50.7256 213.702C50.7256 213.597 53.4549 213.387 56.7091 213.387C60.0683 213.492 62.6926 213.597 62.6926 213.702Z" fill="#263238"/>
<path d="M88.2012 214.437C88.2012 214.541 85.3669 214.751 81.7978 214.751C78.2287 214.751 75.3944 214.646 75.3944 214.437C75.3944 214.227 78.2287 214.122 81.7978 214.122C85.3669 214.122 88.2012 214.227 88.2012 214.437Z" fill="#263238"/>
<path d="M108.986 213.282C108.986 213.387 105.942 213.597 102.163 213.597C98.3836 213.597 95.3394 213.492 95.3394 213.282C95.3394 213.177 98.3836 212.967 102.163 212.967C105.837 213.072 108.986 213.177 108.986 213.282Z" fill="#263238"/>
<path d="M34.7695 221.365C34.6646 221.365 34.4546 220.315 34.4546 219.055C34.4546 217.796 34.5596 216.746 34.7695 216.746C34.9795 216.746 35.0844 217.796 35.0844 219.055C35.0844 220.315 34.9795 221.365 34.7695 221.365Z" fill="#263238"/>
<path d="M49.6758 221.365C49.6758 221.47 43.3774 221.68 35.5043 221.68C27.6313 221.68 21.3329 221.575 21.3329 221.365C21.3329 221.26 27.6313 221.05 35.5043 221.05C43.3774 221.05 49.6758 221.26 49.6758 221.365Z" fill="#263238"/>
<path d="M49.6757 227.873C49.5708 227.873 49.3608 226.403 49.3608 224.619C49.3608 222.834 49.4658 221.365 49.6757 221.365C49.8857 221.365 49.9907 222.834 49.9907 224.619C49.9907 226.403 49.8857 227.873 49.6757 227.873Z" fill="#263238"/>
<path d="M21.3329 228.398C21.2279 228.398 21.0179 226.823 21.0179 224.934C21.0179 223.044 21.1229 221.47 21.3329 221.47C21.5428 221.47 21.6478 223.044 21.6478 224.934C21.6478 226.823 21.5428 228.398 21.3329 228.398Z" fill="#263238"/>
<path d="M82.0077 221.365C81.9027 221.365 81.6927 220.315 81.6927 219.055C81.6927 217.796 81.7977 216.746 82.0077 216.746C82.1127 216.746 82.3226 217.796 82.3226 219.055C82.3226 220.315 82.2176 221.365 82.0077 221.365Z" fill="#263238"/>
<path d="M116.544 221.365C116.544 221.47 105.837 221.68 92.6101 221.68C79.3834 221.68 68.676 221.575 68.676 221.365C68.676 221.26 79.3834 221.05 92.6101 221.05C105.837 221.05 116.544 221.26 116.544 221.365Z" fill="#263238"/>
<path d="M97.0189 227.873C96.9139 227.873 96.704 226.403 96.704 224.619C96.704 222.834 96.8089 221.365 97.0189 221.365C97.1239 221.365 97.3338 222.834 97.3338 224.619C97.2289 226.403 97.1239 227.873 97.0189 227.873Z" fill="#263238"/>
<path d="M117.489 227.873C117.384 227.873 117.174 226.403 117.174 224.619C117.174 222.834 117.279 221.365 117.489 221.365C117.699 221.365 117.804 222.834 117.804 224.619C117.804 226.403 117.699 227.873 117.489 227.873Z" fill="#263238"/>
<path d="M68.571 228.398C68.466 228.398 68.2561 226.823 68.2561 224.934C68.2561 223.044 68.3611 221.47 68.571 221.47C68.676 221.47 68.886 223.044 68.886 224.934C68.886 226.823 68.781 228.398 68.571 228.398Z" fill="#263238"/>
<path d="M27.0015 232.387C27.0015 232.492 24.4821 232.702 21.4379 232.702C18.3936 232.702 15.8743 232.597 15.8743 232.387C15.8743 232.282 18.3936 232.072 21.4379 232.072C24.4821 232.072 27.0015 232.177 27.0015 232.387Z" fill="#263238"/>
<path d="M54.7146 231.547C54.7146 231.652 51.9852 231.862 48.6261 231.862C45.2669 231.862 42.5376 231.757 42.5376 231.547C42.5376 231.337 45.2669 231.232 48.6261 231.232C51.9852 231.337 54.7146 231.442 54.7146 231.547Z" fill="#263238"/>
<path d="M74.7645 231.547C74.7645 231.652 72.3501 231.862 69.4108 231.862C66.4715 231.862 64.0571 231.757 64.0571 231.547C64.0571 231.337 66.4715 231.232 69.4108 231.232C72.455 231.337 74.7645 231.442 74.7645 231.547Z" fill="#263238"/>
<path d="M101.848 231.547C101.848 231.652 99.2233 231.862 96.0741 231.862C92.9249 231.862 90.3005 231.757 90.3005 231.547C90.3005 231.337 92.9249 231.232 96.0741 231.232C99.2233 231.337 101.848 231.442 101.848 231.547Z" fill="#263238"/>
<path d="M123.472 230.812C123.472 230.917 120.848 231.127 117.594 231.127C114.34 231.127 111.715 231.022 111.715 230.812C111.715 230.708 114.34 230.498 117.594 230.498C120.848 230.603 123.472 230.708 123.472 230.812Z" fill="#263238"/>
<path d="M203.252 235.116H129.246V189.243H203.252V235.116ZM129.246 235.011H203.147V189.243H129.246V235.011Z" fill="#263238"/>
<path d="M185.407 222.415C180.263 220.42 174.385 225.879 169.346 223.674C166.407 222.415 165.042 219.055 163.677 216.221C162.208 213.387 159.793 210.343 156.644 210.657C153.39 210.972 150.87 214.751 147.721 213.807C145.727 213.282 144.782 211.077 144.257 209.083C143.732 207.088 143.417 204.884 141.948 203.519C140.478 202.155 137.329 202.47 137.119 204.569V228.818H194.959C194.959 228.818 187.086 223.044 185.407 222.415Z" fill="#EA6216"/>
<path d="M196.534 228.818C196.534 228.818 182.468 228.923 165.252 228.923C147.931 228.923 133.97 228.923 133.97 228.818C133.97 228.818 148.036 228.713 165.252 228.713C182.468 228.818 196.534 228.818 196.534 228.818Z" fill="#E0E0E0"/>
<path d="M196.534 218.216C196.534 218.216 182.468 218.321 165.252 218.321C147.931 218.321 133.97 218.321 133.97 218.216C133.97 218.111 148.036 218.111 165.252 218.111C182.468 218.216 196.534 218.216 196.534 218.216Z" fill="#263238"/>
<path d="M196.534 207.613C196.534 207.613 182.468 207.718 165.252 207.718C147.931 207.718 133.97 207.718 133.97 207.613C133.97 207.508 148.036 207.508 165.252 207.508C182.468 207.613 196.534 207.613 196.534 207.613Z" fill="#263238"/>
<path d="M196.534 197.536C196.534 197.536 182.468 197.641 165.252 197.641C147.931 197.641 133.97 197.641 133.97 197.536C133.97 197.431 148.036 197.431 165.252 197.431C182.468 197.536 196.534 197.536 196.534 197.536Z" fill="#263238"/>
<path d="M29.8357 50.5724C30.0457 50.5724 30.1506 50.5724 30.2556 50.5724C30.5705 50.5724 30.8855 50.5724 31.4103 50.6774C31.9352 50.7823 32.4601 50.8873 33.1949 51.3072C33.8247 51.6221 34.4546 52.147 35.0844 52.8818C35.6093 53.6166 36.1342 54.5614 36.3441 55.6111C36.5541 56.6609 36.3441 57.9205 35.9242 59.0753C35.7143 59.6001 35.3993 60.23 35.0844 60.7548C34.7695 61.2797 34.4546 61.8046 34.1396 62.4344C33.6148 63.5891 33.0899 64.9538 32.88 66.3184V66.4234H32.775C31.9352 66.4234 30.9904 66.4234 30.0457 66.3184C29.1009 66.3184 28.0512 66.3184 27.2114 66.2135H27.1064V66.1085C27.1064 64.7438 26.5815 63.3792 25.9517 62.2245C25.6368 61.5946 25.3219 61.0698 25.0069 60.5449C24.692 60.02 24.3771 59.4952 24.0622 58.8653C23.5373 57.7106 23.5373 56.5559 23.7473 55.5061C23.9572 54.4564 24.3771 53.5116 24.902 52.7768C25.4268 52.042 26.1616 51.5171 26.7915 51.2022C27.4213 50.8873 28.0512 50.6774 28.4711 50.5724C28.9959 50.4674 29.3109 50.4674 29.6258 50.4674C29.5208 50.4674 29.6258 50.4674 29.8357 50.5724C29.8357 50.5724 29.7307 50.5724 29.8357 50.5724C29.7307 50.5724 29.8357 50.5724 29.8357 50.5724C29.6258 50.5724 29.5208 50.5724 29.4158 50.5724C29.2059 50.5724 28.786 50.6774 28.2611 50.7823C27.7362 50.8873 27.2114 51.0973 26.5815 51.4122C25.9517 51.7271 25.3219 52.252 24.797 52.9868C24.2721 53.7216 23.8522 54.6664 23.6423 55.6111C23.4323 56.6609 23.4323 57.8156 23.9572 58.8653C24.1671 59.3902 24.587 59.915 24.902 60.4399C25.2169 60.9648 25.5318 61.4897 25.8467 62.1195C26.4766 63.2742 27.1064 64.6389 27.1064 66.1085L27.0014 66.0035C27.9462 66.0035 28.891 66.0035 29.8357 66.1085C30.7805 66.1085 31.7253 66.1085 32.565 66.2135L32.4601 66.3184C32.67 64.8488 33.1949 63.5891 33.7198 62.3294C34.0347 61.6996 34.3496 61.1747 34.6645 60.6499C34.9794 60.125 35.2943 59.6001 35.5043 58.9703C35.9242 57.8156 36.1342 56.6609 35.9242 55.6111C35.7143 54.5614 35.2944 53.6166 34.7695 52.9868C34.2446 52.252 33.6148 51.7271 32.9849 51.4122C32.3551 51.0973 31.7252 50.8873 31.3053 50.7823C30.7805 50.6774 30.4656 50.6774 30.1507 50.6774C30.0457 50.5724 29.9407 50.5724 29.8357 50.5724Z" fill="#263238"/>
<path d="M30.5705 66.0035C30.5705 65.8985 30.5705 65.7935 30.5705 65.6885C30.5705 65.4786 30.4656 65.1637 30.4656 64.7438C30.3606 63.904 30.2556 62.6443 30.1507 61.0697C30.1507 60.6498 30.1507 60.2299 30.1507 59.81C30.1507 59.3901 30.1507 58.9702 30.1507 58.4454C30.1507 58.0255 30.2556 57.5006 30.5705 57.0807C30.7805 56.6608 31.2004 56.2409 31.6203 56.031C32.1451 55.821 32.775 55.926 33.0899 56.3459C33.2999 56.5558 33.4048 56.8707 33.4048 57.0807C33.4048 57.3956 33.2999 57.6056 33.0899 57.8155C32.88 58.0255 32.67 58.2354 32.3551 58.3404C32.0402 58.4454 31.8302 58.5503 31.5153 58.5503C30.9904 58.6553 30.3606 58.6553 29.7307 58.6553C29.1009 58.6553 28.576 58.6553 27.9462 58.5503C27.6313 58.4454 27.4213 58.4454 27.1064 58.2354C26.8965 58.1304 26.5815 57.9205 26.4766 57.7105C26.2666 57.5006 26.1616 57.1857 26.0567 56.9757C25.9517 56.6608 26.0567 56.4509 26.1616 56.1359C26.2666 55.926 26.4766 55.716 26.7915 55.6111C27.0014 55.5061 27.3164 55.5061 27.6313 55.716C27.8412 55.821 28.0512 56.031 28.1561 56.2409C28.2611 56.4509 28.3661 56.6608 28.4711 56.9757C28.576 57.5006 28.576 57.9205 28.576 58.4454C28.576 59.3901 28.576 60.2299 28.576 60.9647C28.576 62.5393 28.576 63.799 28.576 64.6388C28.576 65.0587 28.576 65.3736 28.576 65.6885C28.576 65.7935 28.576 65.8985 28.576 65.8985C28.576 66.0035 28.576 66.0035 28.576 66.0035C28.576 66.0035 28.576 66.0035 28.576 65.8985C28.576 65.7935 28.576 65.7935 28.576 65.6885C28.576 65.4786 28.576 65.1637 28.576 64.6388C28.576 63.799 28.576 62.5393 28.4711 60.9647C28.4711 60.2299 28.4711 59.2851 28.4711 58.4454C28.4711 58.0255 28.4711 57.5006 28.3661 57.0807C28.3661 56.8707 28.2611 56.6608 28.1561 56.4509C28.0512 56.2409 27.8412 56.031 27.6313 55.926C27.4213 55.821 27.1064 55.821 26.8965 55.821C26.6865 55.926 26.4766 56.1359 26.3716 56.3459C26.2666 56.5558 26.1616 56.8707 26.2666 57.0807C26.2666 57.3956 26.4766 57.6056 26.5815 57.8155C26.8965 58.2354 27.5263 58.4454 28.0512 58.5503C28.576 58.6553 29.2059 58.6553 29.8357 58.6553C30.4656 58.6553 30.9904 58.6553 31.6203 58.5503C31.9352 58.5503 32.1451 58.4454 32.4601 58.3404C32.67 58.2354 32.9849 58.0255 33.0899 57.8155C33.2999 57.6056 33.4048 57.3956 33.4048 57.0807C33.4048 56.7658 33.2999 56.5558 33.0899 56.3459C32.775 55.926 32.1452 55.821 31.7253 56.031C31.2004 56.2409 30.8855 56.5558 30.6755 56.9757C30.4656 57.3956 30.3606 57.9205 30.3606 58.3404C30.3606 58.7603 30.3606 59.2851 30.3606 59.705C30.3606 60.1249 30.3606 60.5448 30.3606 60.9647C30.4656 62.5393 30.5705 63.799 30.5705 64.6388C30.5705 65.0587 30.6755 65.3736 30.6755 65.6885C30.5705 65.7935 30.5705 65.8985 30.5705 66.0035Z" fill="#263238"/>
<path d="M27.0014 66.0035C27.0014 66.0035 27.0014 66.3185 27.0014 66.9483C27.0014 67.5781 27.0014 68.4179 27.0014 69.3627V69.2577C27.5263 69.8876 28.1562 70.6224 28.786 71.4622H28.681C29.3109 71.4622 30.0457 71.4622 30.8855 71.4622H30.7805C31.0954 71.0423 31.5153 70.6224 31.9352 70.2025C32.1452 69.9925 32.3551 69.7826 32.4601 69.5726V69.6776C32.4601 68.4179 32.4601 67.1582 32.5651 66.1085L32.67 66.2135C31.0954 66.2135 29.7308 66.1085 28.681 66.1085C28.2611 66.1085 27.8412 66.1085 27.5263 66.1085C27.1064 66.0035 27.0014 66.0035 27.0014 66.0035C27.0014 66.0035 27.1064 66.0035 27.4214 66.0035C27.7363 66.0035 28.1562 66.0035 28.5761 66.0035C29.7308 66.0035 31.0954 66.0035 32.67 66.0035H32.775V66.1085C32.775 67.1582 32.775 68.4179 32.775 69.6776C32.5651 69.8876 32.3551 70.0975 32.2502 70.3075C31.8303 70.7274 31.5153 71.1472 31.0954 71.5671H30.9905C30.2556 71.5671 29.5208 71.5671 28.786 71.5671H28.681C28.0512 70.7274 27.4214 69.9925 26.8965 69.2577C26.8965 68.313 27.0014 67.4732 27.0014 66.8433C26.8965 66.3185 26.8965 66.0035 27.0014 66.0035Z" fill="#263238"/>
<path d="M32.355 69.3627C32.355 69.3627 32.25 69.3627 32.1451 69.2577C32.0401 69.1528 31.8301 69.1528 31.6202 69.0478C31.0953 68.8378 30.4655 68.6279 29.7307 68.6279C28.9959 68.6279 28.261 68.8378 27.7362 68.9428C27.5262 69.0478 27.3163 69.1528 27.2113 69.1528C27.1063 69.2577 27.0013 69.2577 27.0013 69.2577C27.0013 69.2577 27.1063 69.2577 27.2113 69.1528C27.3163 69.0478 27.5262 68.9428 27.7362 68.9428C28.261 68.7329 28.8909 68.5229 29.7307 68.6279C30.5705 68.6279 31.2003 68.8378 31.7252 69.0478C31.9351 69.1528 32.1451 69.2577 32.25 69.3627C32.355 69.2577 32.355 69.3627 32.355 69.3627Z" fill="#263238"/>
<path d="M32.4601 68.5229C32.4601 68.5229 32.3551 68.5229 32.2502 68.4179C32.1452 68.3129 31.9352 68.3129 31.7253 68.2079C31.3054 67.998 30.5706 67.7881 29.8358 67.7881C29.1009 67.7881 28.3661 67.998 27.8413 68.103C27.6313 68.208 27.4214 68.3129 27.3164 68.3129C27.2114 68.4179 27.1064 68.4179 27.1064 68.4179C27.1064 68.4179 27.2114 68.4179 27.3164 68.3129C27.4214 68.2079 27.6313 68.103 27.8413 68.103C28.3661 67.893 28.996 67.6831 29.8358 67.7881C30.6755 67.7881 31.3054 67.998 31.8302 68.2079C32.0402 68.3129 32.2501 68.4179 32.3551 68.5229C32.3551 68.4179 32.4601 68.5229 32.4601 68.5229Z" fill="#263238"/>
<path d="M32.4601 67.683C32.4601 67.683 32.3551 67.683 32.2502 67.5781C32.1452 67.4731 31.9352 67.4731 31.7253 67.3681C31.2004 67.1582 30.5706 66.9482 29.8358 66.9482C29.1009 66.9482 28.3661 67.1582 27.8413 67.2631C27.6313 67.3681 27.4214 67.4731 27.3164 67.4731C27.2114 67.5781 27.1064 67.5781 27.1064 67.5781C27.1064 67.5781 27.2114 67.5781 27.3164 67.4731C27.4214 67.3681 27.6313 67.2631 27.8413 67.2631C28.3661 67.0532 28.996 66.8432 29.8358 66.9482C30.6755 66.9482 31.3054 67.1582 31.8302 67.3681C32.0402 67.4731 32.2501 67.5781 32.3551 67.683C32.3551 67.5781 32.4601 67.683 32.4601 67.683Z" fill="#263238"/>
<path d="M52.51 90.2524C52.51 90.2524 50.4106 109.568 53.1399 120.17L78.9634 119.015C78.9634 119.015 73.3998 99.91 76.864 91.4072L52.51 90.2524Z" fill="#EBEBEB"/>
<path d="M52.6151 89.6227C52.6151 89.6227 52.825 110.512 53.8748 116.916L80.1182 115.656C80.1182 115.656 77.8088 95.0813 78.6486 89.6227H52.6151Z" fill="#EA6216"/>
<path d="M74.6595 98.4404C74.6595 98.5454 70.7755 98.8603 65.8417 99.1752C61.013 99.4901 57.0239 99.5951 57.0239 99.4901C57.0239 99.3852 60.908 99.0702 65.8417 98.7553C70.6705 98.5454 74.6595 98.3354 74.6595 98.4404Z" fill="white"/>
<path d="M74.6595 102.849C74.6595 102.954 70.7755 103.269 65.8417 103.584C61.013 103.899 57.0239 104.004 57.0239 103.899C57.0239 103.794 60.908 103.479 65.8417 103.164C70.6705 102.954 74.6595 102.744 74.6595 102.849Z" fill="white"/>
<path d="M70.2507 107.258C70.2507 107.258 69.7258 107.363 68.7811 107.468C67.8363 107.573 66.5766 107.678 65.212 107.783C63.8473 107.888 62.5876 107.888 61.6429 107.993C60.6981 107.993 60.1732 107.993 60.1732 107.993C60.1732 107.993 60.6981 107.888 61.6429 107.783C62.5876 107.678 63.8473 107.573 65.212 107.468C66.5766 107.363 67.8363 107.363 68.7811 107.258C69.6209 107.153 70.2507 107.153 70.2507 107.258Z" fill="white"/>
<path d="M112.345 55.7162C112.345 55.8211 97.0189 56.0311 78.1237 56.0311C59.2284 56.0311 43.9022 55.9261 43.9022 55.7162C43.9022 55.6112 59.2284 55.4012 78.1237 55.4012C97.0189 55.4012 112.345 55.5062 112.345 55.7162Z" fill="#263238"/>
<path d="M68.9909 61.9097C68.9909 62.0146 63.2174 62.2246 56.1841 62.2246C49.0459 62.2246 43.3773 62.1196 43.3773 61.9097C43.3773 61.8047 49.1509 61.5947 56.1841 61.5947C63.2174 61.6997 68.9909 61.8047 68.9909 61.9097Z" fill="#263238"/>
<path d="M82.6376 61.9097C82.6376 62.0146 80.4331 62.2246 77.7038 62.2246C74.9745 62.2246 72.77 62.1196 72.77 61.9097C72.77 61.8047 74.9745 61.5947 77.7038 61.5947C80.4331 61.6997 82.6376 61.8047 82.6376 61.9097Z" fill="#263238"/>
<path d="M225.822 127.833C225.822 127.833 225.822 127.728 225.822 127.623C225.822 127.413 225.822 127.203 225.717 126.888C225.717 126.259 225.612 125.314 225.507 124.159C225.297 121.745 225.087 118.386 224.877 114.187C224.352 105.789 223.617 94.1366 222.882 81.3298C222.148 68.523 221.518 56.9759 220.993 48.473C220.783 44.2741 220.573 40.9149 220.468 38.5005C220.468 37.3458 220.363 36.506 220.363 35.7712C220.363 35.4563 220.363 35.2463 220.363 35.0364C220.363 34.8264 220.363 34.8264 220.363 34.8264C220.363 34.8264 220.363 34.9314 220.363 35.0364C220.363 35.2463 220.363 35.4563 220.468 35.7712C220.468 36.401 220.573 37.3458 220.678 38.5005C220.888 40.9149 221.098 44.2741 221.308 48.473C221.833 56.8709 222.568 68.523 223.302 81.3298C224.037 94.1366 224.667 105.684 225.192 114.187C225.402 118.386 225.612 121.745 225.717 124.159C225.717 125.314 225.822 126.154 225.822 126.888C225.822 127.203 225.822 127.413 225.822 127.623C225.822 127.728 225.822 127.833 225.822 127.833Z" fill="#263238"/>
<path d="M220.363 11.2074C220.363 11.2074 220.153 11.2074 219.733 11.2074C219.313 11.2074 218.683 11.2074 217.949 11.2074C216.374 11.2074 214.065 11.2074 211.125 11.2074C205.142 11.2074 196.534 11.2074 185.827 11.2074C164.517 11.2074 135.019 11.1024 102.478 11.1024C68.2561 10.9974 37.4987 10.8924 16.1891 10.7875C11.4653 11.9422 7.68621 14.6715 5.27181 17.6108C2.75244 20.55 1.59772 23.8042 0.967878 26.4285C0.44301 29.0529 0.443016 31.1524 0.54799 32.622C0.652964 33.3568 0.65296 33.8817 0.757934 34.1966C0.862908 34.5115 0.862914 34.7215 0.862914 34.7215C0.862914 34.7215 0.652964 33.9867 0.54799 32.622C0.443016 31.2573 0.338046 29.0529 0.862914 26.4285C1.38778 23.8042 2.64747 20.55 5.06186 17.5058C7.58123 14.4615 11.3603 11.7322 16.1891 10.4725C37.4987 10.4725 68.2561 10.5775 102.478 10.5775C135.019 10.6825 164.412 10.7875 185.827 10.8924C196.429 10.9974 205.142 10.9974 211.125 10.9974C214.065 10.9974 216.374 10.9974 217.949 11.1024C218.683 11.1024 219.313 11.1024 219.733 11.1024C220.153 11.2074 220.363 11.2074 220.363 11.2074Z" fill="#263238"/>
<path d="M388.951 340.405C402.807 326.234 424.537 320.25 443.747 325.394C427.056 336.521 408.371 342.61 388.321 342.715" fill="#EA6216"/>
<path d="M407.531 274.587C405.222 258.421 411.52 240.26 423.592 228.503C424.012 244.459 417.189 262.515 407.531 274.587Z" fill="#EA6216"/>
<path d="M397.874 305.029C406.482 288.548 420.653 275.007 437.449 267.134C432.41 285.714 416.454 300.935 397.664 305.134" fill="#EA6216"/>
<path d="M395.879 310.908C405.642 311.223 415.509 310.803 424.957 308.388C434.405 305.869 443.432 301.04 449.731 293.587C430.73 293.587 411.835 299.36 396.089 309.963" fill="#EA6216"/>
<path d="M400.813 291.592C395.879 273.012 387.691 260.205 373.1 249.813C371.945 258.841 374.255 268.288 379.293 275.846C384.227 283.3 391.995 289.073 400.813 291.592Z" fill="#EA6216"/>
<path d="M363.967 323.609C363.757 312.797 370.685 302.195 380.658 298.206C379.818 307.653 372.26 318.781 363.967 323.609Z" fill="#EA6216"/>
<path d="M359.243 307.968C358.089 292.432 347.066 278.156 332.37 273.012C335.834 288.548 344.757 301.46 359.243 307.968Z" fill="#EA6216"/>
<path d="M366.277 335.681C362.812 330.748 357.249 327.703 351.37 326.129C345.492 324.554 339.508 324.449 333.525 324.344C341.608 333.267 353.785 338.306 365.857 337.781" fill="#EA6216"/>
<path d="M373.31 375.257C362.497 371.897 350.426 372.737 340.138 377.671C329.851 382.605 321.558 391.318 317.359 401.815C337.619 397.931 357.669 388.903 373.31 375.257Z" fill="#EA6216"/>
<path d="M395.564 361.505C392.205 371.477 392.835 383.549 400.393 392.157C403.437 381.87 401.653 370.323 395.564 361.505Z" fill="#EA6216"/>
<path d="M408.791 355.941C409.736 368.748 417.924 380.82 429.576 386.384C430.101 386.699 430.835 386.909 431.36 386.699C432.305 386.279 432.41 385.124 432.2 384.074C430.73 371.372 421.283 358.986 408.791 355.941Z" fill="#EA6216"/>
<path d="M417.399 354.682C423.067 360.875 431.465 364.549 439.863 364.549C448.261 364.549 456.659 360.98 462.433 354.892C448.051 353.317 431.57 352.267 417.399 354.682Z" fill="#EA6216"/>
<path d="M419.498 240.365C419.498 240.365 419.498 240.47 419.393 240.785C419.288 241.1 419.183 241.52 418.973 242.045C418.554 243.094 418.029 244.669 417.294 246.664C416.559 248.658 415.614 251.177 414.565 254.012C414.04 255.481 413.515 256.951 412.885 258.631C412.36 260.31 411.73 261.99 411.1 263.774C408.581 271.018 405.747 279.73 402.703 289.388C399.763 299.046 396.614 309.753 393.465 321.09C390.421 332.427 387.691 343.239 385.487 353.107C383.282 362.975 381.393 371.897 379.923 379.455C379.608 381.345 379.188 383.129 378.874 384.809C378.559 386.489 378.349 388.168 378.034 389.638C377.509 392.682 377.089 395.201 376.774 397.301C376.459 399.4 376.249 401.08 376.039 402.235C375.934 402.76 375.829 403.179 375.829 403.494C375.829 403.809 375.724 403.914 375.724 403.914C375.724 403.914 375.724 403.809 375.724 403.494C375.724 403.179 375.829 402.76 375.829 402.235C375.934 401.08 376.249 399.4 376.459 397.301C376.774 395.201 377.089 392.577 377.614 389.533C377.824 388.063 378.139 386.384 378.349 384.704C378.664 383.024 378.978 381.24 379.293 379.35C380.658 371.792 382.548 362.87 384.752 352.897C387.061 343.03 389.686 332.217 392.73 320.88C395.774 309.543 398.924 298.836 401.968 289.178C405.012 279.52 407.846 270.808 410.471 263.564C411.1 261.78 411.73 259.995 412.255 258.421C412.885 256.846 413.41 255.271 413.935 253.802C414.984 250.968 415.929 248.448 416.664 246.454C417.399 244.459 418.029 242.885 418.449 241.835C418.659 241.31 418.763 240.89 418.973 240.68C419.498 240.47 419.498 240.365 419.498 240.365Z" fill="#D9D9D9"/>
<path d="M340.978 281.305C340.978 281.305 341.083 281.41 341.188 281.515C341.398 281.725 341.608 281.935 341.923 282.25C342.552 282.88 343.392 283.824 344.442 285.084C346.646 287.603 349.691 291.277 352.84 296.316C356.094 301.25 359.348 307.653 361.658 315.106C363.967 322.56 365.437 331.167 366.906 339.985C369.846 357.831 373.415 373.787 375.934 385.334C377.194 391.107 378.244 395.726 378.978 398.981C379.293 400.555 379.608 401.815 379.818 402.655C379.923 403.074 379.923 403.389 380.028 403.599C380.028 403.809 380.133 403.914 380.028 403.914C380.028 403.914 380.028 403.809 379.923 403.599C379.818 403.389 379.818 403.074 379.713 402.655C379.503 401.815 379.188 400.555 378.768 398.981C378.034 395.726 376.879 391.107 375.514 385.334C372.785 373.787 369.216 357.831 366.277 339.985C364.807 331.062 363.337 322.56 361.028 315.106C358.823 307.653 355.569 301.355 352.42 296.316C349.271 291.277 346.227 287.603 344.127 284.979C343.077 283.719 342.238 282.775 341.713 282.04C341.398 281.725 341.188 281.515 341.083 281.305C341.083 281.41 340.978 281.305 340.978 281.305Z" fill="#D9D9D9"/>
<path d="M421.703 354.052C421.703 354.052 421.493 354.052 421.178 354.157C420.758 354.157 420.338 354.262 419.708 354.367C419.393 354.367 418.973 354.472 418.658 354.472C418.238 354.577 417.819 354.577 417.399 354.682C416.454 354.787 415.404 354.996 414.354 355.206C413.83 355.311 413.2 355.416 412.57 355.521C411.94 355.626 411.31 355.836 410.68 356.046C409.316 356.361 407.951 356.781 406.481 357.306C403.647 358.356 400.498 359.615 397.454 361.295C394.409 362.975 391.68 364.969 389.371 366.964C388.216 368.013 387.166 368.958 386.222 369.903C385.277 370.848 384.437 371.897 383.807 372.737C383.072 373.577 382.547 374.522 382.023 375.256C381.498 375.991 381.078 376.726 380.763 377.251C380.448 377.776 380.238 378.196 380.028 378.511C379.818 378.826 379.713 378.931 379.713 378.931C379.713 378.931 379.713 378.721 379.923 378.406C380.133 378.091 380.343 377.566 380.553 377.041C380.868 376.411 381.183 375.781 381.708 374.942C382.232 374.207 382.757 373.262 383.492 372.317C384.227 371.372 384.962 370.428 385.907 369.378C386.851 368.328 387.901 367.383 389.056 366.334C391.365 364.339 394.095 362.345 397.244 360.56C400.393 358.881 403.542 357.516 406.376 356.571C407.846 356.151 409.211 355.626 410.575 355.416C411.205 355.311 411.835 355.101 412.465 354.997C413.095 354.892 413.725 354.787 414.249 354.682C415.404 354.472 416.454 354.367 417.399 354.262C417.819 354.262 418.238 354.157 418.658 354.157C419.078 354.157 419.393 354.157 419.708 354.052C420.338 354.052 420.758 354.052 421.178 353.947C421.493 354.052 421.703 354.052 421.703 354.052Z" fill="#D9D9D9"/>
<path d="M425.692 281.62C425.692 281.62 425.377 282.04 424.642 282.565C423.907 283.194 422.857 284.139 421.703 285.084C419.183 287.183 415.719 290.123 411.835 293.377C407.951 296.631 404.487 299.465 401.863 301.565C400.603 302.51 399.658 303.349 398.818 303.979C398.084 304.504 397.664 304.819 397.664 304.819C397.664 304.819 397.979 304.399 398.713 303.874C399.448 303.244 400.498 302.3 401.653 301.355C404.172 299.255 407.636 296.316 411.52 293.062C415.404 289.913 418.868 286.973 421.493 284.874C422.752 283.929 423.697 283.089 424.537 282.46C425.272 281.935 425.692 281.62 425.692 281.62Z" fill="#D9D9D9"/>
<path d="M429.261 300.515C429.261 300.62 421.808 303.034 412.465 305.764C403.122 308.493 395.564 310.593 395.564 310.488C395.564 310.383 403.017 307.968 412.36 305.239C421.598 302.51 429.156 300.41 429.261 300.515Z" fill="#D9D9D9"/>
<path d="M401.548 292.957C401.548 292.957 401.233 292.642 400.813 291.907C400.288 291.068 399.658 290.123 398.818 288.863C397.139 286.344 394.724 282.88 391.89 279.206C389.056 275.531 386.326 272.277 384.332 269.968C383.387 268.918 382.547 267.973 381.918 267.239C381.393 266.609 381.078 266.189 381.078 266.189C381.078 266.189 381.498 266.504 382.023 267.029C382.652 267.658 383.492 268.498 384.542 269.653C386.641 271.857 389.371 275.112 392.205 278.786C395.039 282.46 397.349 286.029 398.923 288.653C399.763 289.913 400.393 291.068 400.708 291.802C401.338 292.537 401.548 292.957 401.548 292.957Z" fill="#D9D9D9"/>
<path d="M375.409 303.454C375.514 303.454 374.779 304.609 373.625 306.394C372.47 308.178 371 310.593 369.426 313.427C367.851 316.156 366.486 318.781 365.542 320.67C364.597 322.56 364.072 323.714 363.967 323.714C363.862 323.714 364.387 322.455 365.227 320.565C366.067 318.676 367.326 316.051 368.901 313.217C370.475 310.488 372.05 307.968 373.31 306.289C374.569 304.504 375.409 303.454 375.409 303.454Z" fill="#D9D9D9"/>
<path d="M366.487 336.206C366.487 336.311 365.017 335.576 362.707 334.527C360.398 333.477 357.039 332.112 353.365 330.748C349.691 329.488 346.227 328.543 343.707 327.808C341.188 327.178 339.613 326.864 339.718 326.759C339.718 326.759 340.138 326.759 340.873 326.863C341.608 326.968 342.657 327.178 343.917 327.388C346.437 327.913 349.901 328.858 353.575 330.118C357.249 331.377 360.608 332.847 362.917 334.002C364.072 334.527 365.017 335.051 365.647 335.471C366.172 335.996 366.591 336.206 366.487 336.206Z" fill="#D9D9D9"/>
<path d="M373.52 375.362C373.52 375.362 373.415 375.466 373.1 375.466C372.68 375.571 372.26 375.676 371.735 375.781C370.475 376.096 368.796 376.411 366.696 376.936C362.497 377.881 356.619 379.141 350.425 381.24C344.232 383.34 338.878 386.069 335.204 388.378C333.42 389.533 331.95 390.583 331.005 391.318C330.061 392.052 329.536 392.472 329.536 392.472C329.536 392.472 329.641 392.367 329.851 392.157C330.061 391.947 330.375 391.632 330.9 391.213C331.845 390.373 333.21 389.323 334.994 388.168C338.563 385.754 343.917 382.92 350.215 380.82C356.514 378.721 362.392 377.566 366.591 376.621C368.691 376.201 370.37 375.886 371.63 375.676C372.89 375.361 373.52 375.257 373.52 375.362Z" fill="#D9D9D9"/>
<path d="M398.923 384.914C398.818 384.914 397.874 379.665 396.929 373.157C395.984 366.649 395.354 361.295 395.459 361.295C395.564 361.295 396.509 366.544 397.454 373.052C398.398 379.665 399.133 384.914 398.923 384.914Z" fill="#D9D9D9"/>
<path d="M425.377 375.361C425.272 375.361 424.432 374.312 422.962 372.527C421.493 370.743 419.603 368.328 417.294 365.599C415.089 362.975 412.99 360.56 411.52 358.881C410.051 357.201 409.106 356.151 409.106 356.046C409.106 356.046 409.421 356.256 409.841 356.676C410.261 357.096 410.995 357.726 411.73 358.566C413.305 360.245 415.404 362.555 417.714 365.179C419.918 367.803 421.913 370.323 423.277 372.212C423.907 373.157 424.537 373.892 424.852 374.417C425.272 375.047 425.377 375.361 425.377 375.361Z" fill="#D9D9D9"/>
<path d="M355.464 399.925V412.942H358.718L370.266 449.578H396.089L407.321 413.257L411.625 412.942V399.925H355.464Z" fill="#D9D9D9"/>
<path d="M409.526 413.257C409.526 413.362 398.189 413.572 384.122 413.572C370.056 413.572 358.718 413.467 358.718 413.257C358.718 413.047 370.056 412.942 384.122 412.942C398.084 413.047 409.526 413.152 409.526 413.257Z" fill="#D9D9D9"/>
<path d="M428.001 329.278C428.001 329.278 427.371 329.488 426.321 329.698C425.167 330.013 423.592 330.328 421.808 330.748C418.029 331.692 412.78 333.162 407.111 335.052C401.443 336.941 396.404 338.936 392.835 340.51C391.155 341.245 389.686 341.875 388.531 342.4C387.481 342.82 386.956 343.03 386.956 343.03C386.956 343.03 387.481 342.715 388.426 342.19C389.371 341.665 390.84 341.035 392.625 340.195C396.194 338.516 401.233 336.416 406.901 334.527C412.57 332.637 417.819 331.272 421.703 330.433C423.592 330.013 425.167 329.698 426.217 329.488C427.371 329.383 428.001 329.278 428.001 329.278Z" fill="#D9D9D9"/>
<path d="M400.918 433.622C400.918 433.727 392.94 433.937 383.072 433.937C373.205 433.937 365.227 433.832 365.227 433.622C365.227 433.412 373.205 433.307 383.072 433.307C392.94 433.412 400.918 433.517 400.918 433.622Z" fill="#FAFAFA"/>
<path d="M401.968 430.683C401.968 430.788 393.465 430.998 383.072 430.998C372.68 430.998 364.177 430.893 364.177 430.683C364.177 430.473 372.68 430.368 383.072 430.368C393.465 430.368 401.968 430.473 401.968 430.683Z" fill="#FAFAFA"/>
<path d="M244.507 416.301L242.827 437.821C242.827 437.821 221.518 444.644 221.413 448.633L263.087 449.158L264.347 416.196L244.507 416.301Z" fill="#EA6216"/>
<path d="M255.634 435.616C256.474 435.826 256.999 436.666 256.894 437.506C256.684 438.345 255.844 438.975 255.004 438.765C254.164 438.555 253.43 437.506 253.745 436.771C253.955 435.931 255.109 435.301 255.844 435.721" fill="#EBEBEB"/>
<path d="M262.982 449.158L262.877 445.799L223.407 446.008C223.407 446.008 221.098 447.373 221.203 448.633L262.982 449.158Z" fill="#EBEBEB"/>
<path d="M242.093 437.611C242.093 437.821 243.142 437.926 244.192 438.45C245.242 439.08 245.767 439.92 245.977 439.815C246.187 439.815 245.872 438.555 244.612 437.821C243.247 437.191 242.093 437.401 242.093 437.611Z" fill="#263238"/>
<path d="M237.789 439.605C237.789 439.815 238.628 440.13 239.363 440.97C240.098 441.81 240.308 442.754 240.518 442.649C240.728 442.649 240.833 441.495 239.888 440.445C238.943 439.395 237.789 439.395 237.789 439.605Z" fill="#263238"/>
<path d="M235.479 444.854C235.689 444.854 235.899 443.909 235.374 442.754C234.849 441.6 233.905 441.285 233.8 441.39C233.695 441.6 234.324 442.124 234.744 443.069C235.164 444.014 235.269 444.854 235.479 444.854Z" fill="#263238"/>
<path d="M242.302 432.677C242.407 432.887 243.352 432.572 244.507 432.572C245.662 432.572 246.606 432.992 246.711 432.782C246.816 432.677 245.977 431.942 244.612 431.837C243.142 431.837 242.198 432.572 242.302 432.677Z" fill="#263238"/>
<path d="M242.093 428.373C242.093 428.478 242.932 428.583 244.192 428.268C244.822 428.163 245.557 427.953 246.397 427.533C246.816 427.323 247.131 427.113 247.551 426.903C247.761 426.798 247.971 426.693 248.181 426.379C248.391 426.169 248.496 425.644 248.286 425.329C248.076 425.014 247.656 424.909 247.341 424.909C247.026 424.909 246.816 425.014 246.607 425.014C246.187 425.119 245.767 425.329 245.347 425.539C244.612 425.959 243.877 426.379 243.457 426.903C242.513 427.848 242.198 428.583 242.303 428.688C242.408 428.793 242.827 428.058 243.772 427.323C244.297 426.903 244.822 426.588 245.557 426.169C245.977 425.959 246.292 425.854 246.711 425.749C247.131 425.644 247.551 425.644 247.656 425.749C247.656 425.854 247.656 425.854 247.656 425.959C247.551 426.064 247.341 426.169 247.236 426.379C246.921 426.588 246.502 426.798 246.187 427.008C245.452 427.428 244.822 427.638 244.192 427.848C242.932 428.163 242.093 428.268 242.093 428.373Z" fill="#263238"/>
<path d="M242.407 428.688C242.512 428.688 242.827 427.953 242.932 426.693C242.932 426.064 242.827 425.224 242.617 424.384C242.512 423.964 242.302 423.544 242.093 423.124C241.883 422.704 241.568 422.179 240.728 422.075C240.308 422.075 239.993 422.389 239.888 422.704C239.783 423.019 239.783 423.229 239.678 423.439C239.573 423.964 239.678 424.384 239.678 424.804C239.888 425.644 240.203 426.378 240.623 426.903C241.463 427.953 242.302 428.163 242.302 428.058C242.407 427.953 241.673 427.533 241.043 426.588C240.728 426.064 240.413 425.434 240.308 424.699C240.203 424.279 240.203 423.859 240.308 423.439C240.308 423.019 240.518 422.599 240.728 422.704C240.938 422.704 241.253 423.019 241.463 423.334C241.673 423.649 241.883 424.069 241.988 424.489C242.302 425.224 242.407 425.959 242.407 426.588C242.512 427.848 242.302 428.583 242.407 428.688Z" fill="#263238"/>
<path d="M334.574 412.732L339.403 437.926L348.956 456.716C349.691 458.081 349.061 459.76 347.591 460.285C346.856 460.6 345.912 460.6 345.177 460.075C340.558 457.241 323.657 446.638 323.447 444.854C323.132 442.649 316.624 418.61 316.624 418.61L334.574 412.732Z" fill="#EA6216"/>
<path d="M347.591 460.285L323.027 443.174L323.237 444.224C323.447 445.169 323.972 446.009 324.707 446.534C326.701 448.108 332.265 452.202 345.072 460.075C345.912 460.6 346.751 460.6 347.591 460.285Z" fill="#EBEBEB"/>
<path d="M326.491 435.721C327.226 436.036 327.646 436.876 327.331 437.611C327.016 438.346 326.177 438.765 325.442 438.451C324.707 438.136 324.182 437.086 324.497 436.351C324.812 435.616 325.967 435.196 326.596 435.616" fill="#EBEBEB"/>
<path d="M339.508 450.523C339.613 450.523 339.928 449.158 341.293 448.108C342.552 447.058 344.022 447.058 344.022 446.954C344.022 446.849 343.707 446.744 343.077 446.849C342.447 446.849 341.608 447.163 340.873 447.688C340.138 448.318 339.718 449.053 339.508 449.578C339.403 450.208 339.403 450.523 339.508 450.523Z" fill="#263238"/>
<path d="M342.028 453.567C342.132 453.672 342.762 452.622 344.022 451.992C345.177 451.362 346.436 451.362 346.436 451.152C346.436 451.047 345.177 450.732 343.812 451.467C342.342 452.202 341.923 453.462 342.028 453.567Z" fill="#263238"/>
<path d="M335.309 446.953C335.414 447.058 336.464 445.484 338.249 444.329C340.033 443.174 341.818 442.859 341.818 442.649C341.818 442.544 339.928 442.544 337.934 443.804C335.939 445.169 335.099 446.953 335.309 446.953Z" fill="#263238"/>
<path d="M333.21 439.395C333.315 439.5 334.574 438.66 336.359 438.241C338.144 437.716 339.718 437.926 339.718 437.716C339.718 437.611 338.144 437.191 336.254 437.716C334.259 438.136 333.105 439.29 333.21 439.395Z" fill="#263238"/>
<path d="M331.53 432.047C331.635 432.152 332.895 430.998 334.784 430.683C336.674 430.368 338.249 430.997 338.249 430.788C338.249 430.683 337.934 430.473 337.304 430.263C336.674 430.053 335.729 429.948 334.679 430.158C333.63 430.368 332.79 430.788 332.265 431.207C331.74 431.627 331.53 432.047 331.53 432.047Z" fill="#263238"/>
<path d="M334.469 429.318C334.469 429.318 334.469 429.003 334.26 428.373C334.05 427.743 333.735 426.903 333 426.063C332.58 425.644 332.265 425.119 331.425 424.909C331.005 424.804 330.585 425.014 330.27 425.434C330.061 425.854 330.061 426.273 330.166 426.693C330.585 428.268 332.265 429.528 334.05 429.318C335.939 429.108 337.304 427.743 337.724 426.273C337.829 425.854 337.829 425.434 337.514 425.014C337.199 424.594 336.674 424.594 336.359 424.699C335.624 425.014 335.309 425.539 334.889 425.959C334.155 426.798 333.84 427.638 333.63 428.268C333.42 428.898 333.42 429.213 333.42 429.213C333.525 429.213 333.84 427.848 335.204 426.168C335.519 425.749 335.939 425.329 336.464 425.119C336.674 425.014 336.989 425.119 337.094 425.329C337.199 425.539 337.199 425.854 337.199 426.168C336.884 427.428 335.519 428.688 333.945 428.793C332.37 428.898 330.9 427.848 330.585 426.588C330.48 426.273 330.48 425.959 330.69 425.749C330.795 425.539 331.005 425.434 331.32 425.434C331.845 425.539 332.265 425.959 332.685 426.378C334.155 427.953 334.364 429.423 334.469 429.318Z" fill="#263238"/>
<path d="M244.192 218.215C243.877 218.215 240.728 429.318 240.728 429.318L266.237 428.478L275.054 324.659L277.154 248.448L294.474 318.885L316.099 429.528L341.608 423.124L309.171 216.746L278.623 210.867L244.192 218.215Z" fill="#263238"/>
<path d="M299.618 87.7332C302.662 81.7497 303.607 70.8324 300.143 64.8489C296.679 58.8654 289.541 54.5615 282.927 52.567C281.773 52.2521 280.618 51.9371 279.463 52.357C278.414 52.7769 277.469 53.9317 277.889 55.0864C276.629 54.1416 275.264 53.1968 273.69 52.672C272.115 52.1471 270.331 52.2521 269.071 53.3018C267.811 54.3515 267.496 56.451 268.651 57.6057C266.866 56.7659 264.452 57.1858 262.982 58.4455C261.513 59.8102 260.883 62.1196 261.513 64.0091C262.143 65.7937 263.612 67.8932 264.872 69.3628C266.237 70.7275 266.342 72.0921 265.922 73.9816" fill="#263238"/>
<path d="M274.529 137.386C274.739 134.447 275.159 108.308 275.159 108.203C275.159 108.203 265.397 107.048 264.977 97.2859C264.767 92.667 265.187 83.0094 265.607 74.1917C266.027 64.849 273.69 57.3959 283.032 57.0809H283.977C294.055 57.3959 299.408 66.1087 298.883 76.1862L297.519 132.242" fill="#FFBE9D"/>
<path d="M275.159 108.203C275.159 108.203 281.248 108.413 287.651 104.109C287.651 104.109 284.712 110.198 275.054 109.568L275.159 108.203Z" fill="#EB996E"/>
<path d="M267.181 80.805C267.181 81.5398 267.811 82.1696 268.546 82.1696C269.281 82.1696 269.911 81.6448 269.911 80.91C269.911 80.1751 269.281 79.5453 268.546 79.5453C267.811 79.5453 267.181 80.0702 267.181 80.805Z" fill="#263238"/>
<path d="M267.811 79.0204C268.021 79.2304 268.966 78.3906 270.54 78.3906C272.01 78.2856 273.165 79.0204 273.27 78.9154C273.375 78.8105 273.165 78.4955 272.64 78.1806C272.115 77.8657 271.38 77.5508 270.436 77.5508C269.491 77.5508 268.756 77.9707 268.336 78.2856C267.916 78.6005 267.706 78.9154 267.811 79.0204Z" fill="#263238"/>
<path d="M282.088 81.0151C282.088 81.7499 282.717 82.3797 283.452 82.3797C284.187 82.3797 284.817 81.8548 284.817 81.12C284.817 80.3852 284.187 79.7554 283.452 79.7554C282.717 79.7554 282.088 80.2802 282.088 81.0151Z" fill="#263238"/>
<path d="M282.403 78.8106C282.613 79.0205 283.557 78.1807 285.132 78.1807C286.602 78.0758 287.756 78.8106 287.861 78.7056C287.966 78.6006 287.756 78.2857 287.231 77.9708C286.707 77.6559 285.972 77.3409 285.027 77.3409C284.082 77.3409 283.347 77.7608 282.927 78.0758C282.508 78.3907 282.403 78.7056 282.403 78.8106Z" fill="#263238"/>
<path d="M277.364 90.0427C277.364 89.9378 276.419 89.8328 274.949 89.7278C274.529 89.7278 274.215 89.6228 274.11 89.4129C274.005 89.098 274.11 88.6781 274.32 88.2582C274.634 87.3134 274.949 86.3687 275.369 85.3189C276.839 81.12 277.784 77.7608 277.679 77.6558C277.469 77.5509 276.209 80.91 274.739 85.109C274.425 86.1587 274.11 87.1035 273.795 88.0482C273.69 88.4681 273.48 88.993 273.69 89.5179C273.795 89.8328 274.11 90.0427 274.32 90.0427C274.529 90.1477 274.739 90.1477 274.949 90.1477C276.419 90.1477 277.364 90.0427 277.364 90.0427Z" fill="#263238"/>
<path d="M281.773 90.8826C281.563 90.8826 281.563 92.4572 280.198 93.7169C278.833 94.8716 277.154 94.7666 277.154 94.9765C277.154 95.0815 277.574 95.2915 278.309 95.2915C279.043 95.2915 280.093 95.0815 280.828 94.3467C281.668 93.6119 281.983 92.6671 281.983 92.0373C282.088 91.3025 281.878 90.8826 281.773 90.8826Z" fill="#263238"/>
<path d="M281.878 73.037C282.088 73.4569 283.557 73.2469 285.237 73.3519C287.021 73.4569 288.386 73.9818 288.596 73.5619C288.701 73.3519 288.386 73.037 287.861 72.6171C287.336 72.1972 286.391 71.8823 285.342 71.7773C284.292 71.6723 283.347 71.8823 282.717 72.1972C282.087 72.5121 281.773 72.827 281.878 73.037Z" fill="#263238"/>
<path d="M268.231 74.6115C268.546 74.9264 269.491 74.5065 270.75 74.5065C272.01 74.4015 273.06 74.6115 273.27 74.2965C273.375 74.0866 273.165 73.7717 272.745 73.4568C272.325 73.1418 271.485 72.9319 270.645 72.9319C269.806 73.0369 269.071 73.3518 268.651 73.6667C268.231 74.1916 268.126 74.5065 268.231 74.6115Z" fill="#263238"/>
<path d="M298.359 83.4294C298.568 83.3244 304.972 81.2249 304.972 87.8383C304.972 94.4516 298.359 93.0869 298.359 92.877C298.254 92.6671 298.359 83.4294 298.359 83.4294Z" fill="#FFBE9D"/>
<path d="M300.248 90.3576C300.248 90.3576 300.353 90.4625 300.563 90.5675C300.773 90.6725 301.088 90.6725 301.403 90.5675C302.137 90.3576 302.662 89.2029 302.767 88.0482C302.767 87.4183 302.662 86.8934 302.452 86.3686C302.242 85.8437 301.928 85.5288 301.613 85.5288C301.298 85.4238 300.983 85.6338 300.983 85.8437C300.878 86.0536 300.983 86.1586 300.878 86.1586C300.878 86.1586 300.773 86.0536 300.773 85.7387C300.773 85.6338 300.878 85.4238 300.983 85.3188C301.193 85.2139 301.403 85.1089 301.613 85.1089C302.138 85.1089 302.557 85.6338 302.767 86.1586C302.977 86.6835 303.187 87.3133 303.187 88.0482C303.187 89.4128 302.452 90.6725 301.508 90.8824C301.088 90.9874 300.668 90.8824 300.458 90.6725C300.248 90.5675 300.248 90.3576 300.248 90.3576Z" fill="#EB996E"/>
<path d="M261.408 61.8046C260.673 70.4124 271.17 73.9815 275.789 69.1528C277.889 66.9483 279.778 64.114 282.717 63.1692C284.712 62.5394 286.916 62.8543 288.701 63.7991C288.701 63.7991 288.701 63.7991 288.806 63.7991C291.535 65.1637 293.11 68.4179 293.53 71.4622C294.16 75.6611 293.425 79.4402 294.579 83.3242C294.789 83.8491 294.894 84.4789 295.419 84.7938C296.259 85.3187 297.414 84.8988 298.044 84.164C299.093 83.0093 299.513 81.3297 299.723 79.7551C300.248 76.186 300.248 72.5119 299.303 69.0478C298.359 65.5836 296.574 62.2245 293.95 59.8101C290.59 56.7658 285.972 55.2962 281.458 55.5062C276.944 55.7161 272.64 57.5007 269.071 60.335C267.496 61.5946 265.922 63.1692 265.187 65.1637" fill="#263238"/>
<path d="M268.441 57.0807C268.441 57.0807 268.126 56.9757 267.496 57.0807C266.866 57.1857 266.132 57.5006 265.292 58.3404C264.557 59.0752 263.822 60.2299 263.612 61.6996C263.402 63.1692 263.927 64.7438 264.872 66.1085C265.817 67.4731 267.181 68.4179 268.441 68.9427C269.701 69.4676 270.96 69.6776 272.01 69.7825C273.06 69.8875 273.9 69.7825 274.53 69.6776C275.159 69.5726 275.474 69.5726 275.369 69.4676C275.369 69.3626 274.11 69.5726 272.01 69.3626C270.96 69.2577 269.806 69.0477 268.546 68.5228C267.286 67.998 266.132 67.1582 265.187 65.8985C264.242 64.6388 263.822 63.1692 263.927 61.9095C264.032 60.6498 264.662 59.4951 265.397 58.7603C266.132 58.0255 266.866 57.6056 267.391 57.5006C268.021 57.1857 268.441 57.1857 268.441 57.0807Z" fill="#455A64"/>
<path d="M272.85 54.0366C272.85 54.0366 272.64 53.9316 272.22 54.1416C271.8 54.3515 271.38 54.7714 271.17 55.5063C270.96 56.2411 271.275 57.1858 271.695 58.0256C272.115 58.8654 272.745 59.8102 273.48 60.545C275.054 62.1196 276.839 63.1693 278.204 63.5892C279.568 64.0091 280.513 64.0091 280.513 64.0091C280.513 63.9042 279.673 63.7992 278.309 63.2743C277.049 62.7494 275.264 61.8047 273.795 60.2301C273.06 59.4953 272.43 58.6555 272.01 57.8157C271.59 56.9759 271.38 56.2411 271.485 55.6112C271.59 54.9814 272.01 54.5615 272.22 54.3515C272.64 54.1416 272.85 54.1416 272.85 54.0366Z" fill="#455A64"/>
<path d="M215.219 139.8L169.661 135.496L162.417 133.817C162.417 133.817 145.937 130.877 144.362 130.353C142.577 129.828 141.843 130.562 141.738 131.192C141.528 132.242 142.472 133.397 144.047 133.922C144.572 134.132 152.97 136.651 152.97 136.651C152.97 136.651 152.13 136.861 150.241 137.596C148.246 138.331 146.461 140.955 145.622 143.999C144.782 147.043 144.782 147.883 145.937 148.303C146.356 148.408 146.881 148.303 147.196 148.093C147.826 147.673 148.246 147.043 148.456 146.309C149.821 141.48 152.865 141.06 152.865 141.06L153.81 141.27C153.81 141.27 150.87 143.579 150.975 146.099C150.975 146.518 151.08 146.833 151.29 147.148C150.87 148.408 151.185 149.878 152.13 150.927C153.075 151.977 154.544 152.502 155.909 152.187C156.539 152.082 157.274 151.662 157.274 150.927C157.274 150.612 157.169 150.193 157.064 149.878C156.959 149.668 156.959 149.563 156.854 149.353L159.583 149.668C159.583 149.668 165.777 149.983 168.401 150.402L211.335 161.53C217.319 163.104 223.302 159.43 224.772 153.447C226.451 146.728 221.833 140.43 215.219 139.8Z" fill="#FFBE9D"/>
<path d="M168.716 136.651C168.716 137.596 167.771 138.33 166.826 138.54C165.882 138.75 164.937 138.645 163.992 138.855C161.158 139.38 159.058 142.004 156.224 142.319C155.804 142.319 155.279 142.319 155.174 141.899C155.069 141.585 155.384 141.165 155.594 140.955C157.904 138.75 160.108 136.651 162.418 134.446" fill="#FFBE9D"/>
<path d="M162.417 134.446C162.417 134.446 162.103 134.656 161.578 135.076C161.053 135.496 160.423 136.126 159.478 136.966C158.533 137.806 157.589 138.75 156.434 139.8C156.119 140.115 155.909 140.325 155.594 140.64C155.384 140.955 154.859 141.165 154.859 141.795C154.859 142.109 155.069 142.424 155.384 142.529C155.699 142.634 155.909 142.634 156.119 142.634C156.539 142.529 157.064 142.424 157.484 142.319C159.268 141.69 160.528 140.535 161.893 139.8C162.522 139.485 163.257 139.17 163.887 139.065C164.517 138.96 165.147 138.96 165.777 138.855C166.931 138.75 167.981 138.225 168.296 137.596C168.716 136.966 168.611 136.546 168.611 136.546C168.506 136.546 168.611 136.966 168.191 137.386C167.771 137.911 166.931 138.33 165.777 138.33C165.252 138.33 164.517 138.33 163.887 138.435C163.152 138.54 162.417 138.855 161.788 139.17C160.318 139.905 159.058 140.955 157.379 141.585C156.959 141.69 156.539 141.795 156.119 141.9C155.699 141.9 155.384 141.795 155.384 141.585C155.384 141.375 155.699 141.06 156.014 140.745C156.329 140.43 156.539 140.22 156.854 139.905C157.904 138.855 158.953 137.911 159.793 136.966C160.633 136.126 161.263 135.496 161.788 134.971C162.208 134.761 162.522 134.551 162.417 134.446Z" fill="#EB996E"/>
<path d="M154.02 140.955C154.02 141.06 153.285 140.64 152.235 140.955C151.71 141.165 151.185 141.48 150.765 142.109C150.346 142.739 150.031 143.474 149.716 144.314C149.401 145.154 149.191 145.994 148.771 146.623C148.351 147.253 147.931 147.778 147.301 148.093C146.776 148.408 146.252 148.303 145.937 148.198C145.622 148.093 145.517 147.883 145.517 147.883C145.517 147.883 145.727 147.988 145.937 148.093C146.252 148.198 146.671 148.198 147.196 147.883C147.616 147.568 148.141 147.043 148.456 146.413C148.771 145.784 149.086 144.944 149.296 144.209C149.611 143.369 149.926 142.634 150.45 142.004C150.975 141.375 151.605 140.955 152.13 140.85C152.76 140.745 153.18 140.745 153.495 140.85C153.915 140.85 154.02 140.955 154.02 140.955Z" fill="#EB996E"/>
<path d="M143.522 133.607C143.522 133.607 144.152 133.817 145.202 134.132C146.356 134.552 147.721 134.971 149.191 135.391C150.66 135.811 152.025 136.231 153.18 136.651C154.23 136.966 154.859 137.176 154.859 137.176C154.859 137.176 154.23 137.071 153.18 136.861C152.13 136.651 150.66 136.231 149.086 135.706C147.511 135.181 146.147 134.761 145.097 134.342C144.152 133.922 143.522 133.607 143.522 133.607Z" fill="#EB996E"/>
<path d="M155.279 143.474C155.279 143.474 155.174 143.684 154.964 143.894C154.754 144.104 154.44 144.629 154.545 145.154C154.545 145.469 154.754 145.679 155.069 145.784C155.384 145.889 155.804 145.994 156.224 145.994C156.644 146.099 157.169 146.204 157.484 146.624C157.799 147.043 157.904 147.568 157.799 148.093C157.694 148.618 157.274 149.038 156.854 149.248C156.434 149.458 155.909 149.563 155.489 149.458C154.649 149.353 153.915 149.038 153.39 148.723C152.865 148.408 152.34 148.093 152.13 147.883C151.92 147.568 151.815 147.463 151.815 147.463C151.815 147.463 151.92 147.568 152.235 147.883C152.445 148.093 152.97 148.408 153.495 148.618C154.02 148.828 154.754 149.143 155.594 149.248C156.329 149.353 157.274 148.933 157.589 148.093C157.694 147.673 157.589 147.253 157.379 146.938C157.169 146.624 156.749 146.519 156.329 146.414C155.909 146.309 155.489 146.309 155.174 146.099C154.859 145.889 154.545 145.574 154.545 145.259C154.44 144.524 154.964 144.104 155.174 143.894C155.174 143.579 155.279 143.474 155.279 143.474Z" fill="#EB996E"/>
<path d="M156.539 149.038C156.539 149.038 156.749 149.038 156.959 149.248C157.169 149.458 157.484 149.878 157.484 150.507C157.484 151.137 157.064 151.767 156.329 152.187C155.594 152.502 154.754 152.607 153.915 152.292C153.075 151.977 152.34 151.452 151.92 150.927C151.5 150.298 151.29 149.668 151.185 149.038C151.08 148.513 151.185 147.988 151.29 147.673C151.395 147.358 151.5 147.253 151.5 147.253C151.605 147.253 151.29 147.988 151.5 149.038C151.605 149.563 151.815 150.193 152.235 150.717C152.655 151.242 153.285 151.767 154.125 151.977C154.859 152.187 155.699 152.187 156.329 151.872C156.959 151.557 157.274 151.032 157.379 150.507C157.379 149.983 157.169 149.563 156.959 149.353C156.644 149.143 156.539 149.143 156.539 149.038Z" fill="#EB996E"/>
<path d="M163.887 145.049C163.887 145.049 163.887 144.734 164.097 144.209C164.307 143.789 164.832 143.159 165.672 142.844V143.159C165.357 143.054 164.937 142.844 164.622 142.634C162.627 141.48 161.578 139.905 161.683 139.8C161.788 139.695 162.837 141.165 164.832 142.319C165.147 142.529 165.567 142.739 165.882 142.844L166.197 143.054L165.882 143.159C165.147 143.474 164.622 143.999 164.307 144.419C164.097 144.839 163.992 145.049 163.887 145.049Z" fill="#EB996E"/>
<path d="M149.611 140.745C149.716 140.64 150.135 141.165 150.24 142.005C150.345 142.844 149.926 143.474 149.926 143.369C149.821 143.369 150.03 142.739 149.926 142.005C149.821 141.375 149.506 140.85 149.611 140.745Z" fill="#EB996E"/>
<path d="M216.059 162.055L245.767 155.231C245.767 155.231 244.192 209.608 244.192 210.133C244.192 210.657 241.778 211.497 241.988 215.486L244.087 220.21L309.171 221.05L310.955 168.248L316.939 127.308L303.292 118.91L298.464 112.402L279.673 132.242L275.054 115.341L275.159 110.302L270.541 115.341L245.557 122.584L212.49 138.016L190.131 136.336L184.357 155.861L216.059 162.055Z" fill="#EA6216"/>
<path d="M277.049 125.944C277.049 126.049 276.209 126.259 275.684 127.413C275.474 128.043 275.264 128.778 275.264 129.723C275.264 130.667 275.264 131.717 274.844 132.872L274.635 133.397L274.425 132.872C273.795 131.402 273.375 129.828 272.955 128.043C272.115 124.684 271.695 121.535 271.275 119.225C270.96 116.916 270.855 115.551 270.855 115.551C270.96 115.551 271.17 116.916 271.59 119.12C272.01 121.325 272.64 124.474 273.375 127.833C273.795 129.513 274.215 131.192 274.74 132.557H274.32C274.739 131.612 274.739 130.563 274.844 129.618C274.844 128.673 275.054 127.833 275.369 127.203C275.684 126.574 276.104 126.154 276.419 126.049C276.839 125.944 277.049 125.839 277.049 125.944Z" fill="#263238"/>
<path d="M301.088 117.651C301.088 117.651 300.878 117.966 300.458 118.596C300.038 119.12 299.408 119.96 298.569 120.905C296.994 122.899 294.684 125.629 292.165 128.568C290.695 130.248 289.331 131.822 288.176 133.292L287.861 133.607L287.756 133.187C287.231 130.877 286.706 128.988 286.392 127.623C286.287 126.993 285.867 126.574 285.552 126.574C285.237 126.574 285.027 126.783 285.027 126.678C285.027 126.678 285.132 126.364 285.552 126.364C285.762 126.364 286.077 126.469 286.287 126.678C286.497 126.888 286.602 127.203 286.707 127.518C287.126 128.883 287.651 130.772 288.281 133.082L287.861 132.977C289.016 131.507 290.381 129.933 291.85 128.253C294.37 125.314 296.679 122.585 298.359 120.695C299.198 119.75 299.933 119.015 300.353 118.491C300.773 117.861 301.088 117.546 301.088 117.651Z" fill="#263238"/>
<path d="M273.375 204.569C273.375 204.569 273.375 204.359 273.27 203.834C273.27 203.309 273.27 202.679 273.27 201.84C273.27 200.055 273.27 197.536 273.27 194.387C273.375 188.088 273.69 179.48 274.32 169.928C275.054 160.375 275.999 151.767 276.944 145.574C277.364 142.425 277.784 139.905 277.994 138.226C278.099 137.386 278.204 136.756 278.309 136.231C278.414 135.811 278.414 135.496 278.414 135.496C278.414 135.496 278.414 135.706 278.414 136.231C278.309 136.756 278.309 137.386 278.204 138.226C277.994 140.01 277.679 142.53 277.259 145.574C276.524 151.767 275.579 160.375 274.844 169.928C274.11 179.48 273.795 188.088 273.585 194.387C273.48 197.431 273.48 199.95 273.375 201.84C273.375 202.679 273.375 203.309 273.27 203.834C273.48 204.254 273.48 204.569 273.375 204.569Z" fill="#263238"/>
<path d="M268.126 217.271C268.021 217.271 267.601 215.171 267.601 212.652C267.706 210.028 268.021 208.033 268.126 208.033C268.336 208.033 268.231 210.133 268.126 212.757C268.126 215.171 268.231 217.271 268.126 217.271Z" fill="#263238"/>
<path d="M294.789 202.05C294.789 202.05 294.16 202.26 293.11 202.679C292.06 203.099 290.38 203.519 288.491 204.149C284.502 205.304 279.043 206.668 272.85 207.823C266.656 208.873 260.988 209.503 256.894 209.818C254.794 209.923 253.22 210.028 252.065 210.028C250.91 210.028 250.281 210.028 250.281 210.028C250.281 210.028 250.91 209.923 252.065 209.818C253.325 209.713 254.899 209.608 256.894 209.398C260.988 208.978 266.656 208.348 272.85 207.298C279.043 206.249 284.502 204.884 288.491 203.834C290.38 203.309 291.955 202.889 293.215 202.575C294.16 202.155 294.789 201.945 294.789 202.05Z" fill="#263238"/>
<path d="M245.347 166.673C245.242 166.673 245.137 158.905 245.137 149.458C245.137 139.905 245.347 132.242 245.452 132.242C245.557 132.242 245.662 140.01 245.662 149.458C245.662 158.905 245.557 166.673 245.347 166.673Z" fill="#263238"/>
<path d="M315.574 126.363C315.574 126.363 323.762 133.397 324.287 137.386C324.707 140.43 332.79 169.403 336.359 182.314C337.514 186.303 337.199 190.607 335.624 194.491L325.127 220.42L308.121 210.342L316.624 185.989L309.591 165.309L315.574 126.363Z" fill="#EA6216"/>
<path d="M325.337 220.525C325.337 220.525 325.232 220.525 325.022 220.42C324.812 220.315 324.497 220.105 324.077 219.895C323.237 219.475 322.083 218.74 320.613 217.901C317.569 216.116 313.37 213.702 308.226 210.657L308.121 210.552L308.226 210.342C310.64 203.519 313.475 195.121 316.624 185.989V186.199C315.679 183.574 314.629 180.74 313.58 177.906C311.06 171.187 308.751 164.784 306.546 159.01C304.447 154.496 302.557 150.193 302.033 145.994C301.823 143.894 301.823 141.9 302.243 140.115C302.557 138.33 303.187 136.756 303.922 135.391C305.392 132.662 307.071 130.982 308.331 129.828C308.961 129.303 309.486 128.883 309.801 128.673C310.115 128.463 310.325 128.358 310.325 128.358C310.325 128.358 310.115 128.463 309.801 128.778C309.486 129.093 308.961 129.408 308.436 130.038C307.281 131.192 305.602 132.872 304.237 135.601C303.502 136.966 302.977 138.54 302.662 140.22C302.347 142.005 302.243 143.894 302.557 145.994C303.082 150.088 304.972 154.391 307.071 158.905C309.276 164.679 311.585 171.082 314.105 177.801C315.154 180.635 316.204 183.469 317.149 186.094V186.199V186.303C313.895 195.436 311.06 203.729 308.646 210.552L308.541 210.342C313.685 213.387 317.884 215.906 320.823 217.691C322.292 218.53 323.342 219.265 324.182 219.79C324.497 220 324.812 220.21 325.022 220.315C325.232 220.42 325.337 220.525 325.337 220.525Z" fill="#263238"/>
<g opacity="0.3">
<g opacity="0.3">
<path opacity="0.3" d="M281.563 130.248C282.717 130.248 283.872 130.982 284.082 132.137C284.292 133.292 284.082 134.447 284.397 135.601C284.712 136.756 285.657 137.806 286.811 137.596C287.546 137.491 287.966 136.861 288.386 136.336C290.59 133.502 292.375 129.933 293.635 126.573C293.635 126.678 287.861 133.292 287.861 133.292C287.651 131.612 287.126 130.038 286.601 128.463C286.392 127.938 286.182 127.098 285.657 126.888C284.817 126.573 283.872 127.728 283.347 128.358C282.927 128.883 281.773 130.038 281.563 130.248Z" fill="black"/>
</g>
</g>
<g opacity="0.3">
<g opacity="0.3">
<path opacity="0.3" d="M272.115 124.264C272.325 127.938 272.85 131.717 274.215 135.076C274.32 135.391 274.53 135.811 274.739 136.021C275.054 136.231 275.474 136.336 275.789 136.126C275.999 136.021 276.734 134.132 276.839 133.922C277.364 132.452 279.568 132.242 279.568 132.242C279.568 132.242 278.728 128.358 278.099 127.203C277.889 126.678 277.364 126.259 276.734 126.364C276.104 126.468 275.369 127.413 275.264 128.043C274.949 130.772 274.949 131.927 274.529 132.872C273.585 130.038 272.745 126.573 272.115 124.264Z" fill="black"/>
</g>
</g>
<g opacity="0.3">
<g opacity="0.3">
<path opacity="0.3" d="M288.281 203.729C289.331 203.099 289.541 201.525 288.806 200.475C288.071 199.425 286.706 199.11 285.552 199.215C284.292 199.32 283.242 199.95 282.192 200.685C281.248 201.42 280.303 202.259 279.253 202.889C276.629 204.464 273.585 204.779 270.54 204.884C267.496 204.884 264.452 204.674 261.513 205.304C258.573 205.829 255.634 207.403 254.165 210.027C254.06 210.132 279.883 208.243 288.281 203.729Z" fill="black"/>
</g>
</g>
<path d="M305.077 241.625C301.403 239.21 299.828 236.901 298.359 234.696C298.359 234.591 298.359 234.486 298.359 234.486C298.359 234.381 298.254 234.381 298.149 234.381C297.309 233.122 296.679 231.967 296.154 230.917C298.254 229.553 300.983 227.453 298.044 227.033C294.37 226.508 291.745 224.724 291.325 223.779C290.905 222.834 292.165 221.89 293.11 222.519C293.845 223.044 295.419 223.464 296.679 223.779C297.624 223.989 298.673 224.094 299.723 223.989C300.353 223.884 302.558 222.414 304.867 221.26C305.182 221.155 305.602 221.05 305.917 221.155L306.861 221.05C307.806 220.945 308.646 220.42 309.171 219.58L312.53 213.072L322.817 219.16L314.63 230.497C314.63 230.287 309.066 237.741 305.077 241.625Z" fill="#FFBE9D"/>
<path d="M307.281 242.884C307.281 242.989 306.337 242.569 304.867 241.73C303.502 240.89 301.613 239.525 300.038 237.636C298.359 235.746 297.204 233.857 296.574 232.387C295.944 230.917 295.629 229.973 295.734 229.868C295.944 229.763 297.204 233.647 300.458 237.321C303.607 240.995 307.281 242.674 307.281 242.884Z" fill="#455A64"/>
<path d="M274.844 249.498C274.844 249.498 274.739 249.498 274.529 249.393C274.32 249.288 274.11 249.183 273.795 248.973C273.165 248.448 272.535 247.608 272.115 246.348C271.695 245.089 271.38 243.514 270.96 241.835C270.54 240.155 270.226 238.265 269.806 236.271C269.071 232.282 268.441 228.713 268.021 226.089C267.811 224.829 267.706 223.779 267.601 223.044C267.496 222.309 267.496 221.89 267.496 221.89C267.496 221.89 267.601 222.309 267.811 223.044C268.021 223.884 268.126 224.934 268.336 226.089C268.861 228.713 269.491 232.282 270.226 236.166C270.645 238.161 270.96 239.945 271.38 241.73C271.695 243.409 272.01 244.984 272.43 246.243C272.85 247.503 273.375 248.343 273.9 248.868C274.424 249.288 274.844 249.393 274.844 249.498Z" fill="#455A64"/>
<path d="M273.9 225.879C273.9 225.879 274.11 225.774 274.319 225.879C274.634 225.984 275.054 226.194 275.264 226.718C275.579 227.138 275.684 227.978 275.159 228.608C274.739 229.238 273.9 229.658 272.955 229.448C272.01 229.238 271.485 228.398 271.38 227.663C271.275 226.928 271.59 226.194 272.01 225.879C272.85 225.144 273.69 225.354 273.585 225.354C273.585 225.459 272.85 225.459 272.22 226.089C271.905 226.403 271.695 226.928 271.8 227.558C271.905 228.083 272.325 228.713 272.955 228.923C273.585 229.133 274.319 228.818 274.634 228.293C274.949 227.873 274.949 227.243 274.739 226.823C274.634 226.089 273.9 225.984 273.9 225.879Z" fill="#455A64"/>
<path d="M251.645 221.68C251.645 221.68 251.96 222.624 251.96 224.094C251.96 225.564 251.54 227.663 250.385 229.763C249.231 231.862 247.761 233.332 246.501 234.172C245.242 235.011 244.402 235.326 244.297 235.326C244.297 235.221 245.137 234.801 246.187 233.962C247.341 233.017 248.706 231.547 249.861 229.553C250.91 227.558 251.33 225.564 251.54 224.094C251.645 222.624 251.54 221.68 251.645 221.68Z" fill="#455A64"/>
<path d="M210.915 147.988C210.81 147.988 211.125 145.679 211.44 142.739C211.755 139.905 212.07 137.596 212.175 137.596C212.28 137.596 212.28 140.01 211.965 142.844C211.65 145.784 211.02 147.988 210.915 147.988Z" fill="#263238"/>
<path d="M189.921 136.021C189.921 136.021 189.921 136.126 189.816 136.441C189.711 136.756 189.606 137.071 189.501 137.491C189.186 138.436 188.871 139.8 188.346 141.48C187.296 144.944 185.932 149.878 184.252 155.651L184.042 155.336C190.026 156.806 197.164 157.961 204.722 159.43C208.501 160.165 212.175 160.9 215.534 161.74H215.429C223.932 159.85 231.385 158.171 236.739 156.911C239.363 156.386 241.463 155.861 242.932 155.546C243.667 155.441 244.192 155.336 244.612 155.231C245.032 155.126 245.242 155.126 245.242 155.126C245.242 155.126 245.032 155.231 244.717 155.336C244.297 155.441 243.772 155.546 243.037 155.756C241.568 156.071 239.468 156.596 236.844 157.226C231.49 158.486 224.142 160.27 215.639 162.265H215.534H215.429C212.07 161.425 208.396 160.69 204.617 159.955C196.954 158.591 189.816 157.331 183.937 155.756L183.727 155.651L183.832 155.441C185.617 149.668 187.086 144.734 188.136 141.27C188.661 139.59 189.081 138.331 189.396 137.281C189.501 136.861 189.606 136.546 189.711 136.231C189.921 136.126 189.921 136.021 189.921 136.021Z" fill="#263238"/>
<path d="M440.073 152.187L435.664 144.629L431.465 152.187H371.63V183.469H464.742V152.187H440.073Z" fill="#EA6216"/>
<path d="M388.321 168.038C389.896 167.408 391.05 165.729 391.05 163.839C391.05 161.32 389.161 159.22 386.851 159.22C384.437 159.22 382.547 161.215 382.442 163.734C382.442 165.729 383.492 167.408 385.172 168.038C378.558 168.983 378.768 176.226 378.768 176.226L394.41 176.436C394.514 176.436 394.934 169.088 388.321 168.038Z" fill="#FAFAFA"/>
<path d="M454.14 161.425C454.14 161.53 442.278 161.635 427.581 161.635C412.885 161.635 401.023 161.53 401.023 161.425C401.023 161.32 412.885 161.215 427.581 161.215C442.278 161.32 454.14 161.32 454.14 161.425Z" fill="#FAFAFA"/>
<path d="M454.14 166.254C454.14 166.359 442.278 166.464 427.581 166.464C412.885 166.464 401.023 166.359 401.023 166.254C401.023 166.149 412.885 166.044 427.581 166.044C442.278 166.044 454.14 166.149 454.14 166.254Z" fill="#FAFAFA"/>
<path d="M454.14 170.977C454.14 171.082 442.278 171.187 427.581 171.187C412.885 171.187 401.023 171.082 401.023 170.977C401.023 170.872 412.885 170.767 427.581 170.767C442.278 170.767 454.14 170.872 454.14 170.977Z" fill="#FAFAFA"/>
<path d="M427.581 175.701C427.581 175.806 421.598 175.911 414.25 175.911C406.901 175.911 400.918 175.806 400.918 175.701C400.918 175.596 406.901 175.491 414.25 175.491C421.598 175.491 427.581 175.596 427.581 175.701Z" fill="#FAFAFA"/>
<path d="M53.5599 313.532C53.5599 313.532 53.245 313.532 52.7201 313.637C52.0903 313.637 51.2505 313.637 50.2007 313.742C47.8913 313.742 44.7421 313.847 40.7531 313.847C32.7751 313.847 21.8578 313.847 9.78586 313.952C9.05104 313.952 8.31622 313.952 7.5814 313.952H7.26648V313.637C7.26648 302.09 7.37146 291.697 7.37146 284.139C7.37146 280.465 7.47644 277.421 7.47644 275.216C7.47644 274.167 7.47643 273.432 7.5814 272.802C7.5814 272.277 7.58141 271.962 7.68638 271.962C7.68638 271.962 7.68637 272.277 7.79135 272.802C7.79135 273.432 7.79135 274.167 7.89633 275.216C7.89633 277.316 8.00131 280.36 8.00131 284.139C8.00131 291.697 8.10627 302.09 8.10627 313.637L7.79135 313.322C8.52616 313.322 9.26099 313.322 9.9958 313.322C22.0678 313.322 32.9851 313.427 40.9631 313.427C44.8471 313.427 48.1013 313.532 50.4107 313.532C51.4604 313.532 52.3002 313.532 52.9301 313.637C53.245 313.532 53.5599 313.532 53.5599 313.532Z" fill="#263238"/>
<path d="M48.4161 282.04C48.4161 282.04 47.9962 282.565 47.0514 283.404C46.1067 284.244 44.742 285.399 43.1674 286.869C39.9132 289.703 35.2944 293.692 30.1507 297.996L29.4159 298.626L29.2059 298.836L28.996 298.626C27.0015 296.736 25.007 294.951 23.2224 293.272H23.5373C20.1782 296.106 17.2389 298.521 15.0344 300.305C14.0897 301.145 13.2499 301.775 12.6201 302.3C11.9902 302.72 11.6753 302.93 11.6753 302.93C11.6753 302.93 11.9902 302.615 12.5151 302.09C13.1449 301.565 13.8797 300.83 14.8245 299.99C16.924 298.206 19.8632 295.686 23.1174 292.852L23.3274 292.747L23.5373 292.957C25.3219 294.637 27.3164 296.421 29.3109 298.311H28.891L29.6258 297.681C34.6645 293.377 39.3884 289.493 42.7475 286.764C44.4271 285.399 45.6868 284.349 46.7365 283.509C47.8912 282.46 48.4161 282.04 48.4161 282.04Z" fill="#263238"/>
<path d="M48.4162 291.697C48.3112 291.697 48.3112 290.648 48.2062 288.863C48.2062 287.078 48.1012 284.664 48.1012 281.83L48.4162 282.145C48.2062 282.145 48.1012 282.145 47.8913 282.145C45.057 282.145 42.4327 282.145 40.5431 282.04C38.6536 281.935 37.4989 281.935 37.4989 281.83C37.4989 281.725 38.6536 281.725 40.5431 281.62C42.4327 281.515 45.057 281.515 47.8913 281.515C48.1012 281.515 48.2062 281.515 48.4162 281.515H48.7311V281.83C48.7311 284.559 48.7311 287.078 48.6261 288.863C48.6261 290.543 48.5211 291.697 48.4162 291.697Z" fill="#263238"/>
</svg>
