<svg width="672" height="424" viewBox="0 0 672 424" fill="none" xmlns="http://www.w3.org/2000/svg">
<path d="M96.0819 2.66003H27.2819V74.38H96.0819V2.66003Z" fill="#E0E0E0"/>
<path d="M91.4219 2.66003H22.6219V74.38H91.4219V2.66003Z" fill="#F5F5F5"/>
<path d="M91.442 74.4H22.652V2.59998H91.492L91.442 74.4ZM22.642 74.4H91.392V2.67998H22.652L22.642 74.4Z" fill="#E0E0E0"/>
<path d="M82.1719 12.3H31.8719V64.73H82.1719V12.3Z" fill="white"/>
<path d="M31.8719 65.09C31.519 65.613 31.1099 66.0959 30.6519 66.53C29.8519 67.38 28.7219 68.53 27.4619 69.77C26.2019 71.01 25.0319 72.13 24.1719 72.92C23.7104 73.377 23.2008 73.7827 22.6519 74.13C22.9993 73.5998 23.4126 73.1159 23.8819 72.69C24.6919 71.84 25.8219 70.69 27.0919 69.44C28.3619 68.19 29.5219 67.08 30.3819 66.29C30.8252 65.8278 31.3259 65.4245 31.8719 65.09Z" fill="#E0E0E0"/>
<path d="M82.1719 64.96C82.7122 65.3138 83.209 65.73 83.6519 66.2C84.5019 67 85.6519 68.13 86.8919 69.39C88.1319 70.65 89.2519 71.82 90.0419 72.68C90.4985 73.1163 90.9044 73.6027 91.2519 74.13C90.7218 73.7826 90.2379 73.3693 89.8119 72.9C88.9619 72.1 87.8119 70.97 86.5619 69.7C85.3119 68.43 84.2019 67.26 83.4119 66.4C82.9375 65.9761 82.5207 65.492 82.1719 64.96V64.96Z" fill="#E0E0E0"/>
<path d="M82.0319 12.44C82.3892 11.9145 82.8052 11.4313 83.2719 11C84.0719 10.15 85.2019 9.00003 86.4719 7.76003C87.7419 6.52003 88.9019 5.40002 89.7519 4.61002C90.1876 4.14881 90.6779 3.74248 91.2119 3.40002C90.8556 3.92629 90.4395 4.40952 89.9719 4.84003C89.1719 5.69003 88.0419 6.84003 86.7719 8.09003C85.5019 9.34003 84.3319 10.45 83.4819 11.24C83.051 11.6995 82.5639 12.1027 82.0319 12.44Z" fill="#E0E0E0"/>
<path d="M31.7319 12.6C31.204 12.2458 30.7205 11.8295 30.2919 11.36C29.4419 10.56 28.2919 9.43002 27.0419 8.16002C25.7919 6.89002 24.6519 5.70001 23.9019 4.85001C23.4229 4.4204 23.0026 3.92951 22.6519 3.39001C23.1883 3.73339 23.6818 4.1396 24.1219 4.60001C24.9719 5.40001 26.1219 6.53001 27.3719 7.80001C28.6219 9.07001 29.7419 10.24 30.5219 11.09C30.9861 11.5415 31.3925 12.0486 31.7319 12.6V12.6Z" fill="#E0E0E0"/>
<path d="M82.0319 64.74C82.0319 64.74 82.0319 64.65 82.0319 64.48C82.0319 64.31 82.0319 64.06 82.0319 63.75C82.0319 63.09 82.0319 62.15 82.0319 60.92C82.0319 58.44 82.0319 54.82 81.9719 50.23C81.9719 41.05 81.9719 27.97 81.8819 12.3L82.0719 12.5H31.9119L32.1319 12.28C32.1319 31.53 32.1319 49.53 32.1319 64.72L31.9419 64.53L68.2619 64.62H78.4619H81.1619H81.8619C81.9416 64.6096 82.0222 64.6096 82.1019 64.62H81.2019H78.5419H68.3819L31.9419 64.72H31.6519V64.53C31.6519 49.6 31.6519 31.6 31.6519 12.3V12.08H31.8819H82.0419H82.2319V12.27C82.2319 27.99 82.1619 41.11 82.1419 50.33C82.1419 54.9 82.1419 58.5 82.0819 60.97C82.0819 62.18 82.0819 63.11 82.0819 63.76C82.0819 64.07 82.0819 64.3 82.0819 64.47C82.071 64.5609 82.0543 64.6511 82.0319 64.74V64.74Z" fill="#E0E0E0"/>
<path d="M65.4019 30.13H48.6219V46.91H65.4019V30.13Z" fill="#E0E0E0"/>
<path d="M671.082 0.5C670.684 1.20771 670.222 1.87721 669.702 2.5C668.802 3.71 667.532 5.34 666.072 7.11C664.612 8.88 663.252 10.45 662.242 11.57C661.725 12.1995 661.152 12.7818 660.532 13.31C660.97 12.6231 661.465 11.9742 662.012 11.37L665.742 6.85L669.472 2.32C669.96 1.67234 670.499 1.06383 671.082 0.5Z" fill="#E0E0E0"/>
<path d="M661.542 100.34C664.426 104.938 667.817 109.198 671.652 113.04Z" fill="white"/>
<path d="M671.652 113.04C671.011 112.558 670.419 112.015 669.882 111.42C668.528 110.051 667.249 108.608 666.052 107.1C664.848 105.6 663.723 104.038 662.682 102.42C662.214 101.772 661.818 101.074 661.502 100.34C662.026 100.94 662.504 101.578 662.932 102.25C663.782 103.45 664.932 105.09 666.382 106.84C667.832 108.59 669.122 110.12 670.102 111.22C670.668 111.783 671.186 112.392 671.652 113.04V113.04Z" fill="#E0E0E0"/>
<path d="M593.392 112.69L603.542 100.17Z" fill="white"/>
<path d="M603.542 100.17C602.028 102.399 600.396 104.546 598.652 106.6C597.013 108.733 595.264 110.779 593.412 112.73C594.939 110.518 596.578 108.386 598.322 106.34C599.953 104.193 601.695 102.134 603.542 100.17V100.17Z" fill="#E0E0E0"/>
<path d="M593.402 0.5C595.152 2.37104 596.798 4.33737 598.332 6.39C599.977 8.35115 601.51 10.4045 602.922 12.54C601.176 10.6676 599.534 8.70133 598.002 6.65C596.361 4.68295 594.825 2.63006 593.402 0.5V0.5Z" fill="#E0E0E0"/>
<path d="M26.222 204.7C21.8934 201.99 17.0017 200.307 11.922 199.78C9.58197 199.54 7.03197 199.61 5.16197 201.03C4.94512 201.153 4.76554 201.332 4.6423 201.548C4.51905 201.765 4.45674 202.011 4.46197 202.26C4.57096 202.614 4.80568 202.917 5.12197 203.11C8.15966 205.274 11.7313 206.566 15.4503 206.846C19.1694 207.126 22.8943 206.384 26.222 204.7" fill="#E0E0E0"/>
<path d="M25.8619 204.3C22.5579 201.867 19.4758 199.147 16.6519 196.17C13.808 193.175 11.81 189.48 10.8619 185.46C10.6745 184.866 10.6176 184.239 10.6953 183.621C10.773 183.003 10.9833 182.409 11.3119 181.88C18.6519 187.6 24.4319 195.07 25.8619 204.3Z" fill="#E0E0E0"/>
<path d="M26.152 204.65C25.4627 200.631 25.5203 196.519 26.322 192.52C27.1458 188.495 29.4513 184.926 32.782 182.52C34.052 185.52 33.502 188.92 32.612 192.03C31.2186 196.844 29.0538 201.399 26.202 205.52" fill="#E0E0E0"/>
<path d="M33.362 217.6C28.982 218.13 25.172 220.44 21.902 223.41C18.6086 226.4 16.3149 230.331 15.332 234.67C19.632 234.4 23.332 231.37 25.922 227.97C28.512 224.57 30.402 220.85 33.302 217.67" fill="#E0E0E0"/>
<path d="M34.9319 219.65C33.2065 215.27 32.602 210.528 33.173 205.855C33.744 201.182 35.4726 196.726 38.2019 192.89C40.6919 201.77 39.7819 211.8 34.9319 219.65Z" fill="#E0E0E0"/>
<path d="M44.4719 231.01C40.466 230.758 36.4746 231.691 32.9959 233.694C29.5173 235.696 26.7056 238.679 24.9119 242.27C24.6719 242.75 24.4519 243.37 24.7819 243.8C24.9513 243.964 25.1583 244.085 25.3848 244.151C25.6114 244.217 25.8507 244.227 26.0819 244.18C29.9319 243.93 33.3519 241.61 36.1719 238.97C38.9919 236.33 41.4419 233.28 44.5619 230.97" fill="#E0E0E0"/>
<path d="M44.1719 230.39C42.116 223.78 41.9877 216.721 43.8019 210.04C44.5219 207.42 45.7219 204.66 48.1419 203.44C48.2393 203.375 48.3491 203.331 48.4644 203.31C48.5797 203.289 48.698 203.293 48.8119 203.32C49.0059 203.428 49.1549 203.602 49.2319 203.81C50.0369 205.642 50.3802 207.644 50.2319 209.64C50.0891 211.631 49.7848 213.608 49.3219 215.55C48.5519 219.16 48.1519 223.05 46.1719 226.16C45.7033 226.909 45.2825 227.688 44.9119 228.49C44.5319 229.28 44.5319 229.56 44.1919 230.19" fill="#E0E0E0"/>
<path d="M69.412 234.15C67.542 227.04 69.532 218.41 74.012 212.58C74.342 212.15 74.782 211.69 75.322 211.74C76.142 211.81 76.322 212.91 76.322 213.74C75.9811 221.057 73.5864 228.131 69.412 234.15" fill="#E0E0E0"/>
<path d="M71.652 235.71C76.0663 236.748 80.653 236.816 85.0965 235.912C89.5399 235.007 93.7347 233.151 97.392 230.47C93.0872 228.303 88.1631 227.698 83.462 228.76C78.802 229.82 74.542 231.91 71.652 235.71Z" fill="#E0E0E0"/>
<path d="M73.652 230.97C78.492 223.08 87.772 217.92 97.012 217.46C95.952 221.22 92.862 224.14 89.372 225.91C85.882 227.68 81.992 228.44 78.152 229.19C76.662 229.48 74.612 229.8 73.652 230.97" fill="#E0E0E0"/>
<path d="M69.8919 207.98C71.3601 203.535 72.3654 198.951 72.8919 194.3C73.2519 189.63 72.5819 184.76 70.1619 180.76C65.6419 189.51 65.1619 199.76 69.7719 208.45" fill="#E0E0E0"/>
<path d="M85.1219 200.29C90.4019 190.68 101.192 183 112.122 181.92C107.912 192.41 96.4219 200.51 85.1219 200.29Z" fill="#E0E0E0"/>
<path d="M81.7919 202.17C89.6719 203.37 96.3919 208.41 103.792 211.46C105.344 212.216 107.07 212.544 108.792 212.41C109.587 212.4 110.361 212.147 111.008 211.684C111.655 211.221 112.144 210.57 112.41 209.821C112.676 209.071 112.706 208.257 112.495 207.49C112.284 206.723 111.844 206.039 111.232 205.53C110.188 204.568 108.96 203.826 107.622 203.35C99.6219 200 90.9819 199.92 82.5319 201.95" fill="#E0E0E0"/>
<path d="M77.2219 207.7C79.0119 208.21 79.6219 209.14 81.0319 210.34C85.8545 214.44 91.5597 217.37 97.7019 218.9C98.3319 219.06 99.1719 219.12 99.4919 218.55C99.8119 217.98 99.4119 217.44 99.0519 216.99C96.3773 213.846 92.9008 211.486 88.9919 210.16C85.1519 208.73 81.8119 207 77.2219 207.37" fill="#E0E0E0"/>
<path d="M72.072 174.29C75.306 177.272 79.1277 179.544 83.2919 180.961C87.456 182.379 91.8705 182.91 96.252 182.52C96.6535 182.526 97.0437 182.387 97.352 182.13C97.962 181.46 97.232 180.44 96.522 179.89C89.412 174.35 80.802 172.05 72.072 174.29" fill="#E0E0E0"/>
<path d="M78.1819 172.06C82.4602 168.907 87.4238 166.81 92.6671 165.941C97.9105 165.072 103.285 165.455 108.352 167.06C104.406 170.723 99.3392 172.946 93.9719 173.37C88.6714 173.859 83.3261 173.408 78.1819 172.04" fill="#E0E0E0"/>
<path d="M75.7519 156.71C75.0619 149.61 75.5119 144.01 75.0219 136.88C75.0219 136.31 74.8519 135.63 74.3219 135.42C73.5819 135.14 72.9619 136.05 72.7219 136.81C71.6865 140.112 71.4185 143.606 71.9384 147.027C72.4583 150.448 73.7524 153.705 75.7219 156.55" fill="#E0E0E0"/>
<path d="M75.2419 157.49C79.8776 154.497 83.8745 150.616 87.0019 146.07C89.3219 142.89 91.2819 139.07 90.7519 135.19C89.1172 135.232 87.5113 135.631 86.0466 136.358C84.5819 137.085 83.2937 138.123 82.2719 139.4C80.2467 141.967 78.7758 144.926 77.952 148.09C77.012 151.22 76.3519 154.42 75.2419 157.49" fill="#E0E0E0"/>
<path d="M86.792 154.28C97.3745 150.366 107.172 144.592 115.722 137.23C112.262 135.84 108.302 136.67 104.852 138.06C97.0155 141.038 90.5412 146.783 86.652 154.21" fill="#E0E0E0"/>
<path d="M78.4919 161.37C83.8319 161.96 89.2519 162.37 94.5519 161.45C99.8519 160.53 104.682 158.52 109.552 156.45C109.97 156.328 110.327 156.053 110.552 155.68C110.631 155.454 110.639 155.209 110.575 154.978C110.51 154.748 110.377 154.542 110.192 154.39C109.815 154.098 109.378 153.893 108.912 153.79C103.622 152.32 97.9119 153.01 92.7119 154.79C87.7522 156.485 82.983 158.694 78.4819 161.38" fill="#E0E0E0"/>
<path d="M48.0019 174.54C44.3619 167.18 44.5919 158.6 47.7419 151.02C49.9619 154.4 50.2319 158.7 49.8219 162.71C49.4119 166.72 48.1919 170.87 48.1219 174.9" fill="#E0E0E0"/>
<path d="M33.452 167.2C28.8895 167.14 24.3649 168.034 20.1683 169.825C15.9716 171.616 12.1955 174.264 9.08197 177.6C13.6774 178.149 18.3309 177.284 22.422 175.12C26.4859 172.966 30.3191 170.403 33.862 167.47" fill="#E0E0E0"/>
<path d="M23.6519 163.92C19.2019 163.56 14.9219 163.01 10.6519 164.32C8.49373 164.929 6.49181 165.996 4.78194 167.447C3.07207 168.898 1.69426 170.7 0.741943 172.73C4.94123 173.07 9.15482 172.276 12.9419 170.43C16.7008 168.587 20.2854 166.408 23.6519 163.92" fill="#E0E0E0"/>
<path d="M38.152 164.07C34.152 161.45 30.042 158.78 25.382 157.69C20.722 156.6 15.312 157.41 12.062 160.92C15.842 163.14 20.412 163.4 24.792 163.4C29.172 163.4 34.532 163.34 38.652 164.8" fill="#E0E0E0"/>
<path d="M38.1719 164.29C31.3319 157.57 28.7419 145.49 31.4919 136.29C36.9016 144.565 39.2633 154.464 38.1719 164.29" fill="#E0E0E0"/>
<path d="M56.9919 145.25C58.2819 142.25 59.1919 139.1 60.3519 136.04C61.4103 132.956 63.031 130.094 65.132 127.6C67.2725 125.08 70.3185 123.503 73.6119 123.21C72.5583 127.838 70.5512 132.195 67.7188 136.004C64.8864 139.813 61.2909 142.989 57.1619 145.33" fill="#E0E0E0"/>
<path d="M53.592 149.21C51.452 146.27 48.982 142.28 46.092 140.09C43.202 137.9 39.422 136.57 35.882 137.41C37.7122 140.619 40.2662 143.357 43.3407 145.406C46.4152 147.454 49.9254 148.757 53.592 149.21" fill="#E0E0E0"/>
<path d="M54.2719 145.49C52.7417 141.998 51.608 138.345 50.8919 134.6C50.1989 130.788 50.8193 126.854 52.6519 123.44C56.4119 130.54 57.6519 138.16 54.5119 145.57" fill="#E0E0E0"/>
<path d="M57.032 123.44C59.152 116.44 65.602 111.22 72.562 108.84C73.4226 108.487 74.3555 108.347 75.282 108.43C75.7437 108.482 76.1798 108.669 76.5356 108.968C76.8914 109.267 77.151 109.664 77.282 110.11C77.532 111.31 76.542 112.38 75.612 113.17C70.1738 117.816 63.8495 121.309 57.022 123.44" fill="#E0E0E0"/>
<path d="M57.1019 117.69C57.3719 113.15 57.6619 108.54 59.1019 104.24C60.5419 99.94 63.4219 95.91 67.5619 94.03C68.2719 98.61 66.2419 103.17 63.8119 107.11C61.3819 111.05 58.4319 114.78 56.9619 119.18" fill="#E0E0E0"/>
<path d="M56.992 120.81C55.232 115.68 55.052 109.16 51.992 104.69C49.842 101.57 46.402 99.44 44.552 96.13C43.4349 99.3048 43.5926 102.789 44.992 105.85C46.3813 108.877 48.2978 111.634 50.652 113.99C52.922 116.41 54.872 118.24 56.982 120.81" fill="#E0E0E0"/>
<path d="M57.0319 271.89C56.8919 271.89 56.7719 237.66 56.7619 195.46C56.7519 153.26 56.8519 119.02 56.9919 119.02C57.1319 119.02 57.2519 153.24 57.2619 195.46C57.2719 237.68 57.1619 271.89 57.0319 271.89Z" fill="#E0E0E0"/>
<path d="M86.932 169.37C86.5241 169.579 86.095 169.743 85.652 169.86L82.1019 171.05C79.1019 172.05 75.022 173.54 70.572 175.37C66.122 177.2 62.002 178.79 59.632 180.84C58.6879 181.629 57.9385 182.625 57.442 183.75C57.102 184.55 57.0419 185.04 56.9919 185.03C56.9419 185.02 56.9919 184.91 56.9919 184.68C57.0401 184.339 57.1239 184.004 57.2419 183.68C57.6884 182.486 58.4236 181.421 59.382 180.58C60.8171 179.363 62.4203 178.359 64.142 177.6C66.042 176.72 68.142 175.79 70.382 174.88C74.842 173.05 78.982 171.62 82.002 170.69C83.502 170.22 84.742 169.87 85.592 169.64C86.0304 169.513 86.4786 169.423 86.932 169.37V169.37Z" fill="#E0E0E0"/>
<path d="M96.7419 145.29C96.7419 145.29 96.6219 145.44 96.3719 145.68L95.2819 146.68L91.1819 150.41L77.5319 162.6C72.2119 167.35 67.6019 171.88 64.4119 175.29C62.8119 176.99 61.5619 178.4 60.7019 179.39L59.7019 180.52C59.4719 180.78 59.3419 180.91 59.3319 180.89C59.3219 180.87 59.4119 180.73 59.6219 180.46C59.8319 180.19 60.1319 179.77 60.5419 179.26C61.3619 178.26 62.5419 176.79 64.1419 175.05C68.2506 170.558 72.5898 166.282 77.1419 162.24C82.4919 157.51 87.3519 153.24 90.8919 150.19L95.0919 146.59L96.2519 145.59C96.4019 145.47 96.5665 145.369 96.7419 145.29V145.29Z" fill="#E0E0E0"/>
<path d="M71.782 167.41C71.642 167.34 72.782 164.77 73.862 161.53C74.942 158.29 75.512 155.53 75.652 155.53C75.5335 157.626 75.0881 159.691 74.332 161.65C73.8469 163.063 73.2861 164.448 72.652 165.8C72.4353 166.373 72.1427 166.915 71.782 167.41Z" fill="#E0E0E0"/>
<path d="M57.0619 188.12C56.7528 187.818 56.4778 187.482 56.2419 187.12L54.1319 184.42C52.3719 182.14 49.9319 178.99 47.1919 175.54C44.4519 172.09 41.9419 168.99 40.1119 166.76L37.9619 164.1C37.6868 163.789 37.4392 163.454 37.2219 163.1C37.5469 163.367 37.845 163.665 38.1119 163.99C38.6619 164.59 39.4319 165.46 40.3819 166.55C42.2719 168.73 44.8319 171.8 47.5819 175.25C50.3319 178.7 52.7219 181.89 54.4119 184.25C55.2619 185.42 55.9419 186.37 56.4119 187.04C56.6624 187.379 56.88 187.74 57.0619 188.12V188.12Z" fill="#E0E0E0"/>
<path d="M50.5019 179.7C49.1848 178.249 48.2409 176.498 47.7519 174.6C47.2415 172.92 47.0316 171.163 47.1319 169.41H47.3519C47.2519 169.81 47.1819 170.02 47.1419 170.01C47.1019 170 47.1419 169.78 47.1419 169.38H47.3619C47.4738 171.074 47.7688 172.75 48.2419 174.38C48.8572 176.209 49.6128 177.987 50.5019 179.7V179.7Z" fill="#E0E0E0"/>
<path d="M42.0319 169.05C41.4456 168.599 40.8037 168.226 40.1219 167.94C38.3954 167.423 36.579 167.276 34.7919 167.51C32.9846 167.654 31.1921 167.945 29.4319 168.38C28.7093 168.611 27.9706 168.788 27.2219 168.91C27.8789 168.518 28.5898 168.225 29.3319 168.04C31.0962 167.508 32.9139 167.173 34.7519 167.04C36.6061 166.796 38.4917 166.998 40.2519 167.63C40.9916 167.883 41.6207 168.385 42.0319 169.05V169.05Z" fill="#E0E0E0"/>
<path d="M40.0319 166.47C40.0319 166.55 38.9119 166.02 37.0919 165.4C34.7193 164.6 32.2577 164.093 29.7619 163.89C27.2625 163.707 24.75 163.835 22.2819 164.27C20.3919 164.61 19.2819 164.97 19.2119 164.88C19.4569 164.737 19.719 164.627 19.9919 164.55C20.7175 164.295 21.4591 164.088 22.2119 163.93C27.2158 162.834 32.4311 163.231 37.2119 165.07C37.9294 165.346 38.6306 165.664 39.3119 166.02C39.5727 166.134 39.8153 166.285 40.0319 166.47V166.47Z" fill="#E0E0E0"/>
<path d="M56.9919 155.6C56.123 153.164 55.4082 150.676 54.8519 148.15C54.1398 145.67 53.582 143.149 53.1819 140.6C54.0636 143.029 54.7818 145.515 55.3319 148.04C56.0446 150.522 56.599 153.047 56.9919 155.6V155.6Z" fill="#E0E0E0"/>
<path d="M57.132 155.6C56.4406 154.061 55.6454 152.571 54.752 151.14C53.7407 149.798 52.5686 148.586 51.262 147.53C51.7606 147.654 52.223 147.894 52.612 148.23C53.602 148.959 54.4638 149.848 55.162 150.86C56.2244 152.239 56.9039 153.874 57.132 155.6V155.6Z" fill="#E0E0E0"/>
<path d="M57.0319 253.6C56.9719 253.6 56.8719 252.78 56.4919 251.33C55.9226 249.284 55.1557 247.298 54.202 245.4C51.832 240.57 47.5319 234.4 42.0719 228.31C39.3619 225.21 36.7319 222.31 34.5019 219.5C32.4992 217.041 30.6905 214.429 29.0919 211.69C28.0178 209.84 27.1012 207.903 26.3519 205.9C26.1019 205.19 25.9219 204.63 25.8219 204.24C25.7494 204.05 25.7024 203.852 25.6819 203.65C25.6819 203.65 25.9719 204.44 26.5319 205.83C27.3409 207.822 28.2969 209.75 29.3919 211.6C31.0257 214.291 32.8504 216.861 34.8519 219.29C37.0919 222.06 39.7219 224.96 42.4419 228.06C47.9219 234.21 52.2119 240.42 54.5119 245.33C55.4503 247.245 56.1747 249.257 56.6719 251.33C56.8043 251.898 56.9078 252.472 56.9819 253.05C57.0137 253.232 57.0304 253.416 57.0319 253.6V253.6Z" fill="#E0E0E0"/>
<path d="M84.0519 223.12C83.5965 223.414 83.1222 223.678 82.6319 223.91C81.3546 224.635 80.1284 225.447 78.9619 226.34C77.2431 227.679 75.6315 229.15 74.1419 230.74C72.4419 232.53 70.7019 234.61 68.9219 236.83C65.3619 241.3 62.0319 245.25 60.0419 248.41C59.2341 249.641 58.4898 250.913 57.8119 252.22C57.5804 252.708 57.3199 253.183 57.0319 253.64C57.0319 253.64 57.0319 253.5 57.1619 253.24C57.2919 252.98 57.4119 252.6 57.6319 252.13C58.2559 250.785 58.9605 249.48 59.7419 248.22C61.6819 244.99 64.9819 240.98 68.5319 236.52C70.3219 234.29 72.0819 232.21 73.8119 230.43C75.3324 228.837 76.985 227.375 78.7519 226.06C79.9459 225.179 81.214 224.402 82.5419 223.74C83.0119 223.51 83.4019 223.36 83.6519 223.25C83.9019 223.14 84.0419 223.1 84.0519 223.12Z" fill="#E0E0E0"/>
<path d="M84.582 233.02C83.5937 233.238 82.5911 233.385 81.582 233.46C79.177 233.7 76.7999 234.165 74.482 234.85C72.1905 235.601 70.0408 236.73 68.122 238.19C66.652 239.32 65.962 240.26 65.892 240.19C66.0023 239.939 66.1544 239.709 66.342 239.51C66.807 238.926 67.3297 238.39 67.902 237.91C69.7964 236.331 71.9756 235.129 74.322 234.37C76.6723 233.673 79.0947 233.247 81.542 233.1C82.5508 232.981 83.5683 232.954 84.582 233.02Z" fill="#E0E0E0"/>
<path d="M66.7819 239.12C66.6219 239.03 67.9719 236.97 69.0219 234.2C70.0719 231.43 70.2319 228.95 70.4119 228.97C70.4824 229.506 70.4655 230.05 70.3619 230.58C70.211 231.869 69.9159 233.137 69.4819 234.36C69.03 235.575 68.4501 236.738 67.7519 237.83C67.497 238.307 67.1698 238.743 66.7819 239.12Z" fill="#E0E0E0"/>
<path d="M92.8019 196.53C92.6562 196.641 92.4943 196.728 92.3219 196.79L90.9219 197.43C90.3019 197.69 89.5519 198.03 88.7119 198.43C87.8719 198.83 86.8819 199.32 85.8519 199.93L84.2219 200.86C83.6519 201.19 83.0919 201.58 82.4919 201.95C81.2919 202.68 80.0819 203.58 78.8019 204.5C73.2833 208.6 68.4731 213.576 64.5619 219.23C63.6819 220.55 62.8219 221.79 62.1419 223.01C61.7819 223.62 61.4219 224.2 61.1419 224.77L60.2719 226.44C59.6919 227.44 59.2719 228.49 58.8619 229.35C58.4519 230.21 58.1419 230.96 57.8619 231.59C57.5819 232.22 57.4219 232.64 57.2719 233.02C57.2054 233.186 57.1251 233.347 57.0319 233.5C57.0549 233.321 57.102 233.146 57.1719 232.98C57.3019 232.6 57.4719 232.11 57.6819 231.52C57.939 230.745 58.236 229.984 58.5719 229.24C58.9519 228.36 59.3519 227.34 59.9219 226.24L60.7619 224.55C61.0619 223.97 61.4219 223.38 61.7619 222.77C62.4419 221.52 63.2919 220.27 64.1619 218.93C68.0666 213.207 72.9156 208.188 78.5019 204.09C79.8119 203.18 81.0319 202.28 82.2519 201.56C82.8619 201.19 83.4319 200.81 84.0019 200.49L85.6619 199.59C86.6619 198.99 87.6619 198.59 88.5719 198.14C89.4819 197.69 90.1919 197.41 90.8219 197.14L92.2719 196.59C92.446 196.552 92.6236 196.531 92.8019 196.53V196.53Z" fill="#E0E0E0"/>
<path d="M71.4119 210.86C71.6199 210.171 72.0312 209.561 72.5919 209.11C73.9114 207.969 75.5881 207.325 77.3319 207.29C79.0481 207.292 80.747 207.632 82.3319 208.29C82.9979 208.504 83.6307 208.811 84.2119 209.2C83.5289 209.068 82.8595 208.874 82.2119 208.62C80.6468 208.088 79.0052 207.814 77.3519 207.81C75.7141 207.844 74.1301 208.401 72.8319 209.4C72.3269 209.855 71.8525 210.343 71.4119 210.86V210.86Z" fill="#E0E0E0"/>
<path d="M68.2219 214.16C69.6364 211.399 69.9921 208.215 69.2219 205.21C69.5067 205.587 69.6986 206.025 69.7819 206.49C70.3539 208.696 70.0792 211.036 69.0119 213.05C68.6519 213.81 68.2719 214.2 68.2219 214.16Z" fill="#E0E0E0"/>
<path d="M33.392 258.6C34.132 271.67 38.072 284.98 44.132 298.42H70.492C76.272 285.11 79.942 271.83 80.592 258.6H33.392Z" fill="#E0E0E0"/>
<path d="M76.3219 279.71C76.3219 279.85 67.6419 279.96 56.9419 279.96C46.2419 279.96 37.5519 279.85 37.5519 279.71C37.5519 279.57 46.2319 279.46 56.9419 279.46C67.6519 279.46 76.3219 279.6 76.3219 279.71Z" fill="#FAFAFA"/>
<path d="M75.732 284.45C75.732 284.58 67.602 284.69 57.562 284.69C47.522 284.69 39.392 284.58 39.392 284.45C39.392 284.32 47.522 284.2 57.562 284.2C67.602 284.2 75.732 284.31 75.732 284.45Z" fill="#FAFAFA"/>
<path d="M44.5619 267.13C44.882 271.174 44.882 275.236 44.5619 279.28C44.2286 275.237 44.2286 271.173 44.5619 267.13V267.13Z" fill="#FAFAFA"/>
<path d="M58.6519 267.13C58.9853 271.317 58.9853 275.523 58.6519 279.71C58.3186 275.523 58.3186 271.317 58.6519 267.13V267.13Z" fill="#FAFAFA"/>
<path d="M71.942 267.03C72.1926 269.157 72.2762 271.3 72.192 273.44C72.2762 275.58 72.1926 277.723 71.942 279.85C71.6914 277.723 71.6078 275.58 71.692 273.44C71.6078 271.3 71.6914 269.157 71.942 267.03V267.03Z" fill="#FAFAFA"/>
<path d="M79.7619 267.13C79.7619 267.27 69.5819 267.38 57.0219 267.38C44.4619 267.38 34.2919 267.27 34.2919 267.13C34.2919 266.99 44.4619 266.89 57.0219 266.89C69.5819 266.89 79.7619 267 79.7619 267.13Z" fill="#FAFAFA"/>
<path d="M396.282 138.59H329.392V208.31H396.282V138.59Z" fill="#E0E0E0"/>
<path d="M391.752 138.59H324.862V208.31H391.752V138.59Z" fill="#F5F5F5"/>
<path d="M391.812 208.34H324.812V138.6H391.812V208.34ZM324.932 208.34H391.772V138.6H324.892L324.932 208.34Z" fill="#E0E0E0"/>
<path d="M382.762 147.97H333.862V198.95H382.762V147.97Z" fill="white"/>
<path d="M333.862 199.28C333.511 199.792 333.105 200.265 332.652 200.69C331.872 201.51 330.772 202.63 329.542 203.84C328.312 205.05 327.182 206.13 326.352 206.9C325.924 207.342 325.448 207.734 324.932 208.07C325.277 207.562 325.68 207.096 326.132 206.68C326.912 205.85 328.012 204.68 329.252 203.52C330.492 202.36 331.612 201.22 332.452 200.45C332.876 200.007 333.349 199.615 333.862 199.28V199.28Z" fill="#E0E0E0"/>
<path d="M382.812 199.16C383.324 199.503 383.794 199.906 384.212 200.36C385.042 201.15 386.152 202.24 387.362 203.47C388.572 204.7 389.662 205.83 390.422 206.67C390.869 207.092 391.265 207.565 391.602 208.08C391.092 207.733 390.622 207.331 390.202 206.88C389.382 206.1 388.262 205 387.042 203.77C385.822 202.54 384.752 201.4 383.982 200.56C383.534 200.145 383.14 199.675 382.812 199.16V199.16Z" fill="#E0E0E0"/>
<path d="M382.632 148.1C382.975 147.588 383.378 147.118 383.832 146.7C384.612 145.88 385.712 144.76 386.942 143.55C388.172 142.34 389.302 141.26 390.142 140.49C390.564 140.043 391.037 139.646 391.552 139.31C391.212 139.825 390.808 140.295 390.352 140.71C389.572 141.53 388.472 142.65 387.232 143.87C385.992 145.09 384.872 146.16 384.032 146.93C383.615 147.376 383.145 147.768 382.632 148.1Z" fill="#E0E0E0"/>
<path d="M333.722 148.23C333.211 147.881 332.742 147.475 332.322 147.02C331.492 146.24 330.382 145.14 329.172 143.91C327.962 142.68 326.882 141.55 326.112 140.72C325.663 140.296 325.266 139.819 324.932 139.3C325.444 139.643 325.914 140.046 326.332 140.5C327.152 141.29 328.272 142.39 329.492 143.62C330.712 144.85 331.782 145.99 332.552 146.82C333.002 147.237 333.395 147.711 333.722 148.23V148.23Z" fill="#E0E0E0"/>
<path d="M382.632 198.94C382.623 198.86 382.623 198.78 382.632 198.7C382.632 198.52 382.632 198.29 382.632 197.98C382.632 197.35 382.632 196.43 382.632 195.23C382.632 192.82 382.632 189.3 382.632 184.84C382.632 175.91 382.582 163.2 382.542 147.97L382.732 148.16H333.962L334.172 147.95C334.172 166.66 334.172 184.16 334.172 198.95L333.992 198.77L369.302 198.86L379.222 198.91H381.842H379.252H369.382L333.952 199.01H333.762V198.82C333.762 184.06 333.762 166.56 333.762 147.82V147.6H333.982H382.752H382.812V147.79C382.812 163.07 382.742 175.79 382.722 184.79C382.722 189.24 382.722 192.74 382.722 195.14C382.722 196.32 382.722 197.23 382.722 197.86C382.722 198.15 382.722 198.38 382.722 198.55C382.722 198.72 382.632 198.95 382.632 198.94Z" fill="#E0E0E0"/>
<path d="M366.472 165.3H350.152V181.62H366.472V165.3Z" fill="#E0E0E0"/>
<path d="M359.192 391.61V423.24H405.442H456.462V391.61H359.192Z" fill="#F5F5F5"/>
<path d="M355.112 382.77V391.61H459.872V382.77H405.442H355.112Z" fill="#E0E0E0"/>
<path d="M407.492 423.24H456.462V391.61H459.872V382.77H405.442V390.79L407.492 423.24Z" fill="#E0E0E0"/>
<path d="M392.522 396.71H372.792V401.47H392.522V396.71Z" fill="#E0E0E0"/>
<path d="M395.582 407.43H370.252V417.48H395.582V407.43Z" fill="white"/>
<path d="M374.152 351.18V382.81H420.412H471.432V351.18H374.152Z" fill="#F5F5F5"/>
<path d="M370.072 342.33V351.18H474.832V342.33H420.412H370.072Z" fill="#EBEBEB"/>
<path d="M422.452 382.81H471.432V351.18H474.832V342.33H420.412V350.36L422.452 382.81Z" fill="#EBEBEB"/>
<path d="M407.492 356.28H387.762V361.04H407.492V356.28Z" fill="#E0E0E0"/>
<path d="M410.552 366.99H385.222V377.04H410.552V366.99Z" fill="white"/>
<path d="M655.752 423.24C655.752 423.38 513.752 423.5 338.572 423.5C163.392 423.5 21.3619 423.38 21.3619 423.24C21.3619 423.1 163.362 422.98 338.572 422.98C513.782 422.98 655.752 423.14 655.752 423.24Z" fill="#263238"/>
<path d="M139.322 154.41C138.783 152.799 137.768 151.39 136.411 150.369C135.054 149.348 133.419 148.762 131.722 148.69C132.602 146.22 130.912 143.37 128.512 142.33C127.281 141.885 125.969 141.703 124.663 141.798C123.357 141.893 122.086 142.262 120.932 142.88C119.262 143.67 117.702 144.77 115.932 145.18C113.562 145.72 111.112 144.97 108.692 144.89C106.208 144.843 103.76 145.479 101.613 146.729C99.467 147.98 97.7057 149.796 96.5219 151.98C95.7119 153.51 95.2119 155.2 94.3219 156.69C93.6019 157.88 92.6619 158.92 91.9519 160.12C90.9606 161.877 90.5096 163.887 90.6554 165.899C90.8013 167.911 91.5375 169.835 92.7719 171.43L126.862 163.6C128.263 164.569 129.932 165.076 131.635 165.051C133.338 165.026 134.992 164.47 136.364 163.461C137.736 162.451 138.758 161.038 139.289 159.419C139.819 157.8 139.831 156.056 139.322 154.43V154.41Z" fill="#263238"/>
<path d="M217.852 279.93L184.982 276.67L183.082 293.74L220.202 292.45L217.852 279.93Z" fill="#FFBF9D"/>
<path d="M242.822 289.93C242.613 290.226 242.321 290.454 241.983 290.585C241.645 290.717 241.276 290.746 240.922 290.67C240.77 290.629 240.622 290.572 240.482 290.5C239.482 290.01 239.932 287.92 239.932 287.92L235.112 286.34C235.112 286.34 228.032 289.46 225.312 291.85C222.592 294.24 217.112 291.09 217.112 291.09L216.752 280.23L227.152 273.44C227.152 273.44 226.512 273.85 227.382 272.44C228.252 271.03 231.022 272.03 231.022 272.03C231.592 271.34 233.502 271.36 233.502 271.36L241.332 273.54C242.13 273.761 242.868 274.159 243.491 274.705C244.114 275.25 244.607 275.929 244.932 276.69L247.462 282.56C247.462 282.56 248.642 286.69 248.212 287.56C248.03 287.91 247.725 288.18 247.356 288.32C246.988 288.46 246.581 288.46 246.212 288.32C246.212 288.32 245.412 290.78 244.742 290.77C244.065 290.627 243.421 290.359 242.842 289.98L242.822 289.93Z" fill="#FFBF9D"/>
<path d="M227.322 290.43C227.51 290.35 227.691 290.253 227.862 290.14L229.362 289.28C231.246 288.237 233.189 287.305 235.182 286.49H235.062L239.872 288.11L239.732 287.87C239.658 288.276 239.624 288.688 239.632 289.1C239.628 289.55 239.756 289.992 240.002 290.37C240.161 290.563 240.373 290.706 240.612 290.78C240.83 290.876 241.064 290.927 241.302 290.93C241.793 290.931 242.267 290.757 242.642 290.44C242.736 290.361 242.823 290.274 242.902 290.18L242.962 290.11L242.652 290.17L242.802 290.26C242.995 290.382 243.196 290.492 243.402 290.59C243.611 290.696 243.829 290.786 244.052 290.86C244.168 290.905 244.289 290.939 244.412 290.96C244.565 291.005 244.728 291.005 244.882 290.96C245.127 290.823 245.331 290.623 245.472 290.38C245.602 290.174 245.719 289.961 245.822 289.74C246.029 289.301 246.209 288.85 246.362 288.39L246.042 288.54C246.365 288.667 246.716 288.704 247.058 288.646C247.4 288.588 247.719 288.437 247.982 288.21C248.253 287.964 248.43 287.632 248.482 287.27C248.518 286.938 248.518 286.602 248.482 286.27C248.305 284.996 248.038 283.736 247.682 282.5V282.5L246.332 279.37L245.482 277.37C245.22 276.686 244.884 276.032 244.482 275.42C244.055 274.826 243.51 274.325 242.882 273.95C242.256 273.604 241.582 273.354 240.882 273.21L233.492 271.21H233.432C232.972 271.215 232.513 271.262 232.062 271.35C231.58 271.414 231.131 271.632 230.782 271.97H231.072C230.696 271.719 230.264 271.565 229.814 271.519C229.364 271.474 228.911 271.54 228.492 271.71C227.748 272.09 227.178 272.741 226.902 273.53L226.982 273.43L219.812 278.08L217.882 279.37C217.651 279.514 217.43 279.674 217.222 279.85C217.474 279.744 217.715 279.613 217.942 279.46L219.942 278.26L227.192 273.76V273.7C227.439 273.017 227.936 272.452 228.582 272.12C228.939 271.984 229.323 271.935 229.702 271.979C230.082 272.022 230.445 272.156 230.762 272.37L230.922 272.47L231.052 272.33C231.333 272.081 231.68 271.921 232.052 271.87C232.47 271.789 232.896 271.749 233.322 271.75V271.75L240.692 273.83C241.34 273.966 241.963 274.199 242.542 274.52C243.109 274.863 243.599 275.319 243.982 275.86C244.358 276.44 244.666 277.06 244.902 277.71C245.192 278.37 245.472 279.03 245.762 279.71L247.112 282.84C247.463 284.05 247.727 285.283 247.902 286.53C247.931 286.819 247.931 287.111 247.902 287.4C247.866 287.646 247.746 287.873 247.562 288.04C247.367 288.204 247.131 288.312 246.88 288.355C246.628 288.397 246.37 288.371 246.132 288.28L245.892 288.2L245.812 288.43C245.673 288.872 245.503 289.303 245.302 289.72C245.162 290.105 244.929 290.449 244.622 290.72C244.552 290.729 244.482 290.729 244.412 290.72L244.122 290.64C243.922 290.57 243.722 290.48 243.522 290.39C243.327 290.297 243.136 290.193 242.952 290.08L242.812 290L242.502 290.06V290.12C242.437 290.192 242.367 290.258 242.292 290.32C242.013 290.561 241.66 290.698 241.292 290.71C241.106 290.709 240.923 290.672 240.752 290.6C240.585 290.561 240.437 290.465 240.332 290.33C240.002 289.667 239.924 288.906 240.112 288.19V288L239.942 287.95L235.122 286.39H235.062H235.002C233.011 287.239 231.08 288.221 229.222 289.33C228.572 289.72 228.082 290.04 227.752 290.27C227.605 290.313 227.461 290.367 227.322 290.43Z" fill="#FF9A6C"/>
<path d="M231.932 275.03C232.689 275.525 233.51 275.915 234.372 276.19C236.466 276.979 238.655 277.49 240.882 277.71L240.642 277.49C240.722 277.91 240.792 278.34 240.902 278.78C241.469 281.261 242.508 283.61 243.962 285.7C244.4 286.326 244.881 286.921 245.402 287.48C245.772 287.88 246.002 288.07 246.032 288.05C246.062 288.03 245.292 287.1 244.272 285.49C242.944 283.39 241.981 281.081 241.422 278.66C241.322 278.24 241.242 277.81 241.172 277.41V277.2H240.972C238.784 276.986 236.625 276.54 234.532 275.87C233.682 275.54 232.814 275.26 231.932 275.03V275.03Z" fill="#FF9A6C"/>
<path d="M238.772 280.87C239 284.225 240.52 287.362 243.012 289.62C243.142 289.51 241.682 287.85 240.522 285.43C239.362 283.01 238.932 280.84 238.772 280.87Z" fill="#FF9A6C"/>
<path d="M216.042 287.6C216.042 287.6 216.112 287.68 216.272 287.79C216.51 287.948 216.757 288.092 217.012 288.22C217.981 288.693 219.028 288.984 220.102 289.08C221.751 289.23 223.409 288.907 224.882 288.15C226.76 287.188 228.248 285.605 229.092 283.67L228.772 283.82C230.616 284.484 232.546 284.881 234.502 285C235.228 285.04 235.956 285.04 236.682 285C237.41 285.002 238.133 284.883 238.822 284.65C239.207 284.521 239.531 284.254 239.732 283.9C239.817 283.718 239.865 283.521 239.873 283.32C239.882 283.119 239.851 282.919 239.782 282.73C239.64 282.356 239.356 282.054 238.992 281.89L238.112 281.51C235.782 280.51 233.632 279.78 231.822 279.19C230.012 278.6 228.512 278.19 227.482 277.93C226.952 277.763 226.405 277.652 225.852 277.6C226.364 277.808 226.888 277.985 227.422 278.13C228.422 278.45 229.902 278.92 231.702 279.55C233.502 280.18 235.612 280.98 237.922 281.97L238.792 282.35C239.027 282.46 239.21 282.657 239.302 282.9C239.353 283.022 239.379 283.153 239.379 283.285C239.379 283.417 239.353 283.548 239.302 283.67C239.155 283.912 238.923 284.09 238.652 284.17C238.006 284.38 237.331 284.481 236.652 284.47C235.952 284.47 235.242 284.47 234.522 284.47C232.615 284.353 230.733 283.969 228.932 283.33L228.702 283.25L228.612 283.47C227.809 285.318 226.397 286.836 224.612 287.77C223.214 288.511 221.641 288.856 220.062 288.77C219.03 288.703 218.017 288.467 217.062 288.07C216.402 287.81 216.062 287.6 216.042 287.6Z" fill="#FF9A6C"/>
<path d="M111.232 237.69C107.332 237.604 103.62 235.992 100.895 233.201C98.1689 230.41 96.6457 226.661 96.6519 222.76L96.0319 173.25C95.4519 159.96 102.492 148.53 115.422 148.31H116.622C128.672 148.82 138.312 158.75 138.782 171.14C139.222 182.67 139.692 193.8 139.372 199.96C138.702 212.72 126.092 213.96 126.092 213.96C126.092 213.96 126.092 218.71 126.092 222.46C126.125 224.432 125.766 226.391 125.037 228.224C124.308 230.057 123.222 231.726 121.842 233.137C120.463 234.547 118.818 235.669 117.001 236.438C115.185 237.208 113.234 237.61 111.262 237.62L111.232 237.69Z" fill="#FFBF9D"/>
<path d="M126.092 214.11C120.341 213.847 114.795 211.9 110.142 208.51C110.142 208.51 113.642 218.27 126.062 217.64L126.092 214.11Z" fill="#FF9A6C"/>
<path d="M134.212 182.53C134.199 182.997 134.007 183.441 133.676 183.771C133.345 184.1 132.899 184.29 132.432 184.3C132.203 184.308 131.974 184.27 131.76 184.188C131.546 184.107 131.35 183.983 131.184 183.825C131.018 183.666 130.886 183.476 130.794 183.266C130.703 183.056 130.654 182.829 130.652 182.6C130.657 182.13 130.847 181.682 131.18 181.351C131.513 181.02 131.962 180.833 132.432 180.83C132.661 180.823 132.889 180.862 133.102 180.944C133.316 181.026 133.511 181.15 133.677 181.308C133.843 181.466 133.975 181.656 134.067 181.865C134.159 182.075 134.208 182.301 134.212 182.53V182.53Z" fill="#263238"/>
<path d="M135.922 176.71C135.692 176.94 134.392 175.86 132.482 175.79C130.572 175.72 129.142 176.63 128.942 176.38C128.742 176.13 129.092 175.85 129.712 175.38C130.558 174.831 131.555 174.562 132.562 174.61C133.553 174.638 134.508 174.989 135.282 175.61C135.852 176.17 136.032 176.6 135.922 176.71Z" fill="#263238"/>
<path d="M116.902 182.53C116.894 182.999 116.704 183.446 116.371 183.776C116.039 184.107 115.591 184.295 115.122 184.3C114.893 184.304 114.666 184.262 114.453 184.178C114.24 184.093 114.046 183.967 113.883 183.808C113.719 183.648 113.589 183.457 113.499 183.246C113.41 183.035 113.363 182.809 113.362 182.58C113.37 182.111 113.56 181.664 113.892 181.333C114.225 181.003 114.673 180.815 115.142 180.81C115.371 180.805 115.599 180.845 115.812 180.929C116.026 181.013 116.22 181.139 116.384 181.299C116.548 181.46 116.678 181.651 116.767 181.862C116.856 182.074 116.902 182.301 116.902 182.53V182.53Z" fill="#263238"/>
<path d="M117.222 176.37C116.992 176.6 115.682 175.52 113.782 175.45C111.882 175.38 110.442 176.29 110.242 176.04C110.042 175.79 110.382 175.51 111.012 175.04C111.858 174.491 112.855 174.222 113.862 174.27C114.853 174.302 115.807 174.652 116.582 175.27C117.142 175.83 117.332 176.27 117.222 176.37Z" fill="#263238"/>
<path d="M123.452 191.73C124.469 191.451 125.517 191.303 126.572 191.29C127.062 191.29 127.572 191.18 127.622 190.84C127.681 190.324 127.587 189.803 127.352 189.34C126.942 188.11 126.512 186.82 126.072 185.47C124.282 179.95 123.072 175.47 123.232 175.36C123.392 175.25 125.072 179.69 126.852 185.21C127.282 186.57 127.692 187.86 128.072 189.1C128.366 189.725 128.429 190.433 128.252 191.1C128.175 191.271 128.06 191.421 127.917 191.541C127.773 191.66 127.604 191.746 127.422 191.79C127.15 191.855 126.871 191.886 126.592 191.88C125.543 191.963 124.488 191.913 123.452 191.73V191.73Z" fill="#263238"/>
<path d="M118.082 170.27C117.802 170.76 115.972 170.15 113.722 170.01C111.472 169.87 109.582 170.14 109.372 169.61C109.282 169.36 109.682 168.93 110.492 168.61C111.554 168.158 112.711 167.972 113.862 168.07C115.013 168.136 116.132 168.479 117.122 169.07C117.872 169.54 118.202 170.03 118.082 170.27Z" fill="#263238"/>
<path d="M136.242 170.95C135.832 171.39 134.242 170.88 132.422 170.81C130.602 170.74 128.972 171.02 128.622 170.54C128.462 170.31 128.722 169.87 129.422 169.47C130.387 168.986 131.462 168.762 132.541 168.82C133.619 168.878 134.664 169.216 135.572 169.8C136.212 170.27 136.422 170.74 136.242 170.95Z" fill="#263238"/>
<path d="M96.6519 182.74C96.4419 182.64 88.2319 179.79 88.1519 188.52C88.0719 197.25 96.6119 195.52 96.6319 195.29C96.6519 195.06 96.6519 182.74 96.6519 182.74Z" fill="#FFBF9D"/>
<path d="M94.0819 191.95C94.0819 191.95 93.9319 192.06 93.6819 192.17C93.5061 192.243 93.3175 192.281 93.1269 192.281C92.9364 192.281 92.7477 192.243 92.5719 192.17C91.6819 191.82 90.9319 190.35 90.9119 188.77C90.8914 188.024 91.0384 187.282 91.3419 186.6C91.4212 186.331 91.5644 186.084 91.7594 185.882C91.9545 185.68 92.1955 185.529 92.4619 185.44C92.6344 185.395 92.8174 185.413 92.9772 185.492C93.1371 185.571 93.263 185.706 93.3319 185.87C93.4519 186.11 93.3919 186.29 93.4419 186.3C93.4919 186.31 93.6219 186.16 93.5519 185.8C93.5132 185.582 93.3957 185.387 93.2219 185.25C93.1117 185.155 92.9822 185.085 92.8423 185.046C92.7024 185.006 92.5555 184.997 92.4119 185.02C92.0595 185.089 91.7309 185.248 91.4576 185.481C91.1844 185.714 90.9758 186.013 90.8519 186.35C90.485 187.107 90.3033 187.939 90.3219 188.78C90.3219 190.54 91.2219 192.2 92.4419 192.58C92.6689 192.648 92.9084 192.664 93.1423 192.626C93.3762 192.588 93.5984 192.497 93.7919 192.36C94.0619 192.16 94.1119 191.97 94.0819 191.95Z" fill="#FF9A6C"/>
<path d="M102.752 160.94C102.95 159.823 103.45 158.782 104.197 157.929C104.945 157.076 105.911 156.444 106.992 156.1C108.855 155.473 110.875 155.498 112.722 156.17C117.512 157.91 125.722 160.52 127.812 158.85C130.872 156.45 131.612 154.85 131.612 154.85L133.302 156.69C134.672 155.91 130.552 151.33 127.172 149.75C122.072 147.37 114.282 145.9 109.572 147.27C103.902 148.92 99.192 151.81 96.342 157.12C93.597 162.541 92.3049 168.581 92.592 174.65C92.592 176.5 92.302 181.8 94.082 182.21C95.472 182.52 97.242 183.14 97.142 185.8C97.0726 186.771 97.3888 187.73 98.022 188.47C99.572 190.17 101.472 188.57 102.352 186.97C104.222 183.55 104.432 179.47 104.592 175.55C104.858 172.769 104.679 169.964 104.062 167.24C103.417 165.507 102.958 163.71 102.692 161.88C102.679 161.565 102.699 161.25 102.752 160.94V160.94Z" fill="#263238"/>
<path d="M123.782 196.45C123.832 196.58 123.442 196.91 122.652 197.08C121.604 197.289 120.516 197.119 119.582 196.6C118.645 196.091 117.91 195.275 117.502 194.29C117.202 193.54 117.252 193.04 117.392 193C117.532 192.96 118.322 194.66 120.112 195.63C121.902 196.6 123.702 196.16 123.782 196.45Z" fill="#263238"/>
<path d="M132.652 312.95L92.0319 304.01L65.9219 239.32C65.9219 239.32 31.0319 247.06 25.2819 266.6C20.2819 283.45 10.0219 357.93 33.3819 403.84C36.3586 409.623 40.8757 414.472 46.4345 417.849C51.9933 421.227 58.3775 423.002 64.8819 422.98H242.652C253.491 422.981 263.95 418.988 272.03 411.764C280.11 404.54 285.244 394.591 286.452 383.82C287.452 374.82 288.152 366.29 288.012 360.73L259.472 338.83L132.652 312.95Z" fill="#455A64"/>
<g opacity="0.3">
<path opacity="0.3" d="M241.252 335.45C253.762 351.79 268.982 366.45 287.182 376.07L288.052 353.89L254.432 329.96L241.252 335.45Z" fill="black"/>
</g>
<path d="M107.082 226.74C107.082 227.92 116.322 231.74 120.492 230.06C126.852 227.52 126.062 222.53 126.062 222.53L129.592 226.25L164.962 280.15L191.252 297.5L149.172 310.83L105.052 260.15L107.082 226.74Z" fill="#F5F5F5"/>
<path d="M95.9319 208.65L95.0019 210.39L90.8019 218.22L73.3319 229.36L109.262 272.07L125.652 310.83L164.952 323.13C164.952 323.13 146.252 294.38 140.442 279.68C134.632 264.98 134.042 265.68 128.742 254.9C125.139 247.305 121.935 239.528 119.142 231.6L95.9319 208.65Z" fill="#233564"/>
<path d="M180.112 285.6L187.822 292.79L190.002 297.23L161.342 283.9L140.652 254.9C140.652 254.9 133.282 238.55 130.752 232.69C128.082 226.53 126.092 223.04 126.092 223.04V218.18L136.522 227.6L145.232 230.19L159.792 253.19L180.112 285.6Z" fill="#233564"/>
<path d="M171.282 258.48C171.282 258.48 167.802 251.06 164.962 244.89C158.562 230.99 143.472 229.67 143.472 229.67L160.152 275.93L180.582 290.42C180.582 290.42 186.402 292.42 187.132 290.42C187.132 290.42 191.382 275.08 191.252 275.02C191.122 274.96 176.712 270.65 176.712 270.65L170.912 257.65" fill="#233564"/>
<path d="M202.012 244.04L182.162 277.11L202.952 276.5L221.282 245.86C221.443 245.591 221.53 245.285 221.534 244.971C221.537 244.658 221.458 244.349 221.303 244.077C221.149 243.804 220.925 243.578 220.654 243.42C220.383 243.262 220.075 243.18 219.762 243.18H203.532C203.226 243.18 202.925 243.259 202.658 243.409C202.392 243.56 202.169 243.777 202.012 244.04Z" fill="#263238"/>
<path d="M125.652 281.44L175.342 275.53L183.692 260.9L190.232 257.31C190.774 257.01 191.391 256.872 192.009 256.911C192.627 256.95 193.222 257.164 193.722 257.53L194.342 257.98L199.192 257.37C200.019 257.262 200.858 257.427 201.582 257.84L205.022 259.84C205.27 259.985 205.476 260.193 205.619 260.442C205.763 260.691 205.84 260.973 205.842 261.26V261.26C205.842 261.502 205.788 261.741 205.685 261.96C205.582 262.179 205.432 262.372 205.246 262.527C205.06 262.681 204.842 262.793 204.608 262.854C204.374 262.915 204.13 262.924 203.892 262.88L200.552 262.27L195.432 263.94C195.432 263.94 198.732 264.29 199.152 266.79C199.572 269.29 197.902 269.35 197.902 269.35C197.902 269.35 201.372 271.35 198.902 274.35C198.902 274.35 201.802 276.28 198.552 279.94C196.362 282.42 180.552 290.5 180.552 290.5L125.652 310.83V281.44Z" fill="#FFBF9D"/>
<path d="M198.822 274.33C198.822 274.33 199.192 274.33 199.632 274.78C199.918 275.111 200.116 275.509 200.209 275.937C200.302 276.365 200.285 276.81 200.162 277.23C199.727 278.419 198.99 279.474 198.022 280.29C196.942 281.347 195.775 282.311 194.532 283.17C192.261 284.692 189.862 286.014 187.362 287.12C186.36 287.639 185.312 288.065 184.232 288.39C185.195 287.79 186.197 287.255 187.232 286.79C189.655 285.601 191.994 284.248 194.232 282.74C195.457 281.899 196.614 280.963 197.692 279.94C198.62 279.195 199.346 278.229 199.802 277.13C199.928 276.761 199.965 276.367 199.91 275.981C199.854 275.595 199.707 275.228 199.482 274.91C199.29 274.687 199.068 274.492 198.822 274.33V274.33Z" fill="#FF9A6C"/>
<path d="M194.162 258.11C193.403 258.579 192.561 258.898 191.682 259.05C190.845 259.363 189.955 259.512 189.062 259.49C189.819 259.018 190.662 258.698 191.542 258.55C192.379 258.237 193.268 258.088 194.162 258.11V258.11Z" fill="#FF9A6C"/>
<path d="M200.562 262.23C199.48 262.855 198.32 263.333 197.112 263.65C195.953 264.123 194.735 264.436 193.492 264.58C194.569 263.945 195.73 263.467 196.942 263.16C198.099 262.682 199.318 262.369 200.562 262.23V262.23Z" fill="#FF9A6C"/>
<path d="M194.652 268.86C194.502 268.86 194.432 268.41 194.262 267.92C194.092 267.43 193.892 267.05 194.002 266.92C194.112 266.79 194.552 267.12 194.752 267.73C194.952 268.34 194.742 268.88 194.652 268.86Z" fill="#FF9A6C"/>
<path d="M196.302 274.6C196.152 274.6 196.212 273.85 196.002 273.04C195.792 272.23 195.432 271.61 195.542 271.51C195.652 271.41 196.272 271.95 196.542 272.91C196.812 273.87 196.432 274.6 196.302 274.6Z" fill="#FF9A6C"/>
<path d="M74.7319 228.47C73.0719 229.47 59.0219 239.07 61.0719 254.79C63.1219 270.51 94.2219 306.05 100.712 306.73L125.662 310.83V281.44L113.662 280.76L97.9819 250L74.7319 228.47Z" fill="#233564"/>
<path d="M125.652 280.02C125.358 280.074 125.06 280.101 124.762 280.1L122.242 280.2L113.302 280.4H113.182L113.102 280.3L106.782 271.8C103.012 266.71 99.6319 262.08 97.2019 258.71L94.3519 254.71C93.9775 254.232 93.643 253.723 93.3519 253.19C93.7742 253.622 94.1621 254.087 94.5119 254.58L97.5119 258.48C100.022 261.78 103.512 266.38 107.222 271.48L113.492 280.01L113.292 279.91H122.232H124.752C125.055 279.909 125.358 279.946 125.652 280.02Z" fill="#263238"/>
<path d="M119.592 235.44C119.404 235.158 119.24 234.86 119.102 234.55L117.872 231.97H118.142C117.234 233.29 116.429 234.677 115.732 236.12C114.85 238.04 113.803 239.881 112.602 241.62L112.402 241.9L112.192 241.63C110.572 239.63 108.722 237.52 106.732 235.35C102.382 230.62 98.2219 226.52 95.2519 223.52L91.7419 219.95C91.2982 219.531 90.8902 219.076 90.5219 218.59C91.0121 218.957 91.4735 219.362 91.9019 219.8L95.5319 223.24C98.5319 226.17 102.782 230.24 107.152 234.97C109.152 237.15 110.992 239.29 112.602 241.3H112.182C113.376 239.586 114.432 237.78 115.342 235.9C116.07 234.452 116.924 233.07 117.892 231.77L118.052 231.55L118.152 231.79C118.602 232.87 118.972 233.74 119.252 234.43C119.408 234.751 119.522 235.09 119.592 235.44Z" fill="#263238"/>
<path d="M136.652 227.92C136.985 228.366 137.239 228.867 137.402 229.4C137.914 230.751 138.352 232.13 138.712 233.53L139.052 234.75L138.272 233.75C137.156 232.366 135.932 231.071 134.612 229.88C133.452 228.82 132.322 227.88 131.292 226.94L131.712 226.78C131.567 228.419 131.517 230.065 131.562 231.71C131.6 232.363 131.515 233.018 131.312 233.64C131.252 233.64 131.312 232.93 131.242 231.72C131.112 230.056 131.112 228.384 131.242 226.72L131.292 226.25L131.662 226.56C132.662 227.43 133.862 228.4 135.032 229.48C136.379 230.697 137.611 232.036 138.712 233.48L138.272 233.69C137.842 231.96 137.492 230.52 137.172 229.53C136.96 229.006 136.787 228.468 136.652 227.92Z" fill="#263238"/>
<path d="M172.742 275.84C172.316 275.507 171.918 275.139 171.552 274.74L168.482 271.6C167.192 270.25 165.662 268.74 163.982 266.87C163.212 265.87 162.532 264.8 161.732 263.75C160.92 262.615 160.223 261.403 159.652 260.13C158.462 257.55 157.562 255 156.752 252.69C155.942 250.38 155.232 248.29 154.582 246.57C153.932 244.85 153.332 243.47 152.872 242.57C152.601 242.106 152.36 241.625 152.152 241.13C152.152 241.13 152.262 241.23 152.412 241.45C152.649 241.77 152.866 242.104 153.062 242.45C153.779 243.74 154.411 245.077 154.952 246.45C155.662 248.17 156.412 250.24 157.242 252.54C158.072 254.84 158.982 257.37 160.162 259.92C160.716 261.157 161.385 262.339 162.162 263.45C162.972 264.52 163.652 265.63 164.382 266.58C165.952 268.37 167.522 269.99 168.752 271.35L171.702 274.6C172.083 274.983 172.431 275.398 172.742 275.84Z" fill="#263238"/>
<path d="M187.162 292.43L281.482 289.78C282.976 289.74 284.462 290.016 285.842 290.59C289.272 292.05 295.442 295.8 299.672 304.78C305.802 317.78 334.402 372.78 334.402 372.78L305.482 387.6L270.012 321.8L160.652 312.5L161.922 303.76L187.162 292.43Z" fill="#263238"/>
<path d="M296.892 376.01L311.962 401.88L312.962 408.42C313.107 409.371 313.438 410.284 313.937 411.107C314.435 411.93 315.091 412.647 315.866 413.216C316.642 413.785 317.522 414.196 318.456 414.425C319.391 414.654 320.361 414.696 321.312 414.55L367.182 407.55C367.724 407.478 368.242 407.282 368.697 406.978C369.151 406.674 369.53 406.27 369.803 405.797C370.076 405.323 370.238 404.793 370.274 404.248C370.31 403.702 370.22 403.155 370.012 402.65C369.815 402.202 369.514 401.808 369.136 401.498C368.757 401.189 368.31 400.974 367.832 400.87C363.992 399.87 334.392 389.02 334.392 389.02L322.052 364.26L296.892 376.01Z" fill="#E0E0E0"/>
<path d="M309.522 382C308.263 380.724 307.128 379.331 306.132 377.84C304.986 376.453 303.981 374.956 303.132 373.37C304.386 374.648 305.518 376.041 306.512 377.53C307.659 378.918 308.667 380.415 309.522 382V382Z" fill="#263238"/>
<path d="M318.522 378.38C317.258 377.091 316.193 375.622 315.362 374.02C314.383 372.503 313.628 370.853 313.122 369.12C313.262 369.05 314.322 371.21 315.812 373.76C317.302 376.31 318.652 378.29 318.522 378.38Z" fill="#263238"/>
<path d="M324.812 413.72C324.712 413.72 324.472 412.83 323.812 411.48C322.929 409.729 321.671 408.194 320.128 406.984C318.584 405.774 316.793 404.919 314.882 404.48C313.412 404.13 312.462 404.12 312.462 404.02C313.288 403.832 314.146 403.832 314.972 404.02C316.994 404.36 318.898 405.202 320.511 406.469C322.123 407.735 323.392 409.386 324.202 411.27C324.58 412.033 324.788 412.869 324.812 413.72V413.72Z" fill="#263238"/>
<path d="M355.722 409.27C355.342 408.768 355.091 408.181 354.992 407.56C354.631 406.067 354.707 404.501 355.212 403.05C355.733 401.627 356.547 400.329 357.602 399.24C357.991 398.75 358.474 398.342 359.022 398.04C359.082 398.11 358.612 398.64 357.922 399.52C357.019 400.644 356.297 401.903 355.782 403.25C355.322 404.607 355.195 406.054 355.412 407.47C355.561 408.061 355.665 408.663 355.722 409.27Z" fill="#263238"/>
<path d="M158.282 305.3C158.282 305.3 255.612 295.54 260.342 295.93C269.072 296.65 285.172 310.42 313.742 329.6C328.544 339.659 342.282 351.203 354.742 364.05L345.612 384.89C345.612 384.89 281.612 361.56 271.562 353.17C263.222 346.17 248.002 336.27 248.002 336.27L210.462 336.65L182.552 339.11C175.667 339.719 168.741 338.579 162.415 335.793C156.09 333.008 150.571 328.669 146.372 323.18L135.542 309.03L158.282 305.3Z" fill="#263238"/>
<path d="M247.532 335.98C247.532 335.98 247.692 336.07 247.982 336.27L249.292 337.17L254.342 340.72C258.732 343.85 265.172 348.35 273.072 354.32C273.572 354.69 274.072 355.12 274.572 355.45L276.182 356.45C277.342 357.03 278.502 357.67 279.732 358.24L283.492 359.99L287.492 361.74C292.899 364.08 298.729 366.52 304.982 369.06C317.462 374.13 331.462 379.64 346.572 385.45L346.242 385.6L354.512 364.6L354.572 364.9L343.212 353.32C340.542 351.01 337.682 348.55 334.762 346.12C317.345 331.767 299.129 318.412 280.202 306.12V306.12C277.639 303.926 274.873 301.98 271.942 300.31C269.159 298.689 266.195 297.4 263.112 296.47C262.352 296.27 261.592 296.11 260.842 295.92L258.572 295.57L256.302 295.45H245.302L215.912 295.39L196.832 295.31H191.832H190.532C190.385 295.319 190.238 295.319 190.092 295.31H190.532H191.832H196.832L215.912 295.24L245.302 295.18H256.302L258.612 295.29L260.932 295.64C261.692 295.83 262.462 295.99 263.232 296.2C266.355 297.127 269.356 298.423 272.172 300.06C275.141 301.739 277.941 303.701 280.532 305.92V305.92C299.497 318.195 317.74 331.55 335.172 345.92C338.102 348.35 340.962 350.81 343.632 353.13L354.992 364.72L355.112 364.85L355.052 365.02L346.752 386.02L346.662 386.26L346.422 386.17C331.312 380.34 317.312 374.8 304.842 369.7C298.612 367.15 292.772 364.7 287.372 362.33L283.372 360.56L279.572 358.6C278.352 358.01 277.182 357.37 276.022 356.78L274.372 355.78C273.832 355.45 273.372 355.02 272.872 354.65C265.012 348.65 258.592 344.1 254.242 340.92L249.242 337.31L247.962 336.37C247.652 336.1 247.532 335.98 247.532 335.98Z" fill="#455A64"/>
<path d="M324.912 379.6L351.912 390.21L356.402 395.07C357.056 395.777 357.843 396.348 358.717 396.75C359.592 397.153 360.537 397.379 361.499 397.416C362.461 397.453 363.421 397.3 364.324 396.967C365.227 396.633 366.055 396.124 366.762 395.47L400.822 363.95C401.23 363.586 401.549 363.133 401.755 362.626C401.96 362.119 402.047 361.572 402.009 361.027C401.97 360.481 401.807 359.952 401.532 359.479C401.257 359.007 400.877 358.603 400.422 358.3C400.007 358.042 399.538 357.885 399.052 357.842C398.565 357.798 398.076 357.87 397.622 358.05C393.892 359.39 363.282 366.96 363.282 366.96L342.752 350.6L324.912 379.6Z" fill="#E0E0E0"/>
<path d="M324.912 379.6C324.912 379.6 325.002 379.43 325.202 379.09L326.112 377.59C326.922 376.24 328.112 374.29 329.622 371.79C332.702 366.72 337.142 359.44 342.622 350.5L342.732 350.31L342.912 350.45L363.442 366.77H363.232L381.492 362.17L391.142 359.66C392.772 359.22 394.422 358.79 396.062 358.31L397.282 357.93C397.706 357.767 398.15 357.663 398.602 357.62C399.073 357.601 399.543 357.68 399.982 357.852C400.421 358.024 400.819 358.286 401.152 358.62C401.802 359.271 402.198 360.134 402.266 361.051C402.333 361.969 402.07 362.88 401.522 363.62C401.248 363.982 400.94 364.317 400.602 364.62L399.672 365.48L397.822 367.19L390.562 373.9L376.832 386.58L370.442 392.48L367.382 395.31C366.885 395.791 366.342 396.223 365.762 396.6C364.339 397.474 362.666 397.849 361.006 397.668C359.346 397.487 357.793 396.76 356.592 395.6C354.872 393.81 353.312 392.06 351.782 390.41H351.852C343.522 387.09 336.782 384.41 332.092 382.53L326.772 380.38L325.392 379.82L324.942 379.63C324.942 379.63 325.122 379.68 325.452 379.81L326.862 380.34L332.262 382.42L351.982 390.07C353.522 391.71 355.112 393.47 356.792 395.22C357.694 396.08 358.806 396.689 360.016 396.985C361.227 397.282 362.494 397.256 363.692 396.91C364.316 396.73 364.911 396.464 365.462 396.12C366.016 395.756 366.532 395.337 367.002 394.87C368.002 393.94 369.002 392.99 370.062 392.04C372.129 390.12 374.255 388.147 376.442 386.12C380.802 382.12 385.392 377.82 390.152 373.42C392.525 371.213 394.942 368.973 397.402 366.7L399.252 364.99C399.879 364.446 400.474 363.865 401.032 363.25C401.509 362.61 401.74 361.821 401.685 361.024C401.63 360.228 401.292 359.478 400.732 358.91C400.448 358.629 400.108 358.411 399.734 358.27C399.36 358.129 398.961 358.067 398.562 358.09C398.157 358.131 397.76 358.228 397.382 358.38L396.132 358.76C394.482 359.24 392.842 359.67 391.202 360.11L381.542 362.61L363.282 367.18H363.162L363.072 367.11L342.652 350.75H342.942L329.852 371.81L326.222 377.6L325.222 379.11C325.042 379.41 324.912 379.6 324.912 379.6Z" fill="#263238"/>
<path d="M369.162 392.82C369.092 392.89 368.382 392.27 367.052 391.54C365.341 390.58 363.439 390.01 361.482 389.87C359.526 389.73 357.562 390.024 355.732 390.73C354.322 391.26 353.522 391.78 353.462 391.73C354.059 391.127 354.779 390.66 355.572 390.36C357.437 389.511 359.485 389.143 361.529 389.29C363.573 389.437 365.547 390.093 367.272 391.2C368.016 391.591 368.662 392.145 369.162 392.82Z" fill="#263238"/>
<path d="M392.282 371.83C391.689 371.621 391.152 371.279 390.712 370.83C389.581 369.793 388.772 368.453 388.382 366.97C388.017 365.497 387.962 363.965 388.222 362.47C388.268 361.848 388.441 361.242 388.732 360.69C388.782 361.301 388.755 361.916 388.652 362.52C388.522 363.957 388.627 365.406 388.962 366.81C389.339 368.195 390.046 369.467 391.022 370.52C391.772 371.32 392.342 371.74 392.282 371.83Z" fill="#263238"/>
<path d="M230.982 335.99C228.892 326.08 224.622 315.94 216.172 310.37C209.762 306.13 201.832 305.09 194.172 304.15L34.7119 284.54C33.2819 309.67 44.0419 340.95 55.0219 363.61C56.7219 367.13 58.6919 370.73 61.9519 372.88C65.9519 375.5 71.0319 375.47 75.7919 375.35C129.442 373.98 183.112 371.7 236.462 365.83C233.462 356.16 233.062 345.89 230.982 335.99Z" fill="#455A64"/>
<path d="M93.3819 291.75C92.7531 291.758 92.1246 291.718 91.5019 291.63L86.4019 291.08C82.1019 290.58 76.1719 289.85 69.6319 288.95C63.0919 288.05 57.1719 287.14 52.9119 286.39C50.7719 286.01 49.0519 285.7 47.9119 285.39C47.2914 285.286 46.6797 285.136 46.0819 284.94C46.7102 284.969 47.3353 285.046 47.9519 285.17L53.0119 285.95C57.2919 286.59 63.2019 287.44 69.7419 288.34L86.4919 290.63L91.5719 291.36C92.1845 291.442 92.7897 291.573 93.3819 291.75V291.75Z" fill="#263238"/>
<path d="M94.202 422.93C94.1392 422.832 94.0856 422.728 94.0419 422.62C93.9219 422.39 93.7819 422.08 93.6019 421.7L91.9819 418.13L90.812 415.6C90.412 414.6 90.0219 413.6 89.5719 412.46C88.7119 410.21 87.6319 407.67 86.7119 404.76C86.2319 403.32 85.712 401.81 85.202 400.23C84.692 398.65 84.2019 396.97 83.7519 395.23C82.7519 391.8 81.8919 388.06 80.9719 384.14C77.2616 367.032 76.0457 349.477 77.3619 332.02C77.7319 328.02 78.0219 324.2 78.5819 320.66C78.8519 318.89 79.0319 317.17 79.3319 315.53C79.6319 313.89 79.9319 312.33 80.2119 310.83C80.7219 307.83 81.442 305.16 81.982 302.83C82.272 301.65 82.5119 300.56 82.7819 299.56C83.0519 298.56 83.3419 297.66 83.5819 296.84C84.0519 295.23 84.4319 293.97 84.6919 293.08L85.0019 292.08C85.0303 291.966 85.0705 291.856 85.1219 291.75C85.1144 291.866 85.0909 291.98 85.0519 292.09L84.8019 293.09L83.8019 296.87L83.0519 299.6C82.8019 300.6 82.5719 301.71 82.3019 302.88C81.7819 305.24 81.0919 307.88 80.6119 310.88C80.3519 312.37 80.062 313.94 79.772 315.57C79.482 317.2 79.312 318.92 79.062 320.69C78.512 324.22 78.242 328.03 77.882 332.03C76.6466 349.446 77.8584 366.95 81.482 384.03C82.392 387.94 83.1819 391.68 84.2119 395.1C84.7019 396.82 85.1119 398.49 85.6219 400.1C86.1319 401.71 86.6219 403.19 87.1019 404.63C87.9919 407.54 89.0419 410.08 89.8719 412.35C90.3119 413.48 90.6819 414.54 91.0719 415.5L92.1919 418.09L93.7119 421.7L94.1019 422.65C94.1449 422.74 94.1784 422.833 94.202 422.93V422.93Z" fill="#263238"/>
<path d="M92.5119 372.26C90.4262 372.45 88.3276 372.45 86.2419 372.26C84.1424 372.258 82.0473 372.067 79.9819 371.69C82.0713 371.507 84.1726 371.507 86.2619 371.69C88.3579 371.696 90.4493 371.887 92.5119 372.26V372.26Z" fill="#263238"/>
<path d="M91.0619 379.6C88.8351 379.405 86.6575 378.834 84.6219 377.91C82.5158 377.16 80.554 376.054 78.8219 374.64C78.9119 374.5 81.4519 376.03 84.8219 377.39C88.1919 378.75 91.0919 379.38 91.0619 379.6Z" fill="#263238"/>
<path d="M77.0919 329.48C75.8453 330.263 74.4133 330.701 72.9419 330.75C71.4873 330.977 69.9986 330.822 68.6219 330.3C68.6219 330.13 70.5519 330.42 72.8919 330.19C75.2319 329.96 77.0319 329.33 77.0919 329.48Z" fill="#263238"/>
<path d="M80.2819 327.08C78.7333 327.403 77.1211 327.199 75.7019 326.5C74.2097 325.971 72.9406 324.953 72.1019 323.61C73.2968 324.52 74.576 325.314 75.9219 325.98C78.2019 326.97 80.2819 326.9 80.2819 327.08Z" fill="#263238"/>
<path d="M136.432 155.76C136.034 154.723 135.393 153.797 134.563 153.059C133.733 152.321 132.738 151.794 131.662 151.52C129.496 150.984 127.223 151.067 125.102 151.76L104.382 156.5C107.382 158.5 113.552 160.38 117.092 160.76C122.262 161.31 125.902 161.36 128.982 159.58C129.182 160.091 129.489 160.553 129.881 160.937C130.273 161.32 130.742 161.616 131.257 161.805C131.772 161.994 132.321 162.072 132.869 162.033C133.416 161.994 133.949 161.84 134.432 161.58C135.366 160.972 136.071 160.069 136.433 159.014C136.796 157.96 136.795 156.814 136.432 155.76V155.76Z" fill="#263238"/>
<path d="M343.442 373.12C339.231 372.247 335.182 370.722 331.442 368.6C331.502 368.46 334.142 369.6 337.442 370.84C340.742 372.08 343.482 372.98 343.442 373.12Z" fill="#263238"/>
<path d="M348.002 364.26C346.191 363.514 344.418 362.676 342.692 361.75C340.89 360.985 339.131 360.124 337.422 359.17C339.335 359.646 341.182 360.354 342.922 361.28C344.735 362.053 346.442 363.055 348.002 364.26V364.26Z" fill="#263238"/>
<path d="M182.962 301.51L224.732 302.02L275.172 292.02C275.964 291.854 276.688 291.452 277.246 290.866C277.805 290.281 278.173 289.539 278.302 288.74L285.162 243.32C285.24 242.799 285.193 242.266 285.026 241.766C284.859 241.266 284.577 240.813 284.202 240.443C283.827 240.072 283.369 239.796 282.867 239.635C282.365 239.475 281.832 239.436 281.312 239.52L229.762 247.91C229.048 248.027 228.39 248.371 227.887 248.892C227.385 249.413 227.064 250.082 226.972 250.8L221.222 296.99L183.022 296.8C182.398 296.8 181.799 297.047 181.357 297.488C180.914 297.928 180.665 298.526 180.662 299.15V299.15C180.659 299.766 180.899 300.359 181.329 300.801C181.759 301.242 182.346 301.497 182.962 301.51V301.51Z" fill="#E0E0E0"/>
<path d="M182.962 301.51C182.692 301.53 182.421 301.485 182.172 301.38C181.794 301.244 181.457 301.014 181.192 300.711C180.928 300.408 180.746 300.043 180.662 299.65C180.594 299.328 180.593 298.996 180.658 298.673C180.723 298.351 180.853 298.045 181.04 297.775C181.227 297.504 181.468 297.275 181.747 297.1C182.025 296.926 182.337 296.81 182.662 296.76C184.192 296.7 185.922 296.76 187.902 296.76L221.212 296.84L221.032 297C222.672 283.71 224.622 268 226.772 250.52C226.897 249.937 227.164 249.393 227.549 248.938C227.935 248.482 228.427 248.129 228.982 247.91C229.528 247.734 230.091 247.617 230.662 247.56L232.322 247.28L239.052 246.19L252.922 243.92L267.292 241.6L274.632 240.41L278.342 239.8L280.202 239.5C280.839 239.362 281.49 239.291 282.142 239.29C282.856 239.352 283.535 239.623 284.096 240.07C284.656 240.516 285.072 241.118 285.292 241.8C285.481 242.475 285.501 243.185 285.352 243.87L285.052 245.81C284.665 248.397 284.279 250.967 283.892 253.52C283.122 258.61 282.362 263.64 281.612 268.57C280.862 273.5 280.132 278.33 279.422 283.07L278.882 286.59C278.792 287.18 278.712 287.76 278.622 288.34C278.565 288.954 278.399 289.554 278.132 290.11C277.851 290.661 277.452 291.144 276.962 291.522C276.473 291.901 275.906 292.167 275.302 292.3L271.922 292.97L224.772 302.25L194.152 301.8L185.882 301.65L183.652 301.6H182.922H183.652H185.802L194.082 301.65L224.702 301.94L271.832 292.54L275.202 291.86C275.736 291.744 276.237 291.511 276.67 291.177C277.102 290.843 277.455 290.417 277.702 289.93C277.945 289.422 278.091 288.872 278.132 288.31L278.402 286.56C278.572 285.39 278.752 284.21 278.932 283.03L281.112 268.53C281.852 263.603 282.609 258.603 283.382 253.53C283.762 250.983 284.149 248.413 284.542 245.82L284.832 243.88C284.987 243.28 284.987 242.65 284.832 242.05C284.646 241.466 284.292 240.95 283.813 240.567C283.334 240.184 282.753 239.952 282.142 239.9C281.533 239.905 280.927 239.972 280.332 240.1L278.462 240.41L274.762 241.01L267.412 242.2L253.052 244.54L239.182 246.79L232.452 247.88L230.792 248.15C230.252 248.203 229.719 248.313 229.202 248.48C228.723 248.667 228.297 248.97 227.966 249.363C227.634 249.756 227.406 250.226 227.302 250.73C225.102 268.15 223.122 283.88 221.452 297.16V297.32H221.282L187.972 297.08C185.972 297.08 184.242 297.02 182.752 297.08C182.415 297.126 182.093 297.248 181.81 297.434C181.526 297.621 181.288 297.869 181.112 298.16C180.939 298.447 180.831 298.768 180.794 299.101C180.758 299.434 180.795 299.77 180.903 300.088C181.011 300.405 181.186 300.695 181.417 300.937C181.649 301.179 181.93 301.368 182.242 301.49C182.48 301.525 182.722 301.532 182.962 301.51Z" fill="#263238"/>
<path d="M231.432 249.37C231.572 249.37 230.192 261.44 228.342 276.3C226.492 291.16 224.882 303.19 224.732 303.17C224.582 303.15 225.982 291.1 227.832 276.24C229.682 261.38 231.292 249.35 231.432 249.37Z" fill="#263238"/>
<path d="M253.852 268.12C252.802 270.31 253.382 272.77 255.142 273.62C256.902 274.47 259.142 273.37 260.232 271.18C261.322 268.99 260.702 266.53 258.942 265.69C257.182 264.85 254.902 265.93 253.852 268.12Z" fill="white"/>
<path d="M490.538 257.69C490.522 257.821 490.488 257.949 490.438 258.07L490.078 259.16C489.758 260.11 489.298 261.51 488.648 263.31C487.388 266.91 485.488 272.1 482.978 278.45C476.504 295.02 468.764 311.068 459.828 326.45C457.308 330.819 455.099 335.36 453.218 340.04C451.521 344.43 450.334 349 449.678 353.66C448.701 361.58 448.701 369.59 449.678 377.51C450.408 384.29 451.388 389.73 452.018 393.51C452.338 395.36 452.588 396.82 452.768 397.84C452.848 398.31 452.908 398.68 452.948 398.96C452.976 399.089 452.993 399.219 452.998 399.35C452.955 399.226 452.922 399.099 452.898 398.97C452.838 398.7 452.758 398.33 452.668 397.85C452.468 396.85 452.178 395.39 451.818 393.54C451.128 389.79 450.088 384.36 449.308 377.54C448.288 369.574 448.267 361.512 449.248 353.54C449.89 348.843 451.075 344.235 452.778 339.81C454.661 335.091 456.88 330.512 459.418 326.11C468.336 310.741 476.107 294.734 482.668 278.22C485.228 271.9 487.178 266.73 488.498 263.15C489.158 261.38 489.668 260 490.018 259.03L490.428 257.96C490.478 257.81 490.538 257.69 490.538 257.69Z" fill="#263238"/>
<path d="M480.858 317.66C480.768 317.862 480.661 318.056 480.538 318.24L479.538 319.85C478.658 321.25 477.348 323.25 475.728 325.71C472.488 330.64 467.868 337.35 463.218 345.05C460.918 348.91 458.868 352.67 457.148 356.16C455.428 359.65 454.048 362.88 452.958 365.61C451.868 368.34 451.068 370.61 450.568 372.16C450.308 372.9 450.108 373.5 449.948 373.96C449.889 374.173 449.805 374.377 449.698 374.57C449.722 374.352 449.772 374.137 449.848 373.93C449.978 373.46 450.158 372.85 450.368 372.1C450.818 370.51 451.588 368.25 452.608 365.48C453.628 362.71 454.998 359.48 456.708 355.95C458.418 352.42 460.458 348.65 462.778 344.78C467.428 337.06 472.108 330.38 475.418 325.5L479.368 319.74L480.458 318.18C480.574 317.994 480.708 317.82 480.858 317.66V317.66Z" fill="#263238"/>
<path d="M490.438 257.69C490.688 255.25 488.048 252.82 485.748 251.96C483.378 251.265 480.859 251.265 478.488 251.96C471.54 253.617 465.216 257.241 460.273 262.398C455.33 267.555 451.978 274.028 450.618 281.04C457.038 277.866 463.639 275.074 470.388 272.68L469.248 273.01C472.522 272.35 475.613 270.987 478.308 269.015C481.003 267.043 483.238 264.51 484.858 261.59C485.385 260.422 486.09 259.342 486.948 258.39C487.389 257.924 487.963 257.606 488.592 257.48C489.221 257.355 489.873 257.428 490.458 257.69" fill="#455A64"/>
<path d="M490.458 257.67C496.839 253.258 504.684 251.498 512.338 252.76C516.125 253.428 519.718 254.922 522.862 257.136C526.006 259.35 528.624 262.23 530.528 265.57C532.362 268.943 533.332 272.717 533.352 276.556C533.371 280.396 532.439 284.179 530.638 287.57C527.098 280.22 523.308 272.57 516.728 267.75C515.178 266.63 513.438 265.6 512.568 263.89C511.568 261.89 511.978 259.48 511.108 257.44C510.048 254.93 507.108 254.19 504.398 254.05C501.688 253.91 493.778 256.42 490.458 257.63" fill="#455A64"/>
<path d="M490.288 257.55C496.828 255.61 504.228 258.81 508.688 263.71C513.148 268.61 515.398 275.19 516.168 281.77C516.938 288.35 516.318 295 515.648 301.59C510.526 293.943 506.717 285.493 504.378 276.59C503.378 272.59 502.558 268.43 500.668 264.73C499.584 262.834 498.089 261.204 496.293 259.96C494.497 258.715 492.445 257.889 490.288 257.54" fill="#455A64"/>
<path d="M490.068 257.69C495.298 255.27 498.248 249.81 498.918 244.08C499.224 241.206 498.803 238.302 497.696 235.632C496.588 232.963 494.829 230.614 492.578 228.8C490.003 231.222 488.175 234.33 487.311 237.757C486.446 241.184 486.58 244.787 487.698 248.14C488.808 251.29 490.818 254.44 490.068 257.69Z" fill="#455A64"/>
<path d="M448.268 363.76C448.134 363.511 448.023 363.25 447.938 362.98C447.728 362.46 447.478 361.68 447.068 360.7C446.308 358.7 445.068 355.9 443.498 352.49C439.176 343.632 434.244 335.085 428.738 326.91C423.331 318.666 417.335 310.822 410.798 303.44C408.827 301.2 406.68 299.12 404.378 297.22C403.747 296.711 403.079 296.249 402.378 295.84C402.121 295.719 401.874 295.579 401.638 295.42C401.908 295.511 402.172 295.618 402.428 295.74C403.152 296.125 403.844 296.566 404.498 297.06C406.858 298.91 409.053 300.961 411.058 303.19C417.693 310.517 423.745 318.351 429.158 326.62C434.701 334.806 439.615 343.401 443.858 352.33C445.438 355.78 446.588 358.63 447.288 360.63C447.668 361.63 447.888 362.41 448.068 362.94C448.159 363.207 448.226 363.482 448.268 363.76Z" fill="#263238"/>
<path d="M467.088 423.5H431.348L425.778 382.13H473.738L467.088 423.5Z" fill="#233564"/>
<path d="M500.578 332.47C496.968 324.72 487.688 319.66 479.168 320.35C480.087 320.807 480.885 321.471 481.502 322.29C482.118 323.11 482.535 324.062 482.718 325.07C483.054 327.087 483.234 329.126 483.258 331.17C484.028 340.96 490.328 349.31 496.368 357.04C500.618 362.47 504.898 367.93 509.978 372.6C509.368 358.68 508.488 343.93 500.578 332.47Z" fill="#455A64"/>
<path d="M479.168 320.46C484.578 316.3 491.558 314.57 498.388 314.46C505.218 314.35 511.958 315.86 518.568 317.54C522.568 318.54 526.568 319.66 529.978 321.96C533.388 324.26 536.088 327.96 536.148 332.05C530.538 325.88 521.498 324.69 513.488 322.36C508.068 320.79 502.828 318.53 497.298 317.36C491.09 316.347 484.72 317.401 479.168 320.36" fill="#455A64"/>
<path d="M480.098 319.36C477.728 316.87 479.038 311.05 481.098 308.31C483.158 305.57 486.448 304.02 489.688 302.87C493.948 301.351 498.366 300.321 502.858 299.8C502.283 302.625 500.822 305.192 498.688 307.13C496.561 309.041 494.234 310.717 491.748 312.13L480.078 319.35" fill="#455A64"/>
<path d="M457.858 316.04C451.088 319.04 445.858 324.55 440.788 329.95C448.302 328.122 455.49 325.147 462.098 321.13C464.718 319.53 467.318 317.74 470.318 317.07C473.318 316.4 476.678 317.74 479.178 319.81C474.928 313.55 464.628 313.04 457.858 316.04Z" fill="#455A64"/>
<path d="M454.668 360.33C458.458 351.63 456.858 341.08 461.668 332.91C465.358 326.65 472.158 322.91 478.928 320.29C480.498 325 479.748 330.29 477.758 334.82C475.768 339.35 472.608 343.31 469.278 346.99C464.668 352.08 459.658 356.79 454.658 361.5" fill="#455A64"/>
<path d="M475.938 382.13H422.488V391.44H475.938V382.13Z" fill="#233564"/>
<path d="M474.158 391.73C474.158 391.88 462.588 391.99 448.328 391.99C434.068 391.99 422.488 391.88 422.488 391.73C422.488 391.58 434.058 391.47 448.328 391.47C462.598 391.47 474.158 391.59 474.158 391.73Z" fill="#263238"/>
<path d="M492.858 258.04C491.089 254.734 489.009 251.603 486.648 248.69C484.263 245.77 481.097 243.588 477.518 242.4C472.698 240.99 467.518 242.11 462.718 243.54C457.094 245.217 451.602 247.31 446.288 249.8C453.306 252.441 461.021 252.579 468.128 250.19C471.808 248.94 475.378 249.1 479.238 249.54C483.938 250.07 489.818 254.42 492.858 258.04" fill="#455A64"/>
<path d="M365.198 313.2C356.778 323.92 353.968 338.2 354.918 351.84C359.928 333.692 370.352 317.503 384.798 305.43C390.298 300.87 397.318 297.25 404.128 297.25C390.118 296.04 373.858 302.14 365.198 313.2Z" fill="#455A64"/>
<path d="M384.758 291.67C380.058 292.02 375.758 294.4 371.878 297.06C365.938 301.14 360.358 306.29 357.768 313.06C363.029 306.868 369.735 302.067 377.292 299.083C384.85 296.099 393.026 295.023 401.098 295.95C395.978 293.37 390.458 291.25 384.758 291.67Z" fill="#455A64"/>
<path d="M397.918 275.57C395.198 277.46 393.118 280.57 393.258 283.87C393.443 286.153 394.395 288.307 395.958 289.98C397.675 291.974 399.58 293.795 401.648 295.42C403.378 287.78 405.448 279.8 407.178 272.16C403.894 272.662 400.744 273.822 397.918 275.57V275.57Z" fill="#455A64"/>
<path d="M413.858 274.84C410.09 277.102 407.055 280.405 405.118 284.35C403.328 288.35 402.588 293.35 404.838 297.09C411.286 287.447 418.243 278.154 425.678 269.25C421.568 270.73 417.61 272.602 413.858 274.84V274.84Z" fill="#455A64"/>
<path d="M427.328 287.96C423.096 287.664 418.855 288.399 414.969 290.102C411.083 291.806 407.668 294.427 405.018 297.74C408.72 295.854 412.884 295.066 417.018 295.47C427.378 296.812 437.657 298.718 447.808 301.18C445.721 297.483 442.766 294.347 439.199 292.045C435.631 289.742 431.558 288.34 427.328 287.96V287.96Z" fill="#455A64"/>
<path d="M405.998 297.09C398.058 297.53 391.118 303.64 388.348 311.09C385.578 318.54 386.528 326.99 389.518 334.35C392.508 341.71 397.418 348.13 402.608 354.15C405.208 345.15 407.828 336.15 408.978 326.93C410.128 317.71 409.248 305.83 405.998 297.09Z" fill="#455A64"/>
<g opacity="0.3">
<path opacity="0.3" d="M365.198 313.2C356.778 323.92 353.968 338.2 354.918 351.84C359.928 333.692 370.352 317.503 384.798 305.43C390.298 300.87 397.318 297.25 404.128 297.25C390.118 296.04 373.858 302.14 365.198 313.2Z" fill="black"/>
<path opacity="0.3" d="M384.758 291.67C380.058 292.02 375.758 294.4 371.878 297.06C365.938 301.14 360.358 306.29 357.768 313.06C363.029 306.868 369.735 302.067 377.292 299.083C384.85 296.099 393.026 295.023 401.098 295.95C395.978 293.37 390.458 291.25 384.758 291.67Z" fill="black"/>
<path opacity="0.3" d="M397.918 275.57C395.198 277.46 393.118 280.57 393.258 283.87C393.443 286.153 394.395 288.307 395.958 289.98C397.675 291.974 399.58 293.795 401.648 295.42C403.378 287.78 405.448 279.8 407.178 272.16C403.894 272.662 400.744 273.822 397.918 275.57V275.57Z" fill="black"/>
<path opacity="0.3" d="M413.858 274.84C410.09 277.102 407.055 280.405 405.118 284.35C403.328 288.35 402.588 293.35 404.838 297.09C411.286 287.447 418.243 278.154 425.678 269.25C421.568 270.73 417.61 272.602 413.858 274.84V274.84Z" fill="black"/>
<path opacity="0.3" d="M427.328 287.96C423.096 287.664 418.855 288.399 414.969 290.102C411.083 291.806 407.668 294.427 405.018 297.74C408.72 295.854 412.884 295.066 417.018 295.47C427.378 296.812 437.657 298.718 447.808 301.18C445.721 297.483 442.766 294.347 439.199 292.045C435.631 289.742 431.558 288.34 427.328 287.96V287.96Z" fill="black"/>
<path opacity="0.3" d="M405.998 297.09C398.058 297.53 391.118 303.64 388.348 311.09C385.578 318.54 386.528 326.99 389.518 334.35C392.508 341.71 397.418 348.13 402.608 354.15C405.208 345.15 407.828 336.15 408.978 326.93C410.128 317.71 409.248 305.83 405.998 297.09Z" fill="black"/>
</g>
<g opacity="0.2">
<path opacity="0.2" d="M500.578 332.47C496.968 324.72 487.688 319.66 479.168 320.35C480.087 320.807 480.885 321.471 481.502 322.29C482.118 323.11 482.535 324.062 482.718 325.07C483.054 327.087 483.234 329.126 483.258 331.17C484.028 340.96 490.328 349.31 496.368 357.04C500.618 362.47 504.898 367.93 509.978 372.6C509.368 358.68 508.488 343.93 500.578 332.47Z" fill="black"/>
<path opacity="0.2" d="M479.168 320.46C484.578 316.3 491.558 314.57 498.388 314.46C505.218 314.35 511.958 315.86 518.568 317.54C522.568 318.54 526.568 319.66 529.978 321.96C533.388 324.26 536.088 327.96 536.148 332.05C530.538 325.88 521.498 324.69 513.488 322.36C508.068 320.79 502.828 318.53 497.298 317.36C491.09 316.347 484.72 317.401 479.168 320.36" fill="black"/>
<path opacity="0.2" d="M480.098 319.36C477.728 316.87 479.038 311.05 481.098 308.31C483.158 305.57 486.448 304.02 489.688 302.87C493.948 301.351 498.366 300.321 502.858 299.8C502.283 302.625 500.822 305.192 498.688 307.13C496.561 309.041 494.234 310.717 491.748 312.13L480.078 319.35" fill="black"/>
<path opacity="0.2" d="M457.858 316.04C451.088 319.04 445.858 324.55 440.788 329.95C448.302 328.122 455.49 325.147 462.098 321.13C464.718 319.53 467.318 317.74 470.318 317.07C473.318 316.4 476.678 317.74 479.178 319.81C474.928 313.55 464.628 313.04 457.858 316.04Z" fill="black"/>
<path opacity="0.2" d="M454.668 360.33C458.458 351.63 456.858 341.08 461.668 332.91C465.358 326.65 472.158 322.91 478.928 320.29C480.498 325 479.748 330.29 477.758 334.82C475.768 339.35 472.608 343.31 469.278 346.99C464.668 352.08 459.658 356.79 454.658 361.5" fill="black"/>
</g>
</svg>
