<svg width="144" height="285" viewBox="0 0 144 285" fill="none" xmlns="http://www.w3.org/2000/svg">
<path d="M72.3536 284.56C111.61 284.56 143.434 279.492 143.434 273.24C143.434 266.988 111.61 261.92 72.3536 261.92C33.0972 261.92 1.27356 266.988 1.27356 273.24C1.27356 279.492 33.0972 284.56 72.3536 284.56Z" fill="#F5F5F5"/>
<path d="M27.5236 248.16C27.5236 248.16 26.1036 238 19.6336 236.87C13.1636 235.74 15.0836 230.87 13.3936 228.93C11.7036 226.99 7.26356 232.65 11.0636 238.09C14.8636 243.53 11.7536 241.82 13.3936 246.88C15.0336 251.94 28.1036 256.59 27.5236 248.16Z" fill="#263238"/>
<path opacity="0.2" d="M27.5236 248.16C27.5236 248.16 26.1036 238 19.6336 236.87C13.1636 235.74 15.0836 230.87 13.3936 228.93C11.7036 226.99 7.26356 232.65 11.0636 238.09C14.8636 243.53 11.7536 241.82 13.3936 246.88C15.0336 251.94 28.1036 256.59 27.5236 248.16Z" fill="white"/>
<path d="M27.2536 255.21C27.1686 255.211 27.085 255.188 27.0124 255.144C26.9399 255.1 26.8813 255.036 26.8436 254.96C26.8436 254.85 21.8436 244.27 24.4336 227.42C25.2753 222.594 26.6158 217.869 28.4336 213.32C31.5736 204.74 34.0636 197.96 28.3736 185.58C26.5736 181.66 24.7436 178.01 22.9636 174.48C16.2836 161.22 10.9636 150.75 14.9636 140.15C14.9837 140.094 15.0146 140.043 15.0548 139.999C15.0949 139.955 15.1433 139.919 15.1972 139.894C15.2512 139.869 15.3096 139.855 15.369 139.852C15.4284 139.85 15.4878 139.859 15.5436 139.88C15.655 139.923 15.7455 140.007 15.7959 140.115C15.8463 140.224 15.8526 140.347 15.8136 140.46C12.0236 150.7 17.2236 161.01 23.8136 174.07C25.5936 177.61 27.4436 181.27 29.2436 185.2C35.0936 197.92 32.4136 205.2 29.3236 213.63C27.5272 218.12 26.2067 222.785 25.3836 227.55C22.8136 244.12 27.6636 254.47 27.7136 254.55C27.7618 254.659 27.7658 254.783 27.7248 254.894C27.6837 255.006 27.6008 255.098 27.4936 255.15C27.4212 255.193 27.3377 255.214 27.2536 255.21Z" fill="#263238"/>
<path d="M23.4936 252.73C23.4936 252.73 19.2936 246.39 25.3636 243.13C31.4336 239.87 32.6436 242.5 36.3636 240.13C40.0836 237.76 42.9636 232.13 43.6036 235.74C44.2436 239.35 39.9036 241.44 41.4436 243.1C42.9836 244.76 31.2736 255.59 23.4936 252.73Z" fill="#263238"/>
<path d="M13.5736 145.59C13.5736 145.59 9.47356 133.14 18.7936 132.88C28.1136 132.62 17.8436 144.27 13.5736 145.59Z" fill="#263238"/>
<path d="M21.6736 155.17C21.6736 155.17 24.4436 143.85 31.0636 146.23C37.6836 148.61 28.2636 155.38 21.6736 155.17Z" fill="#263238"/>
<path d="M10.4436 156.15C10.4436 156.15 11.4436 147.15 4.44356 146.93C-2.55644 146.71 0.533558 154.69 10.4436 156.15Z" fill="#263238"/>
<path d="M15.1036 174.58C15.1036 174.58 5.68356 166.19 2.30356 172.44C-1.07644 178.69 9.41356 180 15.1036 174.58Z" fill="#263238"/>
<path d="M31.7836 173.09C31.7836 173.09 33.5536 159.15 41.1636 163.52C48.7736 167.89 38.4136 174.49 31.7836 173.09Z" fill="#263238"/>
<path d="M38.4836 193.06C38.4836 193.06 32.8636 178.97 43.3036 180.56C53.7436 182.15 45.8436 189.64 38.4836 193.06Z" fill="#263238"/>
<path d="M22.4636 198.09C22.4636 198.09 13.6436 187.71 6.91356 191C0.183556 194.29 5.68356 204.62 22.4636 198.09Z" fill="#263238"/>
<path d="M30.4636 221.1C30.4636 221.1 37.9736 204.42 44.6536 210.04C51.3336 215.66 40.3936 224.07 30.4636 221.1Z" fill="#263238"/>
<path d="M19.5536 220.12C19.5536 220.12 21.5536 207.19 14.1036 208.23C6.65356 209.27 8.61356 217.18 19.5536 220.12Z" fill="#263238"/>
<g opacity="0.2">
<path opacity="0.2" d="M13.5736 145.59C13.5736 145.59 9.47356 133.14 18.7936 132.88C28.1136 132.62 17.8436 144.27 13.5736 145.59Z" fill="white"/>
<path opacity="0.2" d="M21.6736 155.17C21.6736 155.17 24.4436 143.85 31.0636 146.23C37.6836 148.61 28.2636 155.38 21.6736 155.17Z" fill="white"/>
<path opacity="0.2" d="M10.4436 156.15C10.4436 156.15 11.4436 147.15 4.44356 146.93C-2.55644 146.71 0.533558 154.69 10.4436 156.15Z" fill="white"/>
<path opacity="0.2" d="M15.1036 174.58C15.1036 174.58 5.68356 166.19 2.30356 172.44C-1.07644 178.69 9.41356 180 15.1036 174.58Z" fill="white"/>
<path opacity="0.2" d="M31.7836 173.09C31.7836 173.09 33.5536 159.15 41.1636 163.52C48.7736 167.89 38.4136 174.49 31.7836 173.09Z" fill="white"/>
<path opacity="0.2" d="M38.4836 193.06C38.4836 193.06 32.8636 178.97 43.3036 180.56C53.7436 182.15 45.8436 189.64 38.4836 193.06Z" fill="white"/>
<path opacity="0.2" d="M22.4636 198.09C22.4636 198.09 13.6436 187.71 6.91356 191C0.183556 194.29 5.68356 204.62 22.4636 198.09Z" fill="white"/>
<path opacity="0.2" d="M30.4636 221.1C30.4636 221.1 37.9736 204.42 44.6536 210.04C51.3336 215.66 40.3936 224.07 30.4636 221.1Z" fill="white"/>
<path opacity="0.2" d="M19.5536 220.12C19.5536 220.12 21.5536 207.19 14.1036 208.23C6.65356 209.27 8.61356 217.18 19.5536 220.12Z" fill="white"/>
</g>
<path d="M17.6036 162.67C17.5264 162.669 17.4507 162.648 17.3836 162.61C11.8736 159.52 7.90356 153.69 7.73356 153.44C7.6686 153.339 7.64583 153.216 7.67013 153.098C7.69443 152.981 7.76386 152.877 7.86357 152.81C7.91247 152.777 7.96757 152.754 8.02558 152.742C8.08358 152.731 8.14331 152.731 8.20118 152.743C8.25905 152.755 8.31389 152.779 8.36241 152.813C8.41092 152.847 8.45213 152.89 8.48356 152.94C8.48356 152.99 12.3036 158.55 17.4236 161.59C18.2736 160.03 21.3036 154.65 23.8336 153.13C23.8847 153.099 23.9414 153.079 24.0003 153.071C24.0593 153.062 24.1193 153.066 24.177 153.08C24.2347 153.095 24.2888 153.122 24.3363 153.157C24.3838 153.193 24.4236 153.238 24.4536 153.29C24.4853 153.34 24.5065 153.396 24.5156 153.454C24.5248 153.513 24.5217 153.573 24.5067 153.63C24.4917 153.687 24.465 153.741 24.4283 153.787C24.3916 153.834 24.3458 153.872 24.2936 153.9C21.6036 155.52 18.0436 162.35 18.0036 162.42C17.977 162.475 17.9392 162.524 17.8928 162.563C17.8463 162.603 17.7921 162.632 17.7336 162.65L17.6036 162.67Z" fill="#263238"/>
<path d="M26.1536 180C26.053 180.001 25.9549 179.969 25.8736 179.91C18.0336 173.98 8.00356 174.23 7.87356 174.23C7.75462 174.228 7.64069 174.182 7.55386 174.1C7.46702 174.019 7.41346 173.909 7.40356 173.79C7.40224 173.731 7.41256 173.672 7.43396 173.617C7.45536 173.562 7.4874 173.512 7.52826 173.469C7.56912 173.426 7.61799 173.392 7.6721 173.368C7.7262 173.344 7.78446 173.331 7.84356 173.33C7.94356 173.33 17.9536 173.07 25.9936 178.9C26.9936 177.22 31.0736 171.15 36.2436 168.11C36.2943 168.078 36.351 168.057 36.4103 168.048C36.4695 168.038 36.53 168.041 36.5881 168.056C36.6462 168.071 36.7005 168.098 36.7479 168.135C36.7953 168.171 36.8346 168.217 36.8636 168.27C36.8953 168.32 36.9165 168.376 36.9256 168.434C36.9347 168.493 36.9317 168.553 36.9167 168.61C36.9017 168.667 36.875 168.721 36.8383 168.767C36.8016 168.814 36.7558 168.852 36.7036 168.88C31.0036 172.24 26.5536 179.71 26.5036 179.78C26.4733 179.836 26.4304 179.884 26.3783 179.92C26.3262 179.957 26.2664 179.981 26.2036 179.99L26.1536 180Z" fill="#263238"/>
<path d="M31.5836 202.84C31.5064 202.839 31.4307 202.818 31.3636 202.78C31.2436 202.71 19.7836 196.12 11.4936 195.96C11.4345 195.96 11.3759 195.948 11.3214 195.926C11.2668 195.903 11.2171 195.87 11.1754 195.828C11.1336 195.786 11.1004 195.737 11.0778 195.682C11.0552 195.628 11.0436 195.569 11.0436 195.51C11.0436 195.451 11.0552 195.392 11.0778 195.338C11.1004 195.283 11.1336 195.234 11.1754 195.192C11.2171 195.15 11.2668 195.117 11.3214 195.094C11.3759 195.072 11.4345 195.06 11.4936 195.06C19.3936 195.21 29.6836 200.81 31.4936 201.84C36.8136 197.36 41.0336 186.34 41.0836 186.23C41.1024 186.172 41.1328 186.118 41.173 186.073C41.2132 186.027 41.2623 185.989 41.3173 185.963C41.3723 185.937 41.4321 185.922 41.493 185.92C41.5539 185.917 41.6147 185.927 41.6717 185.949C41.7287 185.97 41.7807 186.003 41.8245 186.046C41.8683 186.088 41.903 186.139 41.9266 186.195C41.9502 186.252 41.962 186.312 41.9615 186.373C41.961 186.434 41.9481 186.494 41.9236 186.55C41.7436 187.02 37.4436 198.23 31.8236 202.74C31.7558 202.797 31.672 202.832 31.5836 202.84Z" fill="#263238"/>
<path d="M24.9536 226.49C24.873 226.49 24.7937 226.47 24.7236 226.43C20.3936 223.95 14.7936 213.09 14.5536 212.63C14.5266 212.577 14.5105 212.519 14.5059 212.459C14.5014 212.4 14.5087 212.34 14.5272 212.284C14.5458 212.227 14.5753 212.174 14.6142 212.129C14.653 212.084 14.7004 212.047 14.7536 212.02C14.8067 211.993 14.8647 211.977 14.9242 211.972C14.9836 211.968 15.0433 211.975 15.1 211.994C15.1566 212.012 15.2091 212.042 15.2543 212.081C15.2995 212.119 15.3366 212.167 15.3636 212.22C15.3636 212.33 20.7736 222.71 24.8436 225.43C28.1593 221.565 32.5425 218.764 37.4436 217.38C37.5589 217.349 37.6818 217.364 37.7863 217.422C37.8908 217.479 37.9687 217.576 38.0036 217.69C38.0378 217.804 38.0255 217.927 37.9693 218.032C37.913 218.137 37.8175 218.215 37.7036 218.25C32.8573 219.597 28.5359 222.388 25.3136 226.25C25.281 226.319 25.2303 226.378 25.1668 226.42C25.1034 226.462 25.0297 226.486 24.9536 226.49V226.49Z" fill="#263238"/>
<path d="M24.1036 251.22C24.1036 251.22 20.4936 245.48 16.4236 244.66C12.3536 243.84 10.6336 239.15 9.10356 242C7.57356 244.85 11.7736 254.15 24.1036 251.22Z" fill="#263238"/>
<path d="M5.42356 273.75H44.8036L47.4436 249.46H2.79356L5.42356 273.75Z" fill="#233564"/>
<path d="M1.87356 254.06H48.3636L48.9536 248.92H1.27356L1.87356 254.06Z" fill="#233564"/>
<path opacity="0.3" d="M1.87356 254.06H48.3636L48.9536 248.92H1.27356L1.87356 254.06Z" fill="white"/>
<path d="M128.444 11.0601L125.024 43.9101H107.904L104.484 11.0601H128.444Z" fill="#263238"/>
<path opacity="0.3" d="M128.444 11.0601L125.024 43.9101H107.904L104.484 11.0601H128.444Z" fill="white"/>
<path d="M119.644 36.85H113.274V273.75H119.644V36.85Z" fill="#263238"/>
<path opacity="0.3" d="M119.644 36.85H113.274V273.75H119.644V36.85Z" fill="white"/>
<path d="M123.224 41.9101H109.704L106.704 13.0601H126.224L123.224 41.9101Z" fill="#EA6216"/>
<path opacity="0.4" d="M123.224 41.9101H109.704L106.704 13.0601H126.224L123.224 41.9101Z" fill="white"/>
<path d="M114.684 42.3601H113.764L112.764 12.0601H113.684L114.684 42.3601Z" fill="#263238"/>
<path opacity="0.3" d="M114.684 42.3601H113.764L112.764 12.0601H113.684L114.684 42.3601Z" fill="white"/>
<path opacity="0.2" d="M128.444 11.0601L125.024 43.9101H114.264L112.974 11.0601H128.444Z" fill="white"/>
<path d="M116.464 0.5C116.464 0.5 106.304 10.5 98.5237 10.5L100.944 12.09H131.944L134.354 10.5C126.614 10.52 116.464 0.5 116.464 0.5Z" fill="#263238"/>
<path opacity="0.4" d="M134.394 10.52L131.984 12.1H100.984L98.5437 10.52C106.324 10.52 116.474 0.52002 116.474 0.52002C116.474 0.52002 126.614 10.52 134.394 10.52Z" fill="white"/>
<path opacity="0.2" d="M134.394 10.52L131.984 12.1H111.824C111.214 11.1 110.824 10.39 110.824 10.39C116.234 7.88 116.504 0.5 116.504 0.5C116.504 0.5 126.614 10.52 134.394 10.52Z" fill="white"/>
<path d="M110.994 269.37H121.934C122.589 269.37 123.217 269.63 123.68 270.093C124.143 270.557 124.404 271.185 124.404 271.84V273.75H108.544V271.84C108.544 271.188 108.801 270.563 109.26 270.1C109.719 269.638 110.342 269.375 110.994 269.37V269.37Z" fill="#263238"/>
<path opacity="0.5" d="M110.994 269.37H121.934C122.589 269.37 123.217 269.63 123.68 270.093C124.143 270.557 124.404 271.185 124.404 271.84V273.75H108.544V271.84C108.544 271.188 108.801 270.563 109.26 270.1C109.719 269.638 110.342 269.375 110.994 269.37V269.37Z" fill="white"/>
</svg>
